STARTFONT 2.3
FONT -FontForge-Pacifico-Book-R-Normal--16-160-72-72-P-94-ISO10646-1
SIZE 16 72 72  2
FONTBOUNDINGBOX 37 32 -10 -8
COMMENT "Generated by fontforge, http://fontforge.sourceforge.net"
COMMENT "Copyright 2018 The Pacifico Project Authors (https://github.com/googlefonts/Pacifico)"
STARTPROPERTIES 41
FOUNDRY "FontForge"
FAMILY_NAME "Pacifico"
WEIGHT_NAME "Book"
SLANT "R"
SETWIDTH_NAME "Normal"
ADD_STYLE_NAME ""
PIXEL_SIZE 16
POINT_SIZE 160
RESOLUTION_X 72
RESOLUTION_Y 72
SPACING "P"
AVERAGE_WIDTH 94
CHARSET_REGISTRY "ISO10646"
CHARSET_ENCODING "1"
FONTNAME_REGISTRY ""
CHARSET_COLLECTIONS "ISO8859-2 ISO8859-5 ISO8859-9 ISO8859-4 ISO10646-1"
BITS_PER_PIXEL 2
FONT_NAME "Pacifico-Regular"
FACE_NAME "Pacifico Regular"
COPYRIGHT "Copyright 2018 The Pacifico Project Authors (https://github.com/googlefonts/Pacifico)"
FONT_VERSION "3.001"
FONT_ASCENT 13
FONT_DESCENT 3
UNDERLINE_POSITION -2
UNDERLINE_THICKNESS 1
X_HEIGHT 7
CAP_HEIGHT 14
DEFAULT_CHAR 1
RAW_ASCENT 800
RAW_DESCENT 200
NORM_SPACE 4
RELATIVE_WEIGHT 40
RELATIVE_SETWIDTH 50
SUPERSCRIPT_X 0
SUPERSCRIPT_Y 5
SUPERSCRIPT_SIZE 9
SUBSCRIPT_X 0
SUBSCRIPT_Y 1
SUBSCRIPT_SIZE 9
AVG_LOWERCASE_WIDTH 75
AVG_UPPERCASE_WIDTH 130
ENDPROPERTIES
CHARS 1514
STARTCHAR NULL.dup1
ENCODING 0
SWIDTH 0 0
DWIDTH 0 0
BBX 1 1 0 0
BITMAP
00
ENDCHAR
STARTCHAR nonmarkingreturn
ENCODING 13
SWIDTH 265 0
DWIDTH 4 0
BBX 1 1 0 0
BITMAP
00
ENDCHAR
STARTCHAR space
ENCODING 32
SWIDTH 265 0
DWIDTH 4 0
BBX 1 1 0 0
BITMAP
00
ENDCHAR
STARTCHAR exclam
ENCODING 33
SWIDTH 340 0
DWIDTH 5 0
BBX 6 15 0 0
BITMAP
01E0
02E0
03D0
03D0
07C0
0780
0B80
0B40
0F00
0E00
0D00
0000
3D00
7D00
7C00
ENDCHAR
STARTCHAR quotedbl
ENCODING 34
SWIDTH 510 0
DWIDTH 8 0
BBX 6 6 2 9
BITMAP
74B0
B9F0
F5F0
F2E0
F2D0
E1C0
ENDCHAR
STARTCHAR numbersign
ENCODING 35
SWIDTH 700 0
DWIDTH 11 0
BBX 11 10 0 0
BITMAP
00A0D0
01E2D0
2FFFF8
1FFFF8
078780
078B40
7FFFF0
7FFFE0
1E1E00
1D1C00
ENDCHAR
STARTCHAR dollar
ENCODING 36
SWIDTH 524 0
DWIDTH 8 0
BBX 8 15 0 -2
BITMAP
0010
0060
00A0
07F8
1FFE
2CDE
2EC4
1FD0
02F8
21AD
7A9D
3FFC
1BE0
0340
0300
ENDCHAR
STARTCHAR percent
ENCODING 37
SWIDTH 896 0
DWIDTH 14 0
BBX 14 13 0 0
BITMAP
0B801C00
2EE03C00
39F1F800
78FFF000
38BAE000
2FD3C000
054B4540
000F2FE0
002D38F0
007874B0
00B474B0
01E03EE0
01D01F80
ENDCHAR
STARTCHAR ampersand
ENCODING 38
SWIDTH 851 0
DWIDTH 14 0
BBX 13 16 0 -1
BITMAP
006F4000
01FFD000
02D1E000
03C1E000
03C2D000
03D7C000
02FF4000
01FC0000
0BFC0180
2F6E07C0
3D1F8F40
7C07FE00
3D03F800
2FFFFD00
06F97F00
00001F00
ENDCHAR
STARTCHAR quotesingle
ENCODING 39
SWIDTH 290 0
DWIDTH 5 0
BBX 3 6 2 9
BITMAP
74
B8
F4
F0
F0
E0
ENDCHAR
STARTCHAR parenleft
ENCODING 40
SWIDTH 613 0
DWIDTH 10 0
BBX 11 18 1 -2
BITMAP
001BE0
00BFF8
02F424
07D000
0B8000
1F0000
2E0000
2D0000
3C0000
7C0000
780000
780000
B80000
B80000
780100
7C1F00
2FFD00
0BE400
ENDCHAR
STARTCHAR parenright
ENCODING 41
SWIDTH 613 0
DWIDTH 10 0
BBX 11 18 -2 -2
BITMAP
002F90
00FFF4
01E0B8
00407C
00003C
00003C
00007C
00007C
000078
0000B8
0000F4
0001F0
0002E0
0003D0
000B80
242F00
7FFD00
1BE000
ENDCHAR
STARTCHAR asterisk
ENCODING 42
SWIDTH 520 0
DWIDTH 8 0
BBX 7 7 2 9
BITMAP
A340
BB74
1FF4
FF80
EAE0
0DA0
0D00
ENDCHAR
STARTCHAR plus
ENCODING 43
SWIDTH 700 0
DWIDTH 11 0
BBX 9 10 1 0
BITMAP
007000
00B000
00F000
00E000
7FFFC0
7FFF80
01D000
02D000
02D000
028000
ENDCHAR
STARTCHAR comma
ENCODING 44
SWIDTH 257 0
DWIDTH 4 0
BBX 3 6 0 -3
BITMAP
2C
7C
7C
78
B4
A0
ENDCHAR
STARTCHAR hyphen
ENCODING 45
SWIDTH 403 0
DWIDTH 6 0
BBX 5 2 1 4
BITMAP
BF80
FE40
ENDCHAR
STARTCHAR period
ENCODING 46
SWIDTH 257 0
DWIDTH 4 0
BBX 4 3 0 0
BITMAP
7C
BD
7C
ENDCHAR
STARTCHAR slash
ENCODING 47
SWIDTH 509 0
DWIDTH 8 0
BBX 9 16 0 0
BITMAP
000280
000780
000B40
001F00
002D00
007C00
00B400
01F000
02D000
07C000
0B4000
1F0000
2D0000
7C0000
B40000
A00000
ENDCHAR
STARTCHAR zero
ENCODING 48
SWIDTH 543 0
DWIDTH 9 0
BBX 7 10 1 0
BITMAP
0BE0
3FF4
B87C
F03C
F03C
F03C
F078
F4B4
BFF0
2F80
ENDCHAR
STARTCHAR one
ENCODING 49
SWIDTH 376 0
DWIDTH 6 0
BBX 5 10 1 0
BITMAP
6F00
FF40
5F00
1F00
1E00
1E00
2E00
2D00
2D00
2C00
ENDCHAR
STARTCHAR two
ENCODING 50
SWIDTH 560 0
DWIDTH 9 0
BBX 7 10 1 0
BITMAP
1BE0
7FF8
B87C
B03C
10B8
01F0
07D0
6E00
FFF8
FFFC
ENDCHAR
STARTCHAR three
ENCODING 51
SWIDTH 520 0
DWIDTH 8 0
BBX 8 10 0 0
BITMAP
07F8
2FFE
3C2E
242D
01F8
03F8
102D
B42E
7FFD
1BE4
ENDCHAR
STARTCHAR four
ENCODING 52
SWIDTH 577 0
DWIDTH 9 0
BBX 9 10 0 0
BITMAP
02D000
07C000
0B4A00
0F0F00
2E1E00
3C2D00
7FFF80
2FFF40
003C00
002C00
ENDCHAR
STARTCHAR five
ENCODING 53
SWIDTH 518 0
DWIDTH 8 0
BBX 8 10 0 0
BITMAP
1FFE
2FFE
1E00
1E00
2FE4
1FFD
102E
782E
3FFC
1BE4
ENDCHAR
STARTCHAR six
ENCODING 54
SWIDTH 541 0
DWIDTH 9 0
BBX 9 10 0 0
BITMAP
02F900
0BFF00
1E0B40
3D0100
3EF800
7FFD00
3D1E00
3D2E00
2FFD00
0BE400
ENDCHAR
STARTCHAR seven
ENCODING 55
SWIDTH 497 0
DWIDTH 8 0
BBX 9 10 0 0
BITMAP
2FFE00
7FFF40
007D00
01F400
02D000
07C000
0B8000
0F4000
0F0000
0A0000
ENDCHAR
STARTCHAR eight
ENCODING 56
SWIDTH 512 0
DWIDTH 8 0
BBX 8 10 0 0
BITMAP
06F8
1FFE
2D1E
2D2E
1FF8
1FF8
382D
782E
3FFD
1BE4
ENDCHAR
STARTCHAR nine
ENCODING 57
SWIDTH 541 0
DWIDTH 9 0
BBX 8 10 0 0
BITMAP
06F4
1FFD
2D1F
3D1F
2FFF
0BEF
101E
783D
3FF8
1BD0
ENDCHAR
STARTCHAR colon
ENCODING 58
SWIDTH 257 0
DWIDTH 4 0
BBX 4 8 0 0
BITMAP
2E
3F
2E
00
00
7C
BD
7C
ENDCHAR
STARTCHAR semicolon
ENCODING 59
SWIDTH 257 0
DWIDTH 4 0
BBX 4 11 0 -3
BITMAP
2E
3F
2E
00
00
2C
7C
7C
78
B4
A0
ENDCHAR
STARTCHAR less
ENCODING 60
SWIDTH 700 0
DWIDTH 11 0
BBX 10 8 1 1
BITMAP
000040
001BD0
06FE40
7F9000
BE4000
2FE400
01BF40
001B80
ENDCHAR
STARTCHAR equal
ENCODING 61
SWIDTH 700 0
DWIDTH 11 0
BBX 10 6 1 2
BITMAP
7FFFD0
6FFF80
000000
000000
BFFF80
BFFF80
ENDCHAR
STARTCHAR greater
ENCODING 62
SWIDTH 700 0
DWIDTH 11 0
BBX 9 8 1 1
BITMAP
140000
7F4000
1BF900
00BF80
001FC0
06FE40
BF9000
A40000
ENDCHAR
STARTCHAR question
ENCODING 63
SWIDTH 476 0
DWIDTH 8 0
BBX 8 15 1 0
BITMAP
1BE4
3FFC
783D
B43D
207C
00F4
03E0
0B80
1E00
1D00
1800
0000
B800
FC00
B800
ENDCHAR
STARTCHAR at
ENCODING 64
SWIDTH 1015 0
DWIDTH 16 0
BBX 16 18 0 -5
BITMAP
0006AA40
006FFFE0
01F901F8
07D0003C
0F40001E
1F01E40E
2D0BFD0E
3C1F2D1E
7C2D3C1D
783C3C2D
783CB878
782FFEF0
3C1F5F80
2D000000
1F400010
0BE406F4
01FFFFD0
001AA900
ENDCHAR
STARTCHAR A
ENCODING 65
SWIDTH 786 0
DWIDTH 13 0
BBX 14 15 1 0
BITMAP
001BFE00
01FFFF40
07E40500
0F807800
2E00B800
7D00F400
B800F400
F801F000
F402F000
F403E000
F407E000
F80BE050
BD2FE1E0
3FF9FF80
1BE0BE00
ENDCHAR
STARTCHAR B
ENCODING 66
SWIDTH 827 0
DWIDTH 13 0
BBX 14 16 0 -1
BITMAP
01AFF900
1FFFFF80
7E4007E0
A44002F0
02E002E0
02D003E0
03D01F80
07C7FE00
0787F800
0B802F00
0B801F00
0F401F00
0F407E00
0FFFF800
1FFE9000
0E000000
ENDCHAR
STARTCHAR C
ENCODING 67
SWIDTH 686 0
DWIDTH 11 0
BBX 12 15 1 0
BITMAP
00BF80
07FFE0
0F81F0
2E00F4
7D00F0
7800A0
B80000
F40000
F40000
F40000
B80000
7C0000
3F401B
0FFFFE
01BF90
ENDCHAR
STARTCHAR D
ENCODING 68
SWIDTH 836 0
DWIDTH 13 0
BBX 13 15 0 0
BITMAP
01BF9000
1FFFFD00
7E407F00
20400F80
02E00BC0
03D007C0
03C007C0
07C007C0
0B800BC0
0B800B80
0F401F40
0F403E00
0F01FC00
1FFFE000
0BFE4000
ENDCHAR
STARTCHAR E
ENCODING 69
SWIDTH 686 0
DWIDTH 11 0
BBX 13 15 0 0
BITMAP
006FE000
02FFF800
07D03D00
0F802D00
0F402D00
0BC01400
02FD0000
07FD0000
2F400000
7D000000
7C000000
7C000000
3E001BC0
1FFFFF80
02BFE500
ENDCHAR
STARTCHAR F
ENCODING 70
SWIDTH 712 0
DWIDTH 11 0
BBX 15 15 0 0
BITMAP
006BFFE8
07FFFFF8
1F0B8000
2D0B8000
2D0B4000
1E0F4000
040F4000
00BFFF00
00BFFE00
001F0000
001E0000
402E0000
E07D0000
BFF80000
1FE00000
ENDCHAR
STARTCHAR G
ENCODING 71
SWIDTH 811 0
DWIDTH 13 0
BBX 14 23 1 -8
BITMAP
006F9000
03FFF000
0F80B400
2E00B800
3D00B800
7800B400
B8001000
F4000000
F4000000
F407FC00
B806FC00
7C003C10
3F4079E0
1FFFFF80
01BEBE00
0001F400
0007F000
001EE000
0039E000
0072D000
00B3C000
00BF4000
007D0000
ENDCHAR
STARTCHAR H
ENCODING 72
SWIDTH 873 0
DWIDTH 14 0
BBX 17 15 -1 0
BITMAP
02F4002E00
1FFC00BF00
3C3D01E740
703D03C700
003D078B00
003C07AD00
007C0BF800
06FFFFE000
07FFAF4000
00B40F0000
00F40F0000
01F00F4080
01F00B82C0
02E007FF40
01D001F900
ENDCHAR
STARTCHAR I
ENCODING 73
SWIDTH 495 0
DWIDTH 8 0
BBX 9 15 0 0
BITMAP
1FFF80
1BFF40
00F000
01F000
01F000
02E000
02E000
02D000
03D000
03D000
07C000
07C000
078000
AFF800
FFF800
ENDCHAR
STARTCHAR J
ENCODING 74
SWIDTH 743 0
DWIDTH 12 0
BBX 11 16 1 -1
BITMAP
06BFE8
2FFFFC
B900F4
B000F4
B400F0
7401F0
0001E0
001FE0
00BFD0
03E3D0
0B43C0
1E0780
2D0F40
2E2E00
1FFC00
07E000
ENDCHAR
STARTCHAR K
ENCODING 75
SWIDTH 937 0
DWIDTH 15 0
BBX 17 15 0 0
BITMAP
01BF802D00
0FFFD03D00
2E0B807C00
3C0B80B800
3C0B41F000
2D0F43D000
040F5F8000
007FFD0000
007FF40000
001E7D0000
002E2F0000
602D0F4080
B87C0BD2C0
7FF803FF40
1BE001F900
ENDCHAR
STARTCHAR L
ENCODING 76
SWIDTH 673 0
DWIDTH 11 0
BBX 14 15 -1 0
BITMAP
0006F900
001FFF00
007D0B80
00B80780
00F40780
01F00740
01F00000
01E00000
02E00000
02E00000
02E00000
02D00010
2FE900A0
BFFFFFD0
7E06FE00
ENDCHAR
STARTCHAR M
ENCODING 77
SWIDTH 1232 0
DWIDTH 20 0
BBX 22 15 0 0
BITMAP
0BD0BD06E000
2FE2FF1FF800
B5F74B78B800
D1ED0BA07800
01FC0BD0B800
01F40FC0B800
01F40F80F400
02F00F41F000
02E01F01F000
03D01F02E000
03D02E02E000
07C02E02E060
07C03D02E1E0
07C03D01FFC0
07802C007E00
ENDCHAR
STARTCHAR N
ENCODING 78
SWIDTH 884 0
DWIDTH 14 0
BBX 16 15 0 0
BITMAP
0BD06E40
2FF1FFC0
B5F347D0
D1FA03D0
01FC07C0
01F807C0
02F40B80
02F00B80
02E00F40
03D00F40
03D01F00
07C01F02
07C01F0B
07C00FFD
078006E4
ENDCHAR
STARTCHAR O
ENCODING 79
SWIDTH 816 0
DWIDTH 13 0
BBX 12 15 1 0
BITMAP
00BF80
03FFF4
0F80BC
2E003D
3D002E
78002E
B8002E
F4002E
F4002E
F4003D
B8007C
BC00F4
3E02E0
1FFF80
06F900
ENDCHAR
STARTCHAR P
ENCODING 80
SWIDTH 805 0
DWIDTH 13 0
BBX 13 16 0 -1
BITMAP
001BF800
00BFFF40
02E01F80
0B8007C0
0F0B07C0
1D1F07C0
2C1E0B80
382E1F40
38BFFD00
79FFE000
783C0000
787C0000
38780000
2DB80000
1FF40000
07E00000
ENDCHAR
STARTCHAR Q
ENCODING 81
SWIDTH 816 0
DWIDTH 13 0
BBX 13 20 1 -5
BITMAP
00BF8000
07FFF400
0F80BC00
2E003D00
7C002E00
B8002E00
B8002E00
F4002E00
F4003D00
F8007D00
B800B800
7D01F400
2FABD000
0BFF4000
01BD0000
002F0000
000F4080
000BD2C0
0007FF40
0001A900
ENDCHAR
STARTCHAR R
ENCODING 82
SWIDTH 880 0
DWIDTH 14 0
BBX 15 15 1 0
BITMAP
006FE000
03FFFC00
0F807E00
2D142F00
787C1F00
B4782E00
B0B83D00
E0B9B800
E2FFD000
E2FF8000
E1F2E000
F1F1F404
B6E0BC2C
3FD03FF4
1B801B90
ENDCHAR
STARTCHAR S
ENCODING 83
SWIDTH 693 0
DWIDTH 11 0
BBX 11 15 0 0
BITMAP
00BF90
07FFF4
0F807C
1F003C
1F003C
0F8014
0BF400
02FF40
002FE0
1402F4
7800F4
7800B4
7D01F0
2FFFD0
06FE40
ENDCHAR
STARTCHAR T
ENCODING 84
SWIDTH 697 0
DWIDTH 11 0
BBX 15 15 0 0
BITMAP
01AFFFE4
1FFFFFF4
3D0B8000
780B8000
780F4000
380F4000
001F0000
001F0000
002E0000
002E0000
002D0000
003D0000
003D0000
007D0000
00380000
ENDCHAR
STARTCHAR U
ENCODING 85
SWIDTH 890 0
DWIDTH 14 0
BBX 17 15 0 0
BITMAP
0BE002C000
2FF003D000
B4F403D000
D0F407C000
00F407C000
01F00BC000
02E00B8000
02E00F8000
03D01F4000
03D02F4000
07C07F4000
07C0EF0240
07D6CF9B00
03FF4BFD00
01F906F400
ENDCHAR
STARTCHAR V
ENCODING 86
SWIDTH 763 0
DWIDTH 12 0
BBX 13 15 2 0
BITMAP
7806E000
B80FF400
B81D7800
F41C7800
F41D7800
F41EB400
F40FF000
F407FF40
F402FF40
F407C000
B40B4000
B81E0000
7DBC0000
3FF40000
1B800000
ENDCHAR
STARTCHAR W
ENCODING 87
SWIDTH 1217 0
DWIDTH 19 0
BBX 20 15 2 0
BITMAP
7400B00B80
B801F02FE0
B801F038F0
F402F074F0
F402E074E0
F403E039E0
F407E02FD0
F40BE00BFE
F40FE007FE
F41EE00F00
F42DF01E00
B878F03C00
7DF4B9F400
3FE07FE000
1F802F4000
ENDCHAR
STARTCHAR X
ENCODING 88
SWIDTH 712 0
DWIDTH 11 0
BBX 14 15 0 0
BITMAP
1BD00B40
7FF02F00
E0F87D00
407DF400
003FE000
003F8000
002F0000
007F0000
00FF0000
02EF4000
0BCB8000
1F47C050
7E03D1D0
F802FF80
F000BD00
ENDCHAR
STARTCHAR Y
ENCODING 89
SWIDTH 851 0
DWIDTH 14 0
BBX 16 20 0 -5
BITMAP
0BE002D0
3FF403D0
B4F403D0
D0F407C0
01F007C0
01F00B80
02E00F80
02D02F80
03D03F40
03E0EB40
02FFCF69
00BE1FFD
0001BF90
000BFE00
002F5E00
00B82D00
00F03C00
00F0B400
00FFE000
006F8000
ENDCHAR
STARTCHAR Z
ENCODING 90
SWIDTH 721 0
DWIDTH 12 0
BBX 14 15 0 0
BITMAP
01BFE900
0FFFFF40
2E003E00
3C00BC00
3C00F400
2D02F000
0403D000
000B8000
001F4000
003E0000
00BC0000
01F80010
6FF901E0
BFFFFFC0
7E06FE00
ENDCHAR
STARTCHAR bracketleft
ENCODING 91
SWIDTH 405 0
DWIDTH 6 0
BBX 7 17 1 -1
BITMAP
0BF8
0FF8
1F00
1E00
2E00
2E00
2D00
3D00
3C00
3C00
7C00
7800
B800
B800
B400
FF80
BFC0
ENDCHAR
STARTCHAR backslash
ENCODING 92
SWIDTH 509 0
DWIDTH 8 0
BBX 7 16 1 0
BITMAP
3400
7C00
3C00
2D00
1E00
1F00
0F40
0B40
0780
03C0
03D0
02E0
01E0
00F0
00B4
0070
ENDCHAR
STARTCHAR bracketright
ENCODING 93
SWIDTH 405 0
DWIDTH 6 0
BBX 7 17 -1 -1
BITMAP
0BF8
0BFC
007C
007C
0078
00B8
00B4
00B4
00F4
00F0
01F0
01E0
01E0
02E0
02D0
7FD0
BF80
ENDCHAR
STARTCHAR asciicircum
ENCODING 94
SWIDTH 700 0
DWIDTH 11 0
BBX 8 9 1 1
BITMAP
00B0
01F4
02F8
07AC
0B1D
1E1E
2C0E
780B
7007
ENDCHAR
STARTCHAR underscore
ENCODING 95
SWIDTH 354 0
DWIDTH 6 0
BBX 6 2 -1 -2
BITMAP
6FE0
7FF0
ENDCHAR
STARTCHAR grave
ENCODING 96
SWIDTH 600 0
DWIDTH 10 0
BBX 4 5 2 9
BITMAP
A0
F4
78
2C
09
ENDCHAR
STARTCHAR a
ENCODING 97
SWIDTH 470 0
DWIDTH 8 0
BBX 10 8 0 0
BITMAP
02D400
0FFC00
2E3800
3C7800
78B450
78F5D0
7FFF80
2E2E00
ENDCHAR
STARTCHAR b
ENCODING 98
SWIDTH 473 0
DWIDTH 8 0
BBX 9 16 1 0
BITMAP
02D000
0FE000
1DB000
3CA000
38E000
75D000
B68000
B70000
FB8000
FFE000
F6F540
F1FF80
F0BA40
F4F000
7FD000
2F4000
ENDCHAR
STARTCHAR c
ENCODING 99
SWIDTH 368 0
DWIDTH 6 0
BBX 8 8 0 0
BITMAP
07D0
2FF0
3CB0
7850
7802
7C1E
3FFD
1BE0
ENDCHAR
STARTCHAR d
ENCODING 100
SWIDTH 515 0
DWIDTH 8 0
BBX 11 16 0 0
BITMAP
0002C0
000BE0
000EA0
001DA0
002CA0
003CD0
0039C0
007A80
02FB40
0FFF00
2E7D00
3C7C00
787820
78B8B4
7FFFD0
1F5F40
ENDCHAR
STARTCHAR e
ENCODING 101
SWIDTH 393 0
DWIDTH 6 0
BBX 9 8 0 0
BITMAP
07D000
2FF000
3CB000
79E000
7F8240
7D1B40
3FFD00
0BE400
ENDCHAR
STARTCHAR f
ENCODING 102
SWIDTH 371 0
DWIDTH 6 0
BBX 7 22 1 -6
BITMAP
01E0
07F4
0B74
1E34
2D74
3CB0
7CE0
79C0
BB40
BE00
F800
F000
F7F8
FBA4
EA00
F600
F700
F700
F700
B700
BE00
2800
ENDCHAR
STARTCHAR g
ENCODING 103
SWIDTH 479 0
DWIDTH 8 0
BBX 10 16 0 -8
BITMAP
02D400
0FFC00
2E3800
3C7800
78B490
78FBD0
7FFF40
2EF800
02F000
0BE000
2ED000
76D000
A3C000
E74000
FF0000
7D0000
ENDCHAR
STARTCHAR h
ENCODING 104
SWIDTH 502 0
DWIDTH 8 0
BBX 9 16 1 0
BITMAP
02D000
0FE000
1DB000
2CA000
38D000
75C000
B78000
BB0000
FDB400
F6F400
F7F400
FDB000
F8F080
F4F2C0
F4FF40
E0B900
ENDCHAR
STARTCHAR i
ENCODING 105
SWIDTH 246 0
DWIDTH 4 0
BBX 6 12 0 0
BITMAP
0F00
1F40
0A00
0000
1D00
2D00
3C00
3C00
7820
78B0
3FD0
1E40
ENDCHAR
STARTCHAR j
ENCODING 106
SWIDTH 254 0
DWIDTH 4 0
BBX 10 20 -4 -8
BITMAP
001A00
002F00
002E00
000000
001D00
002D00
003C00
003C00
003C60
003AE0
007F80
007D00
01F400
07F000
0EF000
28E000
75D000
B3C000
BF4000
2E0000
ENDCHAR
STARTCHAR k
ENCODING 107
SWIDTH 525 0
DWIDTH 8 0
BBX 10 16 1 0
BITMAP
02D000
0FE000
1DB000
2CA000
38D000
75C000
B78000
BA0000
FDB800
F7FC00
FA3C00
FD7800
F9F090
F6D1D0
F1FF80
A0BE00
ENDCHAR
STARTCHAR l
ENCODING 108
SWIDTH 326 0
DWIDTH 5 0
BBX 6 16 1 0
BITMAP
02D0
0FE0
1DA0
2CA0
38A0
74D0
B5D0
B2C0
F340
FB00
FD00
F800
F420
B0B0
7FD0
2F40
ENDCHAR
STARTCHAR m
ENCODING 109
SWIDTH 744 0
DWIDTH 12 0
BBX 14 8 0 0
BITMAP
1D6C2D00
2DFDFD00
3EFEFD00
3F3F7C00
3E3E3820
7D7D78B0
3C3C7FD0
28282E40
ENDCHAR
STARTCHAR n
ENCODING 110
SWIDTH 496 0
DWIDTH 8 0
BBX 10 8 0 0
BITMAP
1D2D00
2DFD00
3EFD00
3F7C00
3E3C20
7D78B0
3C7FD0
282E40
ENDCHAR
STARTCHAR o
ENCODING 111
SWIDTH 451 0
DWIDTH 7 0
BBX 10 8 0 0
BITMAP
0BE000
2FF400
3CF840
78BFD0
783E80
787800
3FF000
1B9000
ENDCHAR
STARTCHAR p
ENCODING 112
SWIDTH 481 0
DWIDTH 8 0
BBX 12 16 -2 -8
BITMAP
02DF40
03FFC0
03D3C0
03C3C0
03C785
07CB5E
0FEFFC
1FFAE0
2BC000
778000
778000
A74000
A74000
EB0000
BE0000
780000
ENDCHAR
STARTCHAR q
ENCODING 113
SWIDTH 500 0
DWIDTH 8 0
BBX 10 16 0 -7
BITMAP
000500
02FE00
0FFD00
2E3C00
3C7800
78B800
78F7F0
7FF7E0
2EF700
01E700
01E700
01E700
01E600
01EA00
00FD00
007800
ENDCHAR
STARTCHAR r
ENCODING 114
SWIDTH 455 0
DWIDTH 7 0
BBX 10 8 0 0
BITMAP
1D2D00
2DBD00
3DFD00
3B6D90
3E2FD0
7D1E40
3C0000
280000
ENDCHAR
STARTCHAR s
ENCODING 115
SWIDTH 427 0
DWIDTH 7 0
BBX 9 8 0 0
BITMAP
02C000
078000
0B8000
1FD000
39F180
B5FB80
DFFF40
0BF900
ENDCHAR
STARTCHAR t
ENCODING 116
SWIDTH 393 0
DWIDTH 6 0
BBX 9 15 0 0
BITMAP
00B400
02FC00
03AC00
0B6800
0B3800
0E7000
1ED000
FFFC00
BFE800
2D0000
2D0000
2D0140
1E0B40
0FFE00
06F400
ENDCHAR
STARTCHAR u
ENCODING 117
SWIDTH 462 0
DWIDTH 7 0
BBX 10 8 0 0
BITMAP
1D2C00
2D3C00
3C7800
3CB400
38F450
7EF5D0
3FBF80
2D3D00
ENDCHAR
STARTCHAR v
ENCODING 118
SWIDTH 449 0
DWIDTH 7 0
BBX 10 8 0 0
BITMAP
383800
78BC00
78B840
38BFD0
3DFA80
3EC000
3F4000
1E0000
ENDCHAR
STARTCHAR w
ENCODING 119
SWIDTH 700 0
DWIDTH 11 0
BBX 14 8 0 0
BITMAP
38283800
7878BC00
78B8B840
38F8BFD0
3EFDFA80
3FBED000
3F6F8000
1E1E0000
ENDCHAR
STARTCHAR x
ENCODING 120
SWIDTH 529 0
DWIDTH 8 0
BBX 11 8 0 0
BITMAP
1F4B40
2FFF80
19F640
01F000
61F014
B6F074
BFFFE0
7E2F40
ENDCHAR
STARTCHAR y
ENCODING 121
SWIDTH 479 0
DWIDTH 8 0
BBX 10 16 0 -8
BITMAP
1D2C00
2D3C00
3C7800
3CB800
38F490
7EF7D0
3FBF40
2DB800
02F000
0BE000
2ED000
76C000
A3C000
E74000
FF0000
790000
ENDCHAR
STARTCHAR z
ENCODING 122
SWIDTH 445 0
DWIDTH 7 0
BBX 8 8 1 0
BITMAP
FFF4
BFF4
0B90
7D00
B402
F41F
BFFD
2FE0
ENDCHAR
STARTCHAR braceleft
ENCODING 123
SWIDTH 490 0
DWIDTH 8 0
BBX 8 18 1 -2
BITMAP
007F
01FE
03E0
03C0
03C0
07C0
0B80
BF40
FE00
1F00
0F40
0F00
0F00
1F00
1F00
0F40
0BF4
02A4
ENDCHAR
STARTCHAR bar
ENCODING 124
SWIDTH 326 0
DWIDTH 5 0
BBX 5 21 0 -5
BITMAP
02C0
03C0
03C0
0780
0780
0B40
0B40
0B40
0F00
0F00
1E00
1E00
2D00
2D00
2D00
3C00
3C00
7800
7800
7800
7400
ENDCHAR
STARTCHAR braceright
ENCODING 125
SWIDTH 490 0
DWIDTH 8 0
BBX 9 18 -1 -2
BITMAP
0BE000
0BF800
007800
007800
007800
00B800
00B800
007F80
007F80
00F400
01F000
01F000
01E000
02E000
02E000
07D000
7F8000
6A0000
ENDCHAR
STARTCHAR asciitilde
ENCODING 126
SWIDTH 700 0
DWIDTH 11 0
BBX 9 4 1 3
BITMAP
1E01C0
3FD3C0
B5FF80
A02E00
ENDCHAR
STARTCHAR uni00A0
ENCODING 160
SWIDTH 265 0
DWIDTH 4 0
BBX 1 1 0 0
BITMAP
00
ENDCHAR
STARTCHAR exclamdown
ENCODING 161
SWIDTH 340 0
DWIDTH 5 0
BBX 6 15 -1 -7
BITMAP
02E0
03F0
02D0
0000
0340
0740
0B40
0F00
0F00
1E00
2E00
3D00
3D00
7C00
1400
ENDCHAR
STARTCHAR cent
ENCODING 162
SWIDTH 466 0
DWIDTH 7 0
BBX 7 12 0 -2
BITMAP
0080
00C0
06E0
1FF8
3EA8
79A4
7A44
3E6C
2FF4
0B90
0300
0600
ENDCHAR
STARTCHAR sterling
ENCODING 163
SWIDTH 525 0
DWIDTH 8 0
BBX 9 10 0 0
BITMAP
01BD00
0BFF40
0F4B40
1E0000
7FF400
7FF400
2D0000
2D0000
7FFE00
BFFF00
ENDCHAR
STARTCHAR currency
ENCODING 164
SWIDTH 700 0
DWIDTH 11 0
BBX 8 8 2 1
BITMAP
D69D
BFFC
7878
B02C
B02C
7878
BFFC
E69D
ENDCHAR
STARTCHAR yen
ENCODING 165
SWIDTH 497 0
DWIDTH 8 0
BBX 9 10 0 0
BITMAP
740740
7C0F00
2E2D00
0F7800
0BF000
3FFD00
07C000
7FFC00
078000
074000
ENDCHAR
STARTCHAR brokenbar
ENCODING 166
SWIDTH 326 0
DWIDTH 5 0
BBX 5 21 0 -5
BITMAP
02C0
03C0
03C0
0780
0780
0B40
0B40
0B40
0F00
0000
0000
0000
1D00
2D00
2D00
3C00
3C00
3C00
7800
7800
7400
ENDCHAR
STARTCHAR section
ENCODING 167
SWIDTH 607 0
DWIDTH 10 0
BBX 8 15 1 0
BITMAP
06F8
0FFE
1E0F
1D0E
1F44
1FE4
39BD
382E
3E1D
1FFC
12F8
B03C
B03C
BFF8
2FD0
ENDCHAR
STARTCHAR dieresis
ENCODING 168
SWIDTH 600 0
DWIDTH 10 0
BBX 6 3 2 9
BITMAP
6490
B5E0
B5D0
ENDCHAR
STARTCHAR copyright
ENCODING 169
SWIDTH 647 0
DWIDTH 10 0
BBX 10 10 1 6
BITMAP
06F900
1D0740
35B5C0
635C90
A604A0
A600A0
674890
35F5C0
1D0740
06F900
ENDCHAR
STARTCHAR ordfeminine
ENCODING 170
SWIDTH 393 0
DWIDTH 6 0
BBX 6 7 1 7
BITMAP
0B90
2DE0
75E0
B1D0
B6D0
7ED0
0040
ENDCHAR
STARTCHAR guillemotleft
ENCODING 171
SWIDTH 615 0
DWIDTH 10 0
BBX 9 7 0 1
BITMAP
0282C0
1F8BC0
7E3E00
B87C00
3E2E00
0F8B80
038280
ENDCHAR
STARTCHAR logicalnot
ENCODING 172
SWIDTH 700 0
DWIDTH 11 0
BBX 9 6 1 0
BITMAP
7FFF80
BFFFC0
0003C0
000380
000780
000100
ENDCHAR
STARTCHAR uni00AD
ENCODING 173
SWIDTH 403 0
DWIDTH 6 0
BBX 5 2 1 4
BITMAP
BF80
FE40
ENDCHAR
STARTCHAR registered
ENCODING 174
SWIDTH 647 0
DWIDTH 10 0
BBX 10 10 1 6
BITMAP
06F900
1D0740
36F5C0
619C90
A298A0
A2E0A0
627090
3729C0
1D0740
06F900
ENDCHAR
STARTCHAR macron
ENCODING 175
SWIDTH 600 0
DWIDTH 10 0
BBX 6 2 2 9
BITMAP
7F90
BFD0
ENDCHAR
STARTCHAR degree
ENCODING 176
SWIDTH 385 0
DWIDTH 6 0
BBX 6 6 1 9
BITMAP
1A40
3FC0
75D0
71D0
7FC0
1F40
ENDCHAR
STARTCHAR plusminus
ENCODING 177
SWIDTH 700 0
DWIDTH 11 0
BBX 9 10 1 0
BITMAP
007000
00B000
00F000
2FFF40
2FFF40
01E000
01D000
004000
7FFE00
7FFE00
ENDCHAR
STARTCHAR uni00B2
ENCODING 178
SWIDTH 450 0
DWIDTH 7 0
BBX 6 8 1 6
BITMAP
1F90
79F0
B0F0
11E0
03D0
1F40
BE90
FFF0
ENDCHAR
STARTCHAR uni00B3
ENCODING 179
SWIDTH 450 0
DWIDTH 7 0
BBX 6 8 1 6
BITMAP
1FD0
79F0
60B0
06D0
0BD0
50F0
B6F0
6F90
ENDCHAR
STARTCHAR acute
ENCODING 180
SWIDTH 600 0
DWIDTH 10 0
BBX 4 5 4 9
BITMAP
0E
2E
3C
74
A0
ENDCHAR
STARTCHAR uni00B5
ENCODING 181
SWIDTH 462 0
DWIDTH 7 0
BBX 10 13 0 -5
BITMAP
1D2C00
2D3C00
3C7800
3CB400
78F450
7EF5D0
7FBF80
7D3D00
740000
B40000
B40000
B40000
100000
ENDCHAR
STARTCHAR paragraph
ENCODING 182
SWIDTH 739 0
DWIDTH 12 0
BBX 11 15 1 0
BITMAP
06FF90
2FFFF0
7FF9F4
7FF5F0
7FF5F0
2FF1E0
06F2E0
01E2D0
02E3D0
02D3C0
03D7C0
03D7C0
03C780
07CB80
038740
ENDCHAR
STARTCHAR periodcentered
ENCODING 183
SWIDTH 257 0
DWIDTH 4 0
BBX 4 3 0 2
BITMAP
2D
7E
2D
ENDCHAR
STARTCHAR cedilla
ENCODING 184
SWIDTH 600 0
DWIDTH 10 0
BBX 5 5 1 -4
BITMAP
3E00
2F40
0340
BF40
BD00
ENDCHAR
STARTCHAR uni00B9
ENCODING 185
SWIDTH 450 0
DWIDTH 7 0
BBX 5 8 1 6
BITMAP
1BC0
7FC0
13C0
0780
0780
0740
0B40
0700
ENDCHAR
STARTCHAR ordmasculine
ENCODING 186
SWIDTH 408 0
DWIDTH 7 0
BBX 6 7 1 7
BITMAP
1F80
7AE0
B4E0
B0E0
B5D0
3F80
0500
ENDCHAR
STARTCHAR guillemotright
ENCODING 187
SWIDTH 615 0
DWIDTH 10 0
BBX 9 7 1 1
BITMAP
E0A000
F8B800
3E2F00
0F0F40
2F2F40
F8BD00
E0A000
ENDCHAR
STARTCHAR onequarter
ENCODING 188
SWIDTH 955 0
DWIDTH 15 0
BBX 14 14 1 0
BITMAP
1BC00000
7FC07000
13C0F000
0782E000
0783C000
074B4000
0B5F1D00
072D2D40
00787AC0
00B4B3C0
01E0FBD0
01C0FFE0
00000780
00000340
ENDCHAR
STARTCHAR onehalf
ENCODING 189
SWIDTH 1024 0
DWIDTH 16 0
BBX 15 14 1 0
BITMAP
1BC00000
7FC07000
13C0F000
0782E000
0783C000
074B4000
0B5F0BE0
072D3DB4
00783474
00B410B4
01E001E0
01C00B80
00007EA4
00007FF8
ENDCHAR
STARTCHAR threequarters
ENCODING 190
SWIDTH 1035 0
DWIDTH 17 0
BBX 15 14 1 0
BITMAP
1FD00000
79F00D00
60B02D00
06D07800
0BD0B400
50F1E000
B6F3D280
6F978750
000F0E74
002E1DB4
003C3EF8
00342FFC
000000E0
000000A0
ENDCHAR
STARTCHAR questiondown
ENCODING 191
SWIDTH 476 0
DWIDTH 8 0
BBX 8 15 -1 -7
BITMAP
002D
007E
003D
0000
0070
00B0
01E0
07D0
1F40
3E00
7C18
B82C
B83C
7FF8
1A90
ENDCHAR
STARTCHAR Agrave
ENCODING 192
SWIDTH 786 0
DWIDTH 13 0
BBX 14 19 1 0
BITMAP
00B40000
00BD0000
002F4000
0002C000
001BFE00
01FFFF40
07E40500
0F807800
2E00B800
7D00F400
B800F400
F801F000
F402F000
F403E000
F407E000
F80BE050
BD2FE1E0
3FF9FF80
1BE0BE00
ENDCHAR
STARTCHAR Aacute
ENCODING 193
SWIDTH 786 0
DWIDTH 13 0
BBX 14 19 1 0
BITMAP
00000780
00001F80
00007E00
0000E000
001BFE00
01FFFF40
07E40500
0F807800
2E00B800
7D00F400
B800F400
F801F000
F402F000
F403E000
F407E000
F80BE050
BD2FE1E0
3FF9FF80
1BE0BE00
ENDCHAR
STARTCHAR Acircumflex
ENCODING 194
SWIDTH 786 0
DWIDTH 13 0
BBX 14 20 1 0
BITMAP
00005000
0002F400
0007BC00
000B6D00
000E1D00
001BFE00
01FFFF40
07E40500
0F807800
2E00B800
7D00F400
B800F400
F801F000
F402F000
F403E000
F407E000
F80BE050
BD2FE1E0
3FF9FF80
1BE0BE00
ENDCHAR
STARTCHAR Atilde
ENCODING 195
SWIDTH 786 0
DWIDTH 13 0
BBX 14 19 1 0
BITMAP
00010000
000FD740
002DFF00
00142D00
001BFE00
01FFFF40
07E40500
0F807800
2E00B800
7D00F400
B800F400
F801F000
F402F000
F403E000
F407E000
F80BE050
BD2FE1E0
3FF9FF80
1BE0BE00
ENDCHAR
STARTCHAR Adieresis
ENCODING 196
SWIDTH 786 0
DWIDTH 13 0
BBX 14 18 1 0
BITMAP
000A1900
000F6E00
000B1D00
001BFE00
01FFFF40
07E40500
0F807800
2E00B800
7D00F400
B800F400
F801F000
F402F000
F403E000
F407E000
F80BE050
BD2FE1E0
3FF9FF80
1BE0BE00
ENDCHAR
STARTCHAR Aring
ENCODING 197
SWIDTH 786 0
DWIDTH 13 0
BBX 14 20 1 0
BITMAP
0001F400
0003FC00
00076C00
0003F800
0001F400
001BFE00
01FFFF40
07E40500
0F807800
2E00B800
7D00F400
B800F400
F801F000
F402F000
F403E000
F407E000
F80BE050
BD2FE1E0
3FF9FF80
1BE0BE00
ENDCHAR
STARTCHAR AE
ENCODING 198
SWIDTH 1015 0
DWIDTH 16 0
BBX 18 15 1 0
BITMAP
002F4BFF00
01FF6FFE00
07F43C0000
1F807C0000
2E00B80000
7D00B80000
B800F40000
F801FFFC00
F402FFF800
F402F00000
F403F00000
F40BF00000
BC1EF802D0
3FFC7FFF80
0BE01BF900
ENDCHAR
STARTCHAR Ccedilla
ENCODING 199
SWIDTH 686 0
DWIDTH 11 0
BBX 12 19 1 -4
BITMAP
00BF80
07FFE0
0F81F0
2E00F4
7D00F0
7800A0
B80000
F40000
F40000
F40000
B80000
7C0000
3F401B
1FFFFE
02FFA4
01B800
002C00
07F800
0BE000
ENDCHAR
STARTCHAR Egrave
ENCODING 200
SWIDTH 686 0
DWIDTH 11 0
BBX 13 19 0 0
BITMAP
02D00000
02F40000
00BD0000
000B0000
006FE000
02FFF800
07D03D00
0F802D00
0F402D00
0BC01400
02FD0000
07FD0000
2F400000
7D000000
7C000000
7C000000
3E001BC0
1FFFFF80
02BFE500
ENDCHAR
STARTCHAR Eacute
ENCODING 201
SWIDTH 686 0
DWIDTH 11 0
BBX 13 19 0 0
BITMAP
00001E00
00007E00
0001F400
00038000
006FE000
02FFF800
07D03D00
0F802D00
0F402D00
0BC01400
02FD0000
07FD0000
2F400000
7D000000
7C000000
7C000000
3E001BC0
1FFFFF80
02BFE500
ENDCHAR
STARTCHAR Ecircumflex
ENCODING 202
SWIDTH 686 0
DWIDTH 11 0
BBX 13 20 0 0
BITMAP
00014000
000BD000
001EF000
002DB400
00387400
006FE000
02FFF800
07D03D00
0F802D00
0F402D00
0BC01400
02FD0000
07FD0000
2F400000
7D000000
7C000000
7C000000
3E001BC0
1FFFFF80
02BFE500
ENDCHAR
STARTCHAR Edieresis
ENCODING 203
SWIDTH 686 0
DWIDTH 11 0
BBX 13 18 0 0
BITMAP
00286400
003DB800
002CB400
006FE000
02FFF800
07D03D00
0F802D00
0F402D00
0BC01400
02FD0000
07FD0000
2F400000
7D000000
7C000000
7C000000
3E001BC0
1FFFFF80
02BFE500
ENDCHAR
STARTCHAR Igrave
ENCODING 204
SWIDTH 495 0
DWIDTH 8 0
BBX 9 19 0 0
BITMAP
2D0000
2F4000
0BD000
00A000
1FFF80
1BFF40
00F000
01F000
01F000
02E000
02E000
02D000
03D000
03D000
07C000
07C000
078000
AFF800
FFF800
ENDCHAR
STARTCHAR Iacute
ENCODING 205
SWIDTH 495 0
DWIDTH 8 0
BBX 10 19 0 0
BITMAP
0001D0
0007E0
001F40
003800
1FFF80
1BFF40
00F000
01F000
01F000
02E000
02E000
02D000
03D000
03D000
07C000
07C000
078000
AFF800
FFF800
ENDCHAR
STARTCHAR Icircumflex
ENCODING 206
SWIDTH 495 0
DWIDTH 8 0
BBX 9 20 0 0
BITMAP
001400
00BD00
01EE00
03CB00
034700
1FFF80
1BFF40
00F000
01F000
01F000
02E000
02E000
02D000
03D000
03D000
07C000
07C000
078000
AFF800
FFF800
ENDCHAR
STARTCHAR Idieresis
ENCODING 207
SWIDTH 495 0
DWIDTH 8 0
BBX 9 18 0 0
BITMAP
028640
03DB80
038B40
1FFF80
1BFF40
00F000
01F000
01F000
02E000
02E000
02D000
03D000
03D000
07C000
07C000
078000
AFF800
FFF800
ENDCHAR
STARTCHAR Eth
ENCODING 208
SWIDTH 821 0
DWIDTH 13 0
BBX 13 15 0 0
BITMAP
00BF9000
01FFF800
02E07E00
02D01F40
03D00B80
07C00B80
6FFA0B80
BFFE0B80
0F400B80
0F400F40
1F001F00
1F007D00
1E01F800
2FFFE000
1BFA4000
ENDCHAR
STARTCHAR Ntilde
ENCODING 209
SWIDTH 884 0
DWIDTH 14 0
BBX 16 19 0 0
BITMAP
00014000
000BE280
001EBF40
00042E00
0BD06E40
2FF1FFC0
B5F347D0
D1FA03D0
01FC07C0
01F807C0
02F40B80
02F00B80
02E00F40
03D00F40
03D01F00
07C01F02
07C01F0B
07C00FFD
078006E4
ENDCHAR
STARTCHAR Ograve
ENCODING 210
SWIDTH 816 0
DWIDTH 13 0
BBX 12 19 1 0
BITMAP
074000
07E000
01F800
001C00
00BF80
03FFF4
0F80BC
2E003D
3D002E
78002E
B8002E
F4002E
F4002E
F4003D
B8007C
BC00F4
3E02E0
1FFF80
06F900
ENDCHAR
STARTCHAR Oacute
ENCODING 211
SWIDTH 816 0
DWIDTH 13 0
BBX 12 19 1 0
BITMAP
000028
0000FC
0007E0
000A40
00BF80
03FFF4
0F80BC
2E003D
3D002E
78002E
B8002E
F4002E
F4002E
F4003D
B8007C
BC00F4
3E02E0
1FFF80
06F900
ENDCHAR
STARTCHAR Ocircumflex
ENCODING 212
SWIDTH 816 0
DWIDTH 13 0
BBX 12 20 1 0
BITMAP
000500
001F80
003EC0
00B5D0
00A0D0
00BF80
03FFF4
0F80BC
2E003D
3D002E
78002E
B8002E
F4002E
F4002E
F4003D
B8007C
BC00F4
3E02E0
1FFF80
06F900
ENDCHAR
STARTCHAR Otilde
ENCODING 213
SWIDTH 816 0
DWIDTH 13 0
BBX 12 19 1 0
BITMAP
001400
00BD34
01EBF4
0042E0
00BF80
03FFF4
0F80BC
2E003D
3D002E
78002E
B8002E
F4002E
F4002E
F4003D
B8007C
BC00F4
3E02E0
1FFF80
06F900
ENDCHAR
STARTCHAR Odieresis
ENCODING 214
SWIDTH 816 0
DWIDTH 13 0
BBX 12 18 1 0
BITMAP
006490
00B9F0
00B5D0
00BF80
03FFF4
0F80BC
2E003D
3D002E
78002E
B8002E
F4002E
F4002E
F4003D
B8007C
BC00F4
3E02E0
1FFF80
06F900
ENDCHAR
STARTCHAR multiply
ENCODING 215
SWIDTH 700 0
DWIDTH 11 0
BBX 8 8 2 1
BITMAP
740D
7C3D
2EF8
0FE0
0FD0
3EF4
F4BC
D028
ENDCHAR
STARTCHAR Oslash
ENCODING 216
SWIDTH 816 0
DWIDTH 13 0
BBX 12 18 1 -2
BITMAP
000380
00BF80
03FFF4
0F8BBC
2E0E3D
3D1D2E
781D2E
B82C2E
F4382E
F4782E
F4743D
B8B07C
BCE0F4
7EE2E0
1FFF80
07F900
03C000
038000
ENDCHAR
STARTCHAR Ugrave
ENCODING 217
SWIDTH 890 0
DWIDTH 14 0
BBX 17 19 0 0
BITMAP
0074000000
00BD000000
001F400000
0002C00000
0BE002C000
2FF003D000
B4F403D000
D0F407C000
00F407C000
01F00BC000
02E00B8000
02E00F8000
03D01F4000
03D02F4000
07C07F4000
07C0EF0240
07D6CF9B00
03FF4BFD00
01F906F400
ENDCHAR
STARTCHAR Uacute
ENCODING 218
SWIDTH 890 0
DWIDTH 14 0
BBX 17 19 0 0
BITMAP
0000078000
00001F8000
00007E0000
0000A00000
0BE002C000
2FF003D000
B4F403D000
D0F407C000
00F407C000
01F00BC000
02E00B8000
02E00F8000
03D01F4000
03D02F4000
07C07F4000
07C0EF0240
07D6CF9B00
03FF4BFD00
01F906F400
ENDCHAR
STARTCHAR Ucircumflex
ENCODING 219
SWIDTH 890 0
DWIDTH 14 0
BBX 17 20 0 0
BITMAP
0000500000
0001F40000
0003BC0000
000B6D0000
000E1D0000
0BE002C000
2FF003D000
B4F403D000
D0F407C000
00F407C000
01F00BC000
02E00B8000
02E00F8000
03D01F4000
03D02F4000
07C07F4000
07C0EF0240
07D6CF9B00
03FF4BFD00
01F906F400
ENDCHAR
STARTCHAR Udieresis
ENCODING 220
SWIDTH 890 0
DWIDTH 14 0
BBX 17 18 0 0
BITMAP
000A190000
000F6E0000
000B1D0000
0BE002C000
2FF003D000
B4F403D000
D0F407C000
00F407C000
01F00BC000
02E00B8000
02E00F8000
03D01F4000
03D02F4000
07C07F4000
07C0EF0240
07D6CF9B00
03FF4BFD00
01F906F400
ENDCHAR
STARTCHAR Yacute
ENCODING 221
SWIDTH 851 0
DWIDTH 14 0
BBX 16 24 0 -5
BITMAP
00000280
00000FC0
00007E00
0000A400
0BE002D0
3FF403D0
B4F403D0
D0F407C0
01F007C0
01F00B80
02E00F80
02D02F80
03D03F40
03E0EB40
02FFCF69
00BE1FFD
0001BF90
000BFE00
002F5E00
00B82D00
00F03C00
00F0B400
00FFE000
006F8000
ENDCHAR
STARTCHAR Thorn
ENCODING 222
SWIDTH 776 0
DWIDTH 12 0
BBX 13 18 0 -2
BITMAP
000B0000
000F0000
001F0000
001FA400
00BFFD00
03FE2F00
0B3D0F40
1D3D0F40
2C3C0F40
387C2F00
39BDBD00
7AFFE400
74F94000
78F40000
38F00000
3DF00000
1FE00000
07D00000
ENDCHAR
STARTCHAR germandbls
ENCODING 223
SWIDTH 596 0
DWIDTH 10 0
BBX 12 18 0 -4
BITMAP
006A00
02FF80
0B83C0
0F02C0
1E0780
2D2E00
3CB800
3CB800
3C7E40
38BFFD
79E7D9
7AD3C0
7AFFC0
78BE00
780000
780000
780000
140000
ENDCHAR
STARTCHAR agrave
ENCODING 224
SWIDTH 470 0
DWIDTH 8 0
BBX 10 14 0 0
BITMAP
0A0000
0B4000
078000
01D000
009000
000000
02D400
0FFC00
2E3800
3C7800
78B450
78F5D0
7FFF80
2E2E00
ENDCHAR
STARTCHAR aacute
ENCODING 225
SWIDTH 470 0
DWIDTH 8 0
BBX 10 14 0 0
BITMAP
000A00
001E00
002D00
007400
006000
000000
02D400
0FFC00
2E3800
3C7800
78B450
78F5D0
7FFF80
2E2E00
ENDCHAR
STARTCHAR acircumflex
ENCODING 226
SWIDTH 470 0
DWIDTH 8 0
BBX 10 15 0 0
BITMAP
001000
00B800
01EC00
03DD00
075E00
0A0D00
000000
02D400
0FFC00
2E3800
3C7800
78B450
78F5D0
7FFF80
2E2E00
ENDCHAR
STARTCHAR atilde
ENCODING 227
SWIDTH 470 0
DWIDTH 8 0
BBX 10 13 0 0
BITMAP
014000
0BE240
1EBF40
042E00
000000
02D400
0FFC00
2E3800
3C7800
78B450
78F5D0
7FFF80
2E2E00
ENDCHAR
STARTCHAR adieresis
ENCODING 228
SWIDTH 470 0
DWIDTH 8 0
BBX 10 12 0 0
BITMAP
064A00
0B9F00
075E00
000000
02D400
0FFC00
2E3800
3C7800
78B450
78F5D0
7FFF80
2E2E00
ENDCHAR
STARTCHAR aring
ENCODING 229
SWIDTH 470 0
DWIDTH 8 0
BBX 10 14 0 0
BITMAP
00B800
02FD00
038D00
02FC00
01F400
000000
02D400
0FFC00
2E3800
3C7800
78B450
78F5D0
7FFF80
2E2E00
ENDCHAR
STARTCHAR ae
ENCODING 230
SWIDTH 653 0
DWIDTH 10 0
BBX 13 8 0 0
BITMAP
02F7E000
0FFFF400
2E3C7400
7C78B000
787F9140
78BD0B40
3FEFFE00
1F4BE400
ENDCHAR
STARTCHAR ccedilla
ENCODING 231
SWIDTH 368 0
DWIDTH 6 0
BBX 8 13 0 -5
BITMAP
07D0
1FE0
3CB0
78A0
7800
7807
7C1E
2FF8
0FD0
01D0
01D0
3FC0
2A40
ENDCHAR
STARTCHAR egrave
ENCODING 232
SWIDTH 393 0
DWIDTH 6 0
BBX 9 14 0 0
BITMAP
1D0000
1E0000
0F0000
038000
018000
000000
07D000
2FF000
3CB000
79E000
7F8240
7D1B40
3FFD00
0BE400
ENDCHAR
STARTCHAR eacute
ENCODING 233
SWIDTH 393 0
DWIDTH 6 0
BBX 9 14 0 0
BITMAP
002C00
003C00
00B400
00E000
00C000
000000
07D000
2FF000
3CB000
79E000
7F8240
7D1B40
3FFD00
0BE400
ENDCHAR
STARTCHAR ecircumflex
ENCODING 234
SWIDTH 393 0
DWIDTH 6 0
BBX 9 15 0 0
BITMAP
005000
01F000
03B400
0B7800
0E3C00
1D2800
000000
07D000
2FF000
3CB000
79E000
7F8240
7D1B40
3FFD00
0BE400
ENDCHAR
STARTCHAR edieresis
ENCODING 235
SWIDTH 393 0
DWIDTH 6 0
BBX 9 12 0 0
BITMAP
0A2800
1F3D00
1E2C00
000000
07D000
2FF000
3CB000
79E000
7F8240
7D1B40
3FFD00
0BE400
ENDCHAR
STARTCHAR igrave
ENCODING 236
SWIDTH 246 0
DWIDTH 4 0
BBX 6 14 0 0
BITMAP
E000
F000
7800
2C00
0D00
0000
1D00
2D00
3C00
3C00
7820
78B0
3FD0
1E40
ENDCHAR
STARTCHAR iacute
ENCODING 237
SWIDTH 246 0
DWIDTH 4 0
BBX 6 14 0 0
BITMAP
01D0
02D0
03C0
0B40
0900
0000
1D00
2D00
3C00
3C00
7820
78B0
3FD0
1E40
ENDCHAR
STARTCHAR icircumflex
ENCODING 238
SWIDTH 246 0
DWIDTH 4 0
BBX 6 15 0 0
BITMAP
0500
0F80
2F80
3AC0
B1D0
E1D0
0000
1D00
2D00
3C00
3C00
7820
78B0
3FD0
1E40
ENDCHAR
STARTCHAR idieresis
ENCODING 239
SWIDTH 246 0
DWIDTH 4 0
BBX 6 12 0 0
BITMAP
6190
F6E0
B1D0
0000
1D00
2D00
3C00
3C00
7820
78B0
3FD0
1E40
ENDCHAR
STARTCHAR eth
ENCODING 240
SWIDTH 451 0
DWIDTH 7 0
BBX 9 16 0 0
BITMAP
0B4000
07C740
02EF00
01F800
0BF400
0A7800
003C00
003C00
0BFD00
2FFD00
3C3D00
783C00
783C00
78B800
3FF000
1B9000
ENDCHAR
STARTCHAR ntilde
ENCODING 241
SWIDTH 496 0
DWIDTH 8 0
BBX 10 13 0 0
BITMAP
014000
0BE280
0EBF40
041E00
000000
1D2D00
2DFD00
3EFD00
3F7C00
3E3C20
7D78B0
3C7FD0
282E40
ENDCHAR
STARTCHAR ograve
ENCODING 242
SWIDTH 451 0
DWIDTH 7 0
BBX 10 14 0 0
BITMAP
1C0000
2E0000
0F0000
074000
018000
000000
0BE000
2FF400
3CF840
78BFD0
783E80
787800
3FF000
1B9000
ENDCHAR
STARTCHAR oacute
ENCODING 243
SWIDTH 451 0
DWIDTH 7 0
BBX 10 14 0 0
BITMAP
002C00
003C00
00B400
00E000
018000
000000
0BE000
2FF400
3CF840
78BFD0
783E80
787800
3FF000
1B9000
ENDCHAR
STARTCHAR ocircumflex
ENCODING 244
SWIDTH 451 0
DWIDTH 7 0
BBX 10 15 0 0
BITMAP
005000
02F000
03B400
0B7800
1E3800
1C2800
000000
0BE000
2FF400
3CF840
78BFD0
783E80
787800
3FF000
1B9000
ENDCHAR
STARTCHAR otilde
ENCODING 245
SWIDTH 451 0
DWIDTH 7 0
BBX 10 13 0 0
BITMAP
050000
1F8A00
3AFE00
107800
000000
0BE000
2FF400
3CF840
78BFD0
783E80
787800
3FF000
1B9000
ENDCHAR
STARTCHAR odieresis
ENCODING 246
SWIDTH 451 0
DWIDTH 7 0
BBX 10 12 0 0
BITMAP
092800
1F3D00
1E3800
000000
0BE000
2FF400
3CF840
78BFD0
783E80
787800
3FF000
1B9000
ENDCHAR
STARTCHAR divide
ENCODING 247
SWIDTH 700 0
DWIDTH 11 0
BBX 9 10 1 0
BITMAP
00A000
01F400
00E000
000000
7FFF80
BFFFC0
000000
028000
03D000
02C000
ENDCHAR
STARTCHAR oslash
ENCODING 248
SWIDTH 459 0
DWIDTH 7 0
BBX 10 12 0 -2
BITMAP
009000
00C000
0BE000
2FF800
3EBC00
7A6FD0
7A7E80
7B7800
3FF400
1FD000
060000
090000
ENDCHAR
STARTCHAR ugrave
ENCODING 249
SWIDTH 462 0
DWIDTH 7 0
BBX 10 14 0 0
BITMAP
0E0000
0F0000
078000
02C000
00D000
000000
1D2C00
2D3C00
3C7800
3CB400
38F450
7EF5D0
3FBF80
2D3D00
ENDCHAR
STARTCHAR uacute
ENCODING 250
SWIDTH 462 0
DWIDTH 7 0
BBX 10 14 0 0
BITMAP
001D00
002E00
003C00
007400
009000
000000
1D2C00
2D3C00
3C7800
3CB400
38F450
7EF5D0
3FBF80
2D3D00
ENDCHAR
STARTCHAR ucircumflex
ENCODING 251
SWIDTH 462 0
DWIDTH 7 0
BBX 10 15 0 0
BITMAP
001000
00F800
02E800
03AC00
0B1D00
0E1D00
000000
1D2C00
2D3C00
3C7800
3CB400
38F450
7EF5D0
3FBF80
2D3D00
ENDCHAR
STARTCHAR udieresis
ENCODING 252
SWIDTH 462 0
DWIDTH 7 0
BBX 10 12 0 0
BITMAP
061900
0F6E00
0B1D00
000000
1D2C00
2D3C00
3C7800
3CB400
38F450
7EF5D0
3FBF80
2D3D00
ENDCHAR
STARTCHAR yacute
ENCODING 253
SWIDTH 479 0
DWIDTH 8 0
BBX 10 22 0 -8
BITMAP
001D00
002E00
003C00
007400
009000
000000
1D2C00
2D3C00
3C7800
3CB800
38F490
7EF7D0
3FBF40
2DB800
02F000
0BE000
2ED000
76C000
A3C000
E74000
FF0000
790000
ENDCHAR
STARTCHAR thorn
ENCODING 254
SWIDTH 508 0
DWIDTH 8 0
BBX 10 20 0 -6
BITMAP
050000
0F0000
0F0000
1E0000
1E0000
2D0000
2C7800
3DFD00
3F6E00
7E2D00
7D2D20
7CB8B0
7FFFD0
7FAE40
B40000
B40000
B40000
B40000
B40000
100000
ENDCHAR
STARTCHAR ydieresis
ENCODING 255
SWIDTH 479 0
DWIDTH 8 0
BBX 10 20 0 -8
BITMAP
061900
0F6E00
0B1D00
000000
1D2C00
2D3C00
3C7800
3CB800
38F490
7EF7D0
3FBF40
2DB800
02F000
0BE000
2ED000
76C000
A3C000
E74000
FF0000
790000
ENDCHAR
STARTCHAR Amacron
ENCODING 256
SWIDTH 786 0
DWIDTH 13 0
BBX 14 17 1 0
BITMAP
000BF800
000BFC00
001BFE00
01FFFF40
07E40500
0F807800
2E00B800
7D00F400
B800F400
F801F000
F402F000
F403E000
F407E000
F80BE050
BD2FE1E0
3FF9FF80
1BE0BE00
ENDCHAR
STARTCHAR amacron
ENCODING 257
SWIDTH 470 0
DWIDTH 8 0
BBX 10 11 0 0
BITMAP
07FD00
07FD00
000000
02D400
0FFC00
2E3800
3C7800
78B450
78F5D0
7FFF80
2E2E00
ENDCHAR
STARTCHAR Abreve
ENCODING 258
SWIDTH 786 0
DWIDTH 13 0
BBX 14 18 1 0
BITMAP
001D0B00
001FFE00
0006F800
001BFE00
01FFFF40
07E40500
0F807800
2E00B800
7D00F400
B800F400
F801F000
F402F000
F403E000
F407E000
F80BE050
BD2FE1E0
3FF9FF80
1BE0BE00
ENDCHAR
STARTCHAR abreve
ENCODING 259
SWIDTH 470 0
DWIDTH 8 0
BBX 10 13 0 0
BITMAP
0D0340
0F0B40
0BFF00
02F800
000000
02D400
0FFC00
2E3800
3C7800
78B450
78F5D0
7FFF80
2E2E00
ENDCHAR
STARTCHAR Aogonek
ENCODING 260
SWIDTH 786 0
DWIDTH 13 0
BBX 14 19 1 -4
BITMAP
001BFE00
01FFFF40
07E40100
0F807800
2E00B800
7D00F400
B800F400
F801F000
F402F000
F403E000
F407E000
F40BE050
BC1FE1E0
3FF9FF80
1BE0BD00
0000B400
0000E000
0000FA00
00006E00
ENDCHAR
STARTCHAR aogonek
ENCODING 261
SWIDTH 470 0
DWIDTH 8 0
BBX 10 12 0 -4
BITMAP
02D400
0FFC00
2E3800
3C7800
78B450
78F5D0
7FFF80
2E7E00
00B400
00E000
00FA00
007E00
ENDCHAR
STARTCHAR Cacute
ENCODING 262
SWIDTH 686 0
DWIDTH 11 0
BBX 12 19 1 0
BITMAP
000028
0001F8
0007E0
000A40
00BF80
07FFE0
0F81F0
2E00F4
7D00F0
7800A0
B80000
F40000
F40000
F40000
B80000
7C0000
3F401B
0FFFFE
01BF90
ENDCHAR
STARTCHAR cacute
ENCODING 263
SWIDTH 368 0
DWIDTH 6 0
BBX 8 14 0 0
BITMAP
002C
007C
00B4
00E0
0180
0000
07D0
2FF0
3CB0
7850
7802
7C1E
3FFD
1BE0
ENDCHAR
STARTCHAR Ccircumflex
ENCODING 264
SWIDTH 686 0
DWIDTH 11 0
BBX 12 20 1 0
BITMAP
000500
001F80
003EC0
00B5D0
00A0D0
00BF80
07FFE0
0F81F0
2E00F4
7D00F0
7800A0
B80000
F40000
F40000
F40000
B80000
7C0000
3F401B
0FFFFE
01BF90
ENDCHAR
STARTCHAR ccircumflex
ENCODING 265
SWIDTH 368 0
DWIDTH 6 0
BBX 8 15 0 0
BITMAP
0050
02F0
03B4
0B78
1E38
1C28
0000
07D0
2FF0
3CB0
7850
7802
7C1E
3FFD
1BE0
ENDCHAR
STARTCHAR Cdotaccent
ENCODING 266
SWIDTH 686 0
DWIDTH 11 0
BBX 12 18 1 0
BITMAP
000A00
001F40
001E00
00BF80
07FFE0
0F81F0
2E00F4
7D00F0
7800A0
B80000
F40000
F40000
F40000
B80000
7C0000
3F401B
0FFFFE
01BF90
ENDCHAR
STARTCHAR cdotaccent
ENCODING 267
SWIDTH 368 0
DWIDTH 6 0
BBX 8 12 0 0
BITMAP
0190
03E0
02D0
0000
07D0
2FF0
3CB0
7850
7802
7C1E
3FFD
1BE0
ENDCHAR
STARTCHAR Ccaron
ENCODING 268
SWIDTH 686 0
DWIDTH 11 0
BBX 12 20 1 0
BITMAP
001050
0074F0
003AD0
002F80
000E00
00BF80
07FFE0
0F81F0
2E00F4
7D00F0
7800A0
B80000
F40000
F40000
F40000
B80000
7C0000
3F401B
0FFFFE
01BF90
ENDCHAR
STARTCHAR ccaron
ENCODING 269
SWIDTH 368 0
DWIDTH 6 0
BBX 8 15 0 0
BITMAP
0505
0B1D
0B2C
0774
03F0
02D0
0000
07D0
2FF0
3CB0
7850
7802
7C1E
3FFD
1BE0
ENDCHAR
STARTCHAR Dcaron
ENCODING 270
SWIDTH 836 0
DWIDTH 13 0
BBX 13 20 0 0
BITMAP
00101000
0038B400
002DE000
001FC000
000B4000
01BF9000
1FFFFD00
7E407F00
20400F80
02E00BC0
03D007C0
03C007C0
07C007C0
0B800BC0
0B800B80
0F401F40
0F403E00
0F01FC00
1FFFE000
0BFE4000
ENDCHAR
STARTCHAR dcaron
ENCODING 271
SWIDTH 470 0
DWIDTH 8 0
BBX 11 16 0 0
BITMAP
000024
000B78
000F74
000F70
001E00
001E00
001D00
002D00
02FC00
0FFC00
2E3800
3C7800
78B450
78F5D0
7FFF80
2E2E00
ENDCHAR
STARTCHAR Dcroat
ENCODING 272
SWIDTH 821 0
DWIDTH 13 0
BBX 13 15 0 0
BITMAP
00BF9000
01FFF800
02E07E00
02D01F40
03D00B80
07C00B80
6FFA0B80
BFFE0B80
0F400B80
0F400F40
1F001F00
1F007D00
1E01F800
2FFFE000
1BFA4000
ENDCHAR
STARTCHAR dcroat
ENCODING 273
SWIDTH 470 0
DWIDTH 8 0
BBX 10 15 0 0
BITMAP
000B00
000F00
000F00
06FF80
07FF40
001D00
002D00
02FC00
0FFC00
2E3800
3C7800
78B450
78F5D0
7FFF80
2E2E00
ENDCHAR
STARTCHAR Emacron
ENCODING 274
SWIDTH 686 0
DWIDTH 11 0
BBX 13 17 0 0
BITMAP
002FE000
002FF000
006FE000
02FFF800
07D03D00
0F802D00
0F402D00
0BC01400
02FD0000
07FD0000
2F400000
7D000000
7C000000
7C000000
3E001BC0
1FFFFF80
02BFE500
ENDCHAR
STARTCHAR emacron
ENCODING 275
SWIDTH 393 0
DWIDTH 6 0
BBX 9 11 0 0
BITMAP
0BF800
0FF800
000000
07D000
2FF000
3CB000
79E000
7F8240
7D1B40
3FFD00
0BE400
ENDCHAR
STARTCHAR Ebreve
ENCODING 276
SWIDTH 686 0
DWIDTH 11 0
BBX 13 18 0 0
BITMAP
00742C00
007FF800
001BE000
006FE000
02FFF800
07D03D00
0F802D00
0F402D00
0BC01400
02FD0000
07FD0000
2F400000
7D000000
7C000000
7C000000
3E001BC0
1FFFFF80
02BFE500
ENDCHAR
STARTCHAR ebreve
ENCODING 277
SWIDTH 393 0
DWIDTH 6 0
BBX 9 13 0 0
BITMAP
280A00
2D1E00
1FFD00
07E400
000000
07D000
2FF000
3CB000
79E000
7F8240
7D1B40
3FFD00
0BE400
ENDCHAR
STARTCHAR Edotaccent
ENCODING 278
SWIDTH 686 0
DWIDTH 11 0
BBX 13 18 0 0
BITMAP
00068000
000BC000
00078000
006FE000
02FFF800
07D03D00
0F802D00
0F402D00
0BC01400
02FD0000
07FD0000
2F400000
7D000000
7C000000
7C000000
3E001BC0
1FFFFF80
02BFE500
ENDCHAR
STARTCHAR edotaccent
ENCODING 279
SWIDTH 393 0
DWIDTH 6 0
BBX 9 12 0 0
BITMAP
019000
03E000
02D000
000000
07D000
2FF000
3CB000
79E000
7F8240
7D1B40
3FFD00
0BE400
ENDCHAR
STARTCHAR Eogonek
ENCODING 280
SWIDTH 686 0
DWIDTH 11 0
BBX 13 20 0 -5
BITMAP
006FE000
02FFF800
07D03D00
0F802D00
0F402D00
0BC01400
02FD0000
07FD0000
2F400000
3D000000
7C000000
7C000000
7E001BC0
1FFFFF80
06FFF900
001E0000
002C0000
002D0000
001FE000
00069000
ENDCHAR
STARTCHAR eogonek
ENCODING 281
SWIDTH 393 0
DWIDTH 6 0
BBX 9 13 0 -5
BITMAP
07D000
2FF000
3CB000
78F000
7BD100
7E0740
3E6E00
1FF800
038000
074000
074000
07F800
015000
ENDCHAR
STARTCHAR Ecaron
ENCODING 282
SWIDTH 686 0
DWIDTH 11 0
BBX 13 20 0 0
BITMAP
00141400
002C7800
001DB000
000BD000
00078000
006FE000
02FFF800
07D03D00
0F802D00
0F402D00
0BC01400
02FD0000
07FD0000
2F400000
7D000000
7C000000
7C000000
3E001BC0
1FFFFF80
02BFE500
ENDCHAR
STARTCHAR ecaron
ENCODING 283
SWIDTH 393 0
DWIDTH 6 0
BBX 9 15 0 0
BITMAP
050500
0B1E00
076C00
077800
03F000
02D000
000000
07D000
2FF000
3CB000
79E000
7F8240
7D1B40
3FFD00
0BE400
ENDCHAR
STARTCHAR Gcircumflex
ENCODING 284
SWIDTH 811 0
DWIDTH 13 0
BBX 14 28 1 -8
BITMAP
00014000
000FC000
002ED000
0079E000
00B0A000
006F9000
03FFF000
0F80B400
2E00B800
3D00B800
7800B400
B8001000
F4000000
F4000000
F407FC00
B806FC00
7C003C10
3F4079E0
1FFFFF80
01BEBE00
0001F400
0007F000
001EE000
0039E000
0072D000
00B3C000
00BF4000
007D0000
ENDCHAR
STARTCHAR gcircumflex
ENCODING 285
SWIDTH 479 0
DWIDTH 8 0
BBX 10 23 0 -8
BITMAP
001000
00B800
01EC00
03DD00
075E00
0A0D00
000000
02D400
0FFC00
2E3800
3C7800
78B490
78FBD0
7FFF40
2EF800
02F000
0BE000
2ED000
76D000
A3C000
E74000
FF0000
7D0000
ENDCHAR
STARTCHAR Gbreve
ENCODING 286
SWIDTH 811 0
DWIDTH 13 0
BBX 14 26 1 -8
BITMAP
00E07400
00BFF400
002F9000
006F9000
03FFF000
0F80B400
2E00B800
3D00B800
7800B400
B8001000
F4000000
F4000000
F407FC00
B806FC00
7C003C10
3F4079E0
1FFFFF80
01BEBE00
0001F400
0007F000
001EE000
0039E000
0072D000
00B3C000
00BF4000
007D0000
ENDCHAR
STARTCHAR gbreve
ENCODING 287
SWIDTH 479 0
DWIDTH 8 0
BBX 10 21 0 -8
BITMAP
0D0340
0F0B40
0BFF00
02F800
000000
02D400
0FFC00
2E3800
3C7800
78B490
78FBD0
7FFF40
2EF800
02F000
0BE000
2ED000
76D000
A3C000
E74000
FF0000
7D0000
ENDCHAR
STARTCHAR Gdotaccent
ENCODING 288
SWIDTH 811 0
DWIDTH 13 0
BBX 14 26 1 -8
BITMAP
000A4000
001F8000
000F4000
006F9000
03FFF000
0F80B400
2E00B800
3D00B800
7800B400
B8001000
F4000000
F4000000
F407FC00
B806FC00
7C003C10
3F4079E0
1FFFFF80
01BEBE00
0001F400
0007F000
001EE000
0039E000
0072D000
00B3C000
00BF4000
007D0000
ENDCHAR
STARTCHAR gdotaccent
ENCODING 289
SWIDTH 479 0
DWIDTH 8 0
BBX 10 20 0 -8
BITMAP
00A400
01F400
00F000
000000
02D400
0FFC00
2E3800
3C7800
78B490
78FBD0
7FFF40
2EF800
02F000
0BE000
2ED000
76D000
A3C000
E74000
FF0000
7D0000
ENDCHAR
STARTCHAR uni0122
ENCODING 290
SWIDTH 811 0
DWIDTH 13 0
BBX 14 23 1 -8
BITMAP
006F9000
03FFF000
0F80B400
2E00B800
3D00B800
7800B400
B8001000
F4000000
F4000000
F407FC00
B806FC00
7C003C10
3F4079E0
1FFFFF80
01BEBE00
0001F400
0707F000
0B1EE000
0B39E000
0A72D000
00B3C000
00BF4000
007D0000
ENDCHAR
STARTCHAR uni0123
ENCODING 291
SWIDTH 479 0
DWIDTH 8 0
BBX 10 21 0 -8
BITMAP
007400
00B400
00B000
00A000
000000
02D400
0FFC00
2E3800
3C7800
78B490
78FBD0
7FFF40
2EF800
02F000
0BE000
2ED000
76D000
A3C000
E74000
FF0000
7D0000
ENDCHAR
STARTCHAR Hcircumflex
ENCODING 292
SWIDTH 873 0
DWIDTH 14 0
BBX 17 20 -1 0
BITMAP
0000140000
0000BD0000
0001EF0000
0002DB4000
0003874000
02F4002E00
1FFC00BF00
3C3D01E740
703D03C700
003D078B00
003C07AD00
007C0BF800
06FFFFE000
07FFAF4000
00B40F0000
00F40F0000
01F00F4080
01F00B82C0
02E007FF40
01D001F900
ENDCHAR
STARTCHAR hcircumflex
ENCODING 293
SWIDTH 502 0
DWIDTH 8 0
BBX 9 22 1 0
BITMAP
005000
02F400
07B800
0F3C00
1D1C00
000000
02D000
0FE000
1DB000
2CA000
38D000
75C000
B78000
BB0000
FDB400
F6F400
F7F400
FDB000
F8F080
F4F2C0
F4FF40
E0B900
ENDCHAR
STARTCHAR Hbar
ENCODING 294
SWIDTH 856 0
DWIDTH 14 0
BBX 13 15 1 0
BITMAP
07401E00
0B401E00
0F402E00
7FFFFFC0
6FAABF80
1F003D00
1F003D00
BFFFFF40
BFFFFE40
3D00B800
3D00B800
3C00F400
7C00F400
7C00F400
7800F000
ENDCHAR
STARTCHAR hbar
ENCODING 295
SWIDTH 502 0
DWIDTH 8 0
BBX 9 15 1 0
BITMAP
0E0000
1E0000
2D0000
BEA000
BFF000
780000
780000
B4B400
B6F400
FBF400
FDB000
F8F080
F4F2C0
F4FF40
A0B900
ENDCHAR
STARTCHAR Itilde
ENCODING 296
SWIDTH 495 0
DWIDTH 8 0
BBX 9 19 0 0
BITMAP
014000
07F5C0
0B7FC0
050B40
1FFF80
1BFF40
00F000
01F000
01F000
02E000
02E000
02D000
03D000
03D000
07C000
07C000
078000
AFF800
FFF800
ENDCHAR
STARTCHAR itilde
ENCODING 297
SWIDTH 246 0
DWIDTH 4 0
BBX 8 13 -1 0
BITMAP
0400
3F5D
77FC
50B4
0000
0740
0B40
0F00
0F00
1E08
1E2C
0FF4
0790
ENDCHAR
STARTCHAR Imacron
ENCODING 298
SWIDTH 495 0
DWIDTH 8 0
BBX 9 17 0 0
BITMAP
02FE00
03FF00
1FFF80
1BFF40
00F000
01F000
01F000
02E000
02E000
02D000
03D000
03D000
07C000
07C000
078000
AFF800
FFF800
ENDCHAR
STARTCHAR imacron
ENCODING 299
SWIDTH 246 0
DWIDTH 4 0
BBX 6 11 0 0
BITMAP
BF80
BFC0
0000
1D00
2D00
3C00
3C00
7820
78B0
3FD0
1E40
ENDCHAR
STARTCHAR Ibreve
ENCODING 300
SWIDTH 495 0
DWIDTH 8 0
BBX 9 18 0 0
BITMAP
0742C0
07FF80
01FE00
1FFF80
1BFF40
00F000
01F000
01F000
02E000
02E000
02D000
03D000
03D000
07C000
07C000
078000
AFF800
FFF800
ENDCHAR
STARTCHAR ibreve
ENCODING 301
SWIDTH 246 0
DWIDTH 4 0
BBX 7 13 -1 0
BITMAP
741C
783C
3FF8
0BE0
0000
0740
0B40
0F00
0F00
1E08
1E2C
0FF4
0790
ENDCHAR
STARTCHAR Iogonek
ENCODING 302
SWIDTH 495 0
DWIDTH 8 0
BBX 9 19 0 -4
BITMAP
1FFF80
1BFF40
00F000
01F000
01F000
02E000
02E000
02D000
03D000
03D000
07C000
07C000
078000
AFF800
FFF800
0E0000
1D0000
1FE000
0BD000
ENDCHAR
STARTCHAR iogonek
ENCODING 303
SWIDTH 246 0
DWIDTH 4 0
BBX 6 16 0 -4
BITMAP
0A00
2F40
1E00
0000
1D00
2D00
3C00
3C00
7820
78F0
3FC0
2E00
7800
B000
7A40
2F40
ENDCHAR
STARTCHAR Idotaccent
ENCODING 304
SWIDTH 495 0
DWIDTH 8 0
BBX 9 18 0 0
BITMAP
006800
00BC00
007800
1FFF80
1BFF40
00F000
01F000
01F000
02E000
02E000
02D000
03D000
03D000
07C000
07C000
078000
AFF800
FFF800
ENDCHAR
STARTCHAR dotlessi
ENCODING 305
SWIDTH 246 0
DWIDTH 4 0
BBX 6 8 0 0
BITMAP
1D00
2D00
3C00
3C00
7820
78B0
3FD0
1E40
ENDCHAR
STARTCHAR Jcircumflex
ENCODING 308
SWIDTH 743 0
DWIDTH 12 0
BBX 11 21 1 -1
BITMAP
000500
003F00
00BB40
01E380
01D280
06BFE8
2FFFFC
B900F4
B000F4
B400F0
7401F0
0001E0
001FE0
00BFD0
03E3D0
0B43C0
1E0780
2D0F40
2E2E00
1FFC00
07E000
ENDCHAR
STARTCHAR jcircumflex
ENCODING 309
SWIDTH 254 0
DWIDTH 4 0
BBX 10 23 -4 -8
BITMAP
000500
000F80
002F80
007AC0
00B2D0
00E1D0
000000
001D00
002D00
003C00
003C00
003C60
003AE0
007F80
007D00
01F400
07F000
0EF000
28E000
75D000
B3C000
BF4000
2E0000
ENDCHAR
STARTCHAR uni0136
ENCODING 310
SWIDTH 937 0
DWIDTH 15 0
BBX 17 20 0 -5
BITMAP
01BF802D00
0FFFD03D00
2E0B807C00
3C0B80B800
3C0B41F000
2D0F43D000
040F5F8000
007FFD0000
007FF40000
001E7D0000
002E2F0000
602D0F4080
B87C0BD2C0
7FF803FF40
1BE001F900
0000000000
0002800000
0003C00000
0003800000
0003400000
ENDCHAR
STARTCHAR uni0137
ENCODING 311
SWIDTH 525 0
DWIDTH 8 0
BBX 10 21 1 -5
BITMAP
02D000
0FE000
1DB000
2CA000
38D000
75C000
B78000
BA0000
FDB800
F7FC00
FA3C00
FD7800
F9F090
F6D1D0
F1FF80
A0BE00
000000
0D0000
1E0000
1D0000
180000
ENDCHAR
STARTCHAR kgreenlandic
ENCODING 312
SWIDTH 465 0
DWIDTH 7 0
BBX 10 8 0 0
BITMAP
1D7D00
2DFF00
3EDB00
3FC500
3F8050
7FC1D0
3DFF80
287E00
ENDCHAR
STARTCHAR Lacute
ENCODING 313
SWIDTH 673 0
DWIDTH 11 0
BBX 14 19 -1 0
BITMAP
000002C0
00000BD0
00002E40
00007400
0006F900
001FFF00
007D0B80
00B80780
00F40780
01F00740
01F00000
01E00000
02E00000
02E00000
02E00000
02D00010
2FE900A0
BFFFFFD0
7E06FE00
ENDCHAR
STARTCHAR lacute
ENCODING 314
SWIDTH 326 0
DWIDTH 5 0
BBX 9 21 1 0
BITMAP
000740
002F40
00BD00
00D000
000000
02D000
0FE000
1DA000
2CA000
38A000
74D000
B5D000
B2C000
F34000
FB0000
FD0000
F80000
F42000
B0B000
7FD000
2F4000
ENDCHAR
STARTCHAR uni013B
ENCODING 315
SWIDTH 673 0
DWIDTH 11 0
BBX 14 20 -1 -5
BITMAP
0006F900
001FFF00
007D0B80
00B80780
00F40780
01F00740
01F00000
01E00000
02E00000
02E00000
02E00000
02D00010
2FE900A0
BFFFFFD0
7E06FE00
00000000
00280000
003C0000
00380000
00240000
ENDCHAR
STARTCHAR uni013C
ENCODING 316
SWIDTH 326 0
DWIDTH 5 0
BBX 6 21 1 -5
BITMAP
02D0
0FE0
1DA0
2CA0
38A0
74D0
B5D0
B2C0
F340
FB00
FD00
F800
F420
B0B0
7FD0
2F40
0000
3800
7800
7400
7000
ENDCHAR
STARTCHAR Lcaron
ENCODING 317
SWIDTH 673 0
DWIDTH 11 0
BBX 16 15 -1 0
BITMAP
0006F900
001FFF18
007D0BAD
00B807AC
00F407A8
01F00740
01F00000
01E00000
02E00000
02E00000
02E00000
02D00010
2FE900A0
BFFFFFD0
7E06FE00
ENDCHAR
STARTCHAR lcaron
ENCODING 318
SWIDTH 237 0
DWIDTH 4 0
BBX 7 16 0 0
BITMAP
0014
077C
0BB8
0F74
0F00
1F00
1E00
2D00
2D00
3C00
3C00
7800
7860
78E0
3FC0
2E00
ENDCHAR
STARTCHAR Ldot
ENCODING 319
SWIDTH 673 0
DWIDTH 11 0
BBX 14 15 -1 0
BITMAP
0006F900
001FFF00
007D0B80
00B80780
00F40780
01F00740
01F00000
01E1A000
02E2F000
02E1E000
02E00000
02D00010
2FE900A0
BFFFFFD0
7E06FE00
ENDCHAR
STARTCHAR ldot
ENCODING 320
SWIDTH 363 0
DWIDTH 6 0
BBX 8 16 0 0
BITMAP
02C0
07C0
0B80
0B40
0F40
0F00
1E00
2EB4
2DF4
3CA0
3C00
3C00
7C02
3D1E
2FFC
0BE0
ENDCHAR
STARTCHAR Lslash
ENCODING 321
SWIDTH 673 0
DWIDTH 11 0
BBX 14 17 -1 0
BITMAP
001AFF80
003FFF80
0006F900
001FFF00
007D0B80
00B80780
00F00780
01F00740
01F00100
01E00000
02E00000
02E00000
02E00000
02D00010
2FE900A0
BFFFFFD0
7E06FE00
ENDCHAR
STARTCHAR lslash
ENCODING 322
SWIDTH 326 0
DWIDTH 5 0
BBX 9 17 1 0
BITMAP
06FE40
2FFE40
07D000
0FE000
2DA000
3CA000
78E000
B4D000
B1C000
F38000
F70000
FE0000
F80000
F42000
B0B000
7FD000
2F4000
ENDCHAR
STARTCHAR Nacute
ENCODING 323
SWIDTH 884 0
DWIDTH 14 0
BBX 16 19 0 0
BITMAP
000002C0
00000BC0
00003E00
0000A400
0BD06E40
2FF1FFC0
B5F347D0
D1FA03D0
01FC07C0
01F807C0
02F40B80
02F00B80
02E00F40
03D00F40
03D01F00
07C01F02
07C01F0B
07C00FFD
078006E4
ENDCHAR
STARTCHAR nacute
ENCODING 324
SWIDTH 496 0
DWIDTH 8 0
BBX 10 14 0 0
BITMAP
000A00
001F00
002D00
007400
006000
000000
1D2D00
2DFD00
3EFD00
3F7C00
3E3C20
7D78B0
3C7FD0
282E40
ENDCHAR
STARTCHAR uni0145
ENCODING 325
SWIDTH 884 0
DWIDTH 14 0
BBX 16 20 0 -5
BITMAP
0BD06E40
2FF1FFC0
B5F347D0
D1FA03D0
01FC07C0
01F807C0
02F40B80
02F00B80
02E00F40
03D00F40
03D01F00
07C01F02
07C01F0B
07C00FFD
078006E4
00000000
000E0000
001E0000
001D0000
000C0000
ENDCHAR
STARTCHAR uni0146
ENCODING 326
SWIDTH 496 0
DWIDTH 8 0
BBX 10 13 0 -5
BITMAP
1D2D00
2DFD00
3EFD00
3F7C00
3E3C20
7D78B0
3C7FD0
282E40
000000
034000
078000
074000
060000
ENDCHAR
STARTCHAR Ncaron
ENCODING 327
SWIDTH 884 0
DWIDTH 14 0
BBX 16 20 0 0
BITMAP
00010100
00074B00
00039D00
0001F800
0000F000
0BD06E40
2FF1FFC0
B5F347D0
D1FA03D0
01FC07C0
01F807C0
02F40B80
02F00B80
02E00F40
03D00F40
03D01F00
07C01F02
07C01F0B
07C00FFD
078006E4
ENDCHAR
STARTCHAR ncaron
ENCODING 328
SWIDTH 496 0
DWIDTH 8 0
BBX 10 15 0 0
BITMAP
014100
038740
02CE00
01DD00
01F800
00A000
000000
1D2D00
2DFD00
3EFD00
3F7C00
3E3C20
7D78B0
3C7FD0
282E40
ENDCHAR
STARTCHAR napostrophe
ENCODING 329
SWIDTH 496 0
DWIDTH 8 0
BBX 10 13 0 0
BITMAP
A00000
F00000
E00000
D00000
000000
1D2D00
2DFD00
3EFD00
3F7C00
3E3C20
7D78B0
3C7FD0
282E40
ENDCHAR
STARTCHAR Eng
ENCODING 330
SWIDTH 884 0
DWIDTH 14 0
BBX 16 21 0 -6
BITMAP
0BD06E40
2FF1FFC0
B5F347C0
D1FA03C0
01FC07C0
01F807C0
02F40B80
02F00B80
02E00F40
03D00F00
03D01F00
07C02E02
07C02E0B
07C03FFD
03803EF4
00007800
0000B400
0100F000
0782E000
02FFC000
00BE0000
ENDCHAR
STARTCHAR eng
ENCODING 331
SWIDTH 495 0
DWIDTH 8 0
BBX 10 14 0 -6
BITMAP
1D2D00
2DFD00
3EFD00
3F7C00
3E3820
7D78B0
3C7FD0
28BE40
00F000
00E000
61D000
778000
3F0000
040000
ENDCHAR
STARTCHAR Omacron
ENCODING 332
SWIDTH 816 0
DWIDTH 13 0
BBX 12 17 1 0
BITMAP
007F90
00BFD0
00BF80
03FFF4
0F80BC
2E003D
3D002E
78002E
B8002E
F4002E
F4002E
F4003D
B8007C
BC00F4
3E02E0
1FFF80
06F900
ENDCHAR
STARTCHAR omacron
ENCODING 333
SWIDTH 451 0
DWIDTH 7 0
BBX 10 11 0 0
BITMAP
0BF800
1FF800
000000
0BE000
2FF400
3CF840
78BFD0
783E80
787800
3FF000
1B9000
ENDCHAR
STARTCHAR Obreve
ENCODING 334
SWIDTH 816 0
DWIDTH 13 0
BBX 12 18 1 0
BITMAP
00E074
00FFF0
006F90
00BF80
03FFF4
0F80BC
2E003D
3D002E
78002E
B8002E
F4002E
F4002E
F4003D
B8007C
BC00F4
3E02E0
1FFF80
06F900
ENDCHAR
STARTCHAR obreve
ENCODING 335
SWIDTH 451 0
DWIDTH 7 0
BBX 10 13 0 0
BITMAP
280A00
2D1E00
1FFC00
07E400
000000
0BE000
2FF400
3CF840
78BFD0
783E80
787800
3FF000
1B9000
ENDCHAR
STARTCHAR Ohungarumlaut
ENCODING 336
SWIDTH 816 0
DWIDTH 13 0
BBX 12 19 1 0
BITMAP
001C70
002DB0
0038E0
0031C0
00BF80
03FFF4
0F80BC
2E003D
3D002E
78002E
B8002E
F4002E
F4002E
F4003D
B8007C
BC00F4
3E02E0
1FFF80
06F900
ENDCHAR
STARTCHAR ohungarumlaut
ENCODING 337
SWIDTH 451 0
DWIDTH 7 0
BBX 10 14 0 0
BITMAP
02CB00
03CF00
079D00
0B2C00
092400
000000
0BE000
2FF400
3CF840
78BFD0
783E80
787800
3FF000
1B9000
ENDCHAR
STARTCHAR OE
ENCODING 338
SWIDTH 1124 0
DWIDTH 18 0
BBX 19 15 1 0
BITMAP
00BF91FFF0
03FFF7FFE0
0F80BFC000
2E003F8000
3D002F8000
7C002F4000
B8002F4000
F4002FFF80
F4002FFF80
F4003E0000
B8007E0000
BC00FE0000
3E02FF406C
1FFF8BFFF8
06F901BF90
ENDCHAR
STARTCHAR oe
ENCODING 339
SWIDTH 668 0
DWIDTH 11 0
BBX 13 8 0 0
BITMAP
0BD2E000
2FFFF400
3C7D7800
783CB400
783FD180
78BE0780
3FFFFE00
1B87F400
ENDCHAR
STARTCHAR Racute
ENCODING 340
SWIDTH 880 0
DWIDTH 14 0
BBX 15 19 1 0
BITMAP
00001D00
0000BD00
0002F400
00074000
006FE000
03FFFC00
0F807E00
2D142F00
787C1F00
B4782E00
B0B83D00
E0B9B800
E2FFD000
E2FF8000
E1F2E000
F1F1F404
B6E0BC2C
3FD03FF4
1B801B90
ENDCHAR
STARTCHAR racute
ENCODING 341
SWIDTH 455 0
DWIDTH 7 0
BBX 10 14 0 0
BITMAP
001D00
002D00
003C00
00B400
009000
000000
1D2D00
2DBD00
3DFD00
3B6D90
3E2FD0
7D1E40
3C0000
280000
ENDCHAR
STARTCHAR uni0156
ENCODING 342
SWIDTH 880 0
DWIDTH 14 0
BBX 15 20 1 -5
BITMAP
006FE000
03FFFC00
0F807E00
2D142F00
787C1F00
B4782E00
B0B83D00
E0B9B800
E2FFD000
E2FF8000
E1F2E000
F1F1F404
B6E0BC2C
3FD03FF4
1B801B90
00000000
000E0000
000E0000
001D0000
000C0000
ENDCHAR
STARTCHAR uni0157
ENCODING 343
SWIDTH 455 0
DWIDTH 7 0
BBX 10 13 0 -5
BITMAP
1D2D00
2DBD00
3DFD00
3B6D90
3E2FD0
7D1E40
3C0000
280000
000000
340000
780000
740000
700000
ENDCHAR
STARTCHAR Rcaron
ENCODING 344
SWIDTH 880 0
DWIDTH 14 0
BBX 15 20 1 0
BITMAP
00141000
00387400
002DE000
000FD000
000B4000
006FE000
03FFFC00
0F807E00
2D142F00
787C1F00
B4782E00
B0B83D00
E0B9B800
E2FFD000
E2FF8000
E1F2E000
F1F1F404
B6E0BC2C
3FD03FF4
1B801B90
ENDCHAR
STARTCHAR rcaron
ENCODING 345
SWIDTH 455 0
DWIDTH 7 0
BBX 10 15 0 0
BITMAP
010100
074B00
039D00
03AC00
02F400
01E000
000000
1D2D00
2DBD00
3DFD00
3B6D90
3E2FD0
7D1E40
3C0000
280000
ENDCHAR
STARTCHAR Sacute
ENCODING 346
SWIDTH 693 0
DWIDTH 11 0
BBX 11 19 0 0
BITMAP
000028
0000FC
0003E0
000A40
00BF90
07FFF4
0F807C
1F003C
1F003C
0F8014
0BF400
02FF40
002FE0
1402F4
7800F4
7800B4
7D01F0
2FFFD0
06FE40
ENDCHAR
STARTCHAR sacute
ENCODING 347
SWIDTH 427 0
DWIDTH 7 0
BBX 9 14 0 0
BITMAP
002C00
003C00
00B400
00E000
01C000
000000
02C000
078000
0B8000
1FD000
39F180
B5FB80
DFFF40
0BF900
ENDCHAR
STARTCHAR Scircumflex
ENCODING 348
SWIDTH 693 0
DWIDTH 11 0
BBX 11 20 0 0
BITMAP
000500
001F80
002ED0
0079E0
00A0E0
00BF90
07FFF4
0F807C
1F003C
1F003C
0F8014
0BF400
02FF40
002FE0
1402F4
7800F4
7800B4
7D01F0
2FFFD0
06FE40
ENDCHAR
STARTCHAR scircumflex
ENCODING 349
SWIDTH 427 0
DWIDTH 7 0
BBX 9 15 0 0
BITMAP
005000
01F000
03B400
0B7800
0E3800
1C2800
000000
02C000
078000
0B8000
1FD000
39F180
B5FB80
DFFF40
0BF900
ENDCHAR
STARTCHAR Scedilla
ENCODING 350
SWIDTH 693 0
DWIDTH 11 0
BBX 11 19 0 -4
BITMAP
00BF90
07FFF4
0F807C
1F003C
1F003C
0F8014
0BF900
01FF80
002FF0
2402F4
7800F4
7800F4
3D02F0
1FFF80
02F800
002C00
002C00
07F800
07E000
ENDCHAR
STARTCHAR scedilla
ENCODING 351
SWIDTH 427 0
DWIDTH 7 0
BBX 9 13 0 -5
BITMAP
02C000
078000
0B8000
1FD000
3AF080
B4F780
DBFF40
0FF900
0BD000
00D000
01D000
3FC000
190000
ENDCHAR
STARTCHAR Scaron
ENCODING 352
SWIDTH 693 0
DWIDTH 11 0
BBX 11 20 0 0
BITMAP
001010
0074B0
0039D0
001F80
000E00
00BF90
07FFF4
0F807C
1F003C
1F003C
0F8014
0BF400
02FF40
002FE0
1402F4
7800F4
7800B4
7D01F0
2FFFD0
06FE40
ENDCHAR
STARTCHAR scaron
ENCODING 353
SWIDTH 427 0
DWIDTH 7 0
BBX 9 15 0 0
BITMAP
050500
0B1E00
0B2C00
077400
03F000
02D000
000000
02C000
078000
0B8000
1FD000
39F180
B5FB80
DFFF40
0BF900
ENDCHAR
STARTCHAR uni0162
ENCODING 354
SWIDTH 697 0
DWIDTH 11 0
BBX 15 19 0 -4
BITMAP
01AFFFE4
1FFFFFF4
3D0B8000
780B8000
780F4000
240F4000
001F0000
001F0000
002E0000
002E0000
003D0000
003D0000
007D0000
00BC0000
00FD0000
001E0000
001E0000
02FD0000
02A40000
ENDCHAR
STARTCHAR uni0163
ENCODING 355
SWIDTH 393 0
DWIDTH 6 0
BBX 9 20 0 -5
BITMAP
006400
01F800
03AC00
076C00
0B3800
0E7000
1ED000
FFFC00
BFE800
2D0000
2D0000
2D0100
1E0740
0FAE00
0BF800
0FD000
01E000
01E000
2FD000
2A4000
ENDCHAR
STARTCHAR Tcaron
ENCODING 356
SWIDTH 697 0
DWIDTH 11 0
BBX 15 20 0 0
BITMAP
00040400
000E2D00
000B7800
0007F000
0002D000
01AFFFE4
1FFFFFF4
3D0B8000
780B8000
780F4000
380F4000
001F0000
001F0000
002E0000
002E0000
002D0000
003D0000
003D0000
007D0000
00380000
ENDCHAR
STARTCHAR tcaron
ENCODING 357
SWIDTH 343 0
DWIDTH 5 0
BBX 8 16 0 0
BITMAP
0008
001D
002C
0798
0B80
0F40
0F00
6FA4
BFF0
2D00
2D00
3C00
3C05
2D1D
1FF8
0BE0
ENDCHAR
STARTCHAR Tbar
ENCODING 358
SWIDTH 697 0
DWIDTH 11 0
BBX 15 15 0 0
BITMAP
01AFFFE4
1FFFFFF4
3D0B8000
780B8000
780F4000
780F4000
141F0000
02FFF400
02FFE400
002E0000
002E0000
003D0000
003D0000
003D0000
00380000
ENDCHAR
STARTCHAR tbar
ENCODING 359
SWIDTH 343 0
DWIDTH 5 0
BBX 8 13 0 0
BITMAP
0780
0B80
0F40
0F00
6FA4
BFF0
2D00
BFE0
FFD0
3C05
2D1D
1FF8
0BE0
ENDCHAR
STARTCHAR Utilde
ENCODING 360
SWIDTH 890 0
DWIDTH 14 0
BBX 17 19 0 0
BITMAP
0001000000
000FD74000
002DFF0000
00142D0000
0BE002C000
2FF003D000
B4F403D000
D0F407C000
00F407C000
01F00BC000
02E00B8000
02E00F8000
03D01F4000
03D02F4000
07C07F4000
07C0EF0240
07D6CF9B00
03FF4BFD00
01F906F400
ENDCHAR
STARTCHAR utilde
ENCODING 361
SWIDTH 462 0
DWIDTH 7 0
BBX 10 13 0 0
BITMAP
010000
0FD340
1EFF00
042D00
000000
1D2C00
2D3C00
3C7800
3CB400
38F450
7EF5D0
3FBF80
2D3D00
ENDCHAR
STARTCHAR Umacron
ENCODING 362
SWIDTH 890 0
DWIDTH 14 0
BBX 17 17 0 0
BITMAP
000BF80000
000BFC0000
0BE002C000
2FF003D000
B4F403D000
D0F407C000
00F407C000
01F00BC000
02E00B8000
02E00F8000
03D01F4000
03D02F4000
07C07F4000
07C0EF0240
07D6CF9B00
03FF4BFD00
01F906F400
ENDCHAR
STARTCHAR umacron
ENCODING 363
SWIDTH 462 0
DWIDTH 7 0
BBX 10 11 0 0
BITMAP
0BF800
0BFC00
000000
1D2C00
2D3C00
3C7800
3CB400
38F450
7EF5D0
3FBF80
2D3D00
ENDCHAR
STARTCHAR Ubreve
ENCODING 364
SWIDTH 890 0
DWIDTH 14 0
BBX 17 18 0 0
BITMAP
001D0B0000
001FFF0000
0006F80000
0BE002C000
2FF003D000
B4F403D000
D0F407C000
00F407C000
01F00BC000
02E00B8000
02E00F8000
03D01F4000
03D02F4000
07C07F4000
07C0EF0240
07D6CF9B00
03FF4BFD00
01F906F400
ENDCHAR
STARTCHAR ubreve
ENCODING 365
SWIDTH 462 0
DWIDTH 7 0
BBX 10 13 0 0
BITMAP
1D0700
1E0F00
0FFE00
02F800
000000
1D2C00
2D3C00
3C7800
3CB400
38F450
7EF5D0
3FBF80
2D3D00
ENDCHAR
STARTCHAR Uring
ENCODING 366
SWIDTH 890 0
DWIDTH 14 0
BBX 17 20 0 0
BITMAP
0001F40000
0003FC0000
00075C0000
0003FC0000
0001F40000
0BE002C000
2FF003D000
B4F403D000
D0F407C000
00F407C000
01F00BC000
02E00B8000
02E00F8000
03D01F4000
03D02F4000
07C07F4000
07C0EF0240
07D6CF9B00
03FF4BFD00
01F906F400
ENDCHAR
STARTCHAR uring
ENCODING 367
SWIDTH 462 0
DWIDTH 7 0
BBX 10 14 0 0
BITMAP
01F400
03FC00
035C00
03FC00
01F400
000000
1D2C00
2D3C00
3C7800
3CB400
38F450
7EF5D0
3FBF80
2D3D00
ENDCHAR
STARTCHAR Uhungarumlaut
ENCODING 368
SWIDTH 890 0
DWIDTH 14 0
BBX 17 19 0 0
BITMAP
0002CA0000
0003CF0000
00079D0000
0007180000
0BE002C000
2FF003D000
B4F403D000
D0F407C000
00F407C000
01F00BC000
02E00B8000
02E00F8000
03D01F4000
03D02F4000
07C07F4000
07C0EF0240
07D6CF9B00
03FF4BFD00
01F906F400
ENDCHAR
STARTCHAR uhungarumlaut
ENCODING 369
SWIDTH 462 0
DWIDTH 7 0
BBX 10 14 0 0
BITMAP
00D740
01EB40
02CF00
038D00
071800
000000
1D2C00
2D3C00
3C7800
3CB400
38F450
7EF5D0
3FBF80
2D3D00
ENDCHAR
STARTCHAR Uogonek
ENCODING 370
SWIDTH 890 0
DWIDTH 14 0
BBX 17 19 0 -4
BITMAP
0BE002C000
2FF003D000
B4F403D000
D0F407C000
40F407C000
01F00BC000
02F00B8000
02E00F8000
03D01F4000
03D02F4000
07C03F4000
07C0AF0100
07C2CF4740
03FF4FFD00
01F906F400
000001C000
000002C000
000002E900
000001BC00
ENDCHAR
STARTCHAR uogonek
ENCODING 371
SWIDTH 462 0
DWIDTH 7 0
BBX 10 12 0 -4
BITMAP
1D2C00
2D3C00
3C7800
3CB400
38F450
7EF5D0
3FBF80
2D7D00
00B000
00E000
00FA00
007E00
ENDCHAR
STARTCHAR Wcircumflex
ENCODING 372
SWIDTH 1217 0
DWIDTH 19 0
BBX 20 20 2 0
BITMAP
0000140000
0000BC0000
0001EE0000
0003CF0000
00074B0000
7400B00B80
B801F02FE0
B801F038F0
F402F074F0
F402E074E0
F403E039E0
F407E02FD0
F40BE00BFE
F40FE007FE
F41EE00F00
F42DF01E00
B878F03C00
7DF4B9F400
3FE07FE000
1F802F4000
ENDCHAR
STARTCHAR wcircumflex
ENCODING 373
SWIDTH 700 0
DWIDTH 11 0
BBX 14 15 0 0
BITMAP
00050000
002F0000
007B4000
00B74000
01E38000
02C38000
00000000
38283800
7878BC00
78B8B840
38F8BFD0
3EFDFA80
3FBED000
3F6F8000
1E1E0000
ENDCHAR
STARTCHAR Ycircumflex
ENCODING 374
SWIDTH 851 0
DWIDTH 14 0
BBX 16 25 0 -5
BITMAP
00005000
0001F800
0003EC00
000B5D00
000A0D00
0BE002D0
3FF403D0
B4F403D0
D0F407C0
01F007C0
01F00B80
02E00F80
02D02F80
03D03F40
03E0EB40
02FFCF69
00BE1FFD
0001BF90
000BFE00
002F5E00
00B82D00
00F03C00
00F0B400
00FFE000
006F8000
ENDCHAR
STARTCHAR ycircumflex
ENCODING 375
SWIDTH 479 0
DWIDTH 8 0
BBX 10 23 0 -8
BITMAP
001000
00F800
02E800
03AC00
0B1D00
0E1D00
000000
1D2C00
2D3C00
3C7800
3CB800
38F490
7EF7D0
3FBF40
2DB800
02F000
0BE000
2ED000
76C000
A3C000
E74000
FF0000
790000
ENDCHAR
STARTCHAR Ydieresis
ENCODING 376
SWIDTH 851 0
DWIDTH 14 0
BBX 16 23 0 -5
BITMAP
00064900
000B9F00
000B5E00
0BE002D0
3FF403D0
B4F403D0
D0F407C0
01F007C0
01F00B80
02E00F80
02D02F80
03D03F40
03E0EB40
02FFCF69
00BE1FFD
0001BF90
000BFE00
002F5E00
00B82D00
00F03C00
00F0B400
00FFE000
006F8000
ENDCHAR
STARTCHAR Zacute
ENCODING 377
SWIDTH 721 0
DWIDTH 12 0
BBX 14 19 0 0
BITMAP
00001D00
0000BD00
0002F400
00074000
01BFE900
0FFFFF40
2E003E00
3C00BC00
3C00F400
2D02F000
0403D000
000B8000
001F4000
003E0000
00BC0000
01F80010
6FF901E0
BFFFFFC0
7E06FE00
ENDCHAR
STARTCHAR zacute
ENCODING 378
SWIDTH 445 0
DWIDTH 7 0
BBX 8 14 1 0
BITMAP
0074
00B4
01E0
02C0
0240
0000
FFF4
BFF4
0B90
7D00
B402
F41F
BFFD
2FE0
ENDCHAR
STARTCHAR Zdotaccent
ENCODING 379
SWIDTH 721 0
DWIDTH 12 0
BBX 14 18 0 0
BITMAP
00064000
000FC000
000B4000
01BFE900
0FFFFF40
2E003E00
3C00BC00
3C00F400
2D02F000
0403D000
000B8000
001F4000
003E0000
00BC0000
01F80010
6FF901E0
BFFFFFC0
7E06FE00
ENDCHAR
STARTCHAR zdotaccent
ENCODING 380
SWIDTH 445 0
DWIDTH 7 0
BBX 8 12 1 0
BITMAP
0680
0BC0
0780
0000
FFF4
BFF4
0B90
7D00
B402
F41F
BFFD
2FE0
ENDCHAR
STARTCHAR Zcaron
ENCODING 381
SWIDTH 721 0
DWIDTH 12 0
BBX 14 20 0 0
BITMAP
00141000
00387400
002DE000
000FD000
000B4000
01BFE900
0FFFFF40
2E003E00
3C00BC00
3C00F400
2D02F000
0403D000
000B8000
001F4000
003E0000
00BC0000
01F80010
6FF901E0
BFFFFFC0
7E06FE00
ENDCHAR
STARTCHAR zcaron
ENCODING 382
SWIDTH 445 0
DWIDTH 7 0
BBX 8 15 1 0
BITMAP
0414
1D3C
1E74
0EE0
0BD0
0780
0000
FFF4
BFF4
0B90
7D00
B402
F41F
BFFD
2FE0
ENDCHAR
STARTCHAR uni018F
ENCODING 399
SWIDTH 792 0
DWIDTH 13 0
BBX 12 15 1 0
BITMAP
01BE40
0FFFE0
2E01F4
2400BC
00007D
00003D
00003D
7FFFFD
FFFFFC
F4007C
F400B8
B801F0
7D07E0
2FFF80
06F900
ENDCHAR
STARTCHAR florin
ENCODING 402
SWIDTH 478 0
DWIDTH 8 0
BBX 10 18 -1 -5
BITMAP
001BD0
003F90
007800
00B400
00B400
1FFF80
1FFE40
00F000
01E000
01E000
02E000
02D000
02D000
03D000
03C000
07C000
FF4000
A90000
ENDCHAR
STARTCHAR Ohorn
ENCODING 416
SWIDTH 816 0
DWIDTH 13 0
BBX 13 17 1 0
BITMAP
00000380
00000B80
00BFFF40
03FFFD00
0F80BC00
2E003D00
3D002E00
78002E00
B8002E00
F4002E00
F4002E00
F4003D00
B8007C00
BC00F400
3E02E000
1FFF8000
06F90000
ENDCHAR
STARTCHAR ohorn
ENCODING 417
SWIDTH 451 0
DWIDTH 7 0
BBX 10 10 0 0
BITMAP
000700
000F00
0BFE00
2FF800
3CF840
78BFD0
783E80
787800
3FF000
1B9000
ENDCHAR
STARTCHAR Uhorn
ENCODING 431
SWIDTH 890 0
DWIDTH 14 0
BBX 17 17 0 0
BITMAP
0000000A00
0000001E00
0BE002FE00
2FF003F800
B4F403E000
D0F407D000
00F407C000
01F00BC000
02E00B8000
02E00F8000
03D01F4000
03D02F4000
07C07F4000
07C0EF0240
07D6CF9B00
03FF4BFD00
01F906F400
ENDCHAR
STARTCHAR uhorn
ENCODING 432
SWIDTH 512 0
DWIDTH 8 0
BBX 10 10 0 0
BITMAP
0001C0
0002C0
1D2F80
2D3D00
3C7800
3CB400
38F420
7EF4B0
3FBFD0
2D2E40
ENDCHAR
STARTCHAR uni01C4
ENCODING 452
SWIDTH 1531 0
DWIDTH 25 0
BBX 26 20 1 0
BITMAP
00000000141000
00000000387400
000000002DE000
000000000FC000
000000000B4000
06FE4001BFE900
1FFFE01FFFFF40
1501F82E003E00
05007C3C00BC00
0F003D3C00F400
1F002E2C02F000
2E002E0403D000
2D002E000B8000
3D003D001F4000
7C007D003E0000
7C00B800BC0000
7C01F401F40000
B80BE06FF901D0
BFFF40BFFFFF80
6FE8007E06FE00
ENDCHAR
STARTCHAR uni01C5
ENCODING 453
SWIDTH 1191 0
DWIDTH 19 0
BBX 19 15 1 0
BITMAP
06FE400404
1FFFE00E2C
1501F80E78
05007C0BB0
0F003D07D0
1F002E0380
2E002E0000
2D002EBFF4
3D003D7FF4
7C007D0BD0
7C00B82E00
7C01F47800
B80BE0F000
BFFF41FFF4
6FE801FFF4
ENDCHAR
STARTCHAR uni01C6
ENCODING 454
SWIDTH 895 0
DWIDTH 14 0
BBX 17 15 0 0
BITMAP
000B0D1C00
000F0E3C00
000F0E7400
001E0BE000
001E07D000
001D024000
002D000000
02FCBFF800
0FFCBFF800
2E3807D000
3C782D0000
78B4B80240
78F5F81B40
7FFFFFFD00
2E2E1FE400
ENDCHAR
STARTCHAR uni01C7
ENCODING 455
SWIDTH 1276 0
DWIDTH 20 0
BBX 22 17 -1 -2
BITMAP
0006F801BF90
002FFE0FFFE0
007D1F2E07D0
00B80F3C0780
00F40F3C0B80
01F00E3C0B80
01F000180B40
01E000001F40
02E00001FF00
02E0000BEF00
02E0002F5E00
02D0007C2D00
2FE900B43C00
BFFFFFF07800
7E06FEF5F000
000000BFD000
0000002A4000
ENDCHAR
STARTCHAR uni01C8
ENCODING 456
SWIDTH 927 0
DWIDTH 15 0
BBX 18 23 -1 -8
BITMAP
0006F90000
001FFF0000
007D0B8000
00B8079900
00F407BE00
01F0076D00
01F0010000
01E0002C00
02E0003C00
02E0003C00
02E0003800
02D0007800
2FE900B9E0
BFFFFFFF80
7E06FEBD00
000001F400
000007F000
00001EE000
000039D000
0000B2C000
0000A78000
0000BF4000
00007D0000
ENDCHAR
STARTCHAR uni01C9
ENCODING 457
SWIDTH 610 0
DWIDTH 10 0
BBX 11 24 1 -8
BITMAP
02D000
0FE000
1DA000
2CA000
38AA40
74EF80
B5DB40
B28000
F34B00
FB0F00
FD0F00
F81E00
F42E24
B0BEB4
7FFFD0
2F6E00
00BC00
02F800
07B800
0D7400
2CB000
39E000
3FC000
1F4000
ENDCHAR
STARTCHAR uni01CA
ENCODING 458
SWIDTH 1497 0
DWIDTH 24 0
BBX 24 17 0 -2
BITMAP
0BD06E406FFA
3FF1FFC2FFFF
B5F747D7D03D
D1FA03DB403D
01FC07CB403D
01F807C7803C
02F40B81007C
02F00B8001F8
02E00F401BF8
03D00F407EB4
03D01F01F4F0
07C01F03D1E0
07C01F0B82D0
07C00FFF83C0
078006FB8B80
00000007FE00
00000001A800
ENDCHAR
STARTCHAR uni01CB
ENCODING 459
SWIDTH 1138 0
DWIDTH 18 0
BBX 20 23 0 -8
BITMAP
07D06E4000
2FE1FFC000
75F347D000
E1F603D1A0
81FC07C2F0
01F807C1E0
02F40B8000
02F00B81D0
02E00F42D0
03D00F42D0
03D01F02D0
07C01F03C2
07C01F0BDF
07C00FFFF8
078006EBE0
0000000F80
0000003F40
000000EB00
000002CE00
0000035D00
0000072C00
000007F800
000002E000
ENDCHAR
STARTCHAR uni01CC
ENCODING 460
SWIDTH 750 0
DWIDTH 12 0
BBX 14 20 0 -8
BITMAP
00001900
00003F00
00002D00
00000000
1D2D2D00
2DFD2D00
3EFD3C00
3F7C3C00
3E3C3860
7D78BAE0
3C7FFF80
282EBD00
0001F400
0007F000
001EE000
0039E000
0072D000
00B3C000
00BF4000
003D0000
ENDCHAR
STARTCHAR Gcaron
ENCODING 486
SWIDTH 811 0
DWIDTH 13 0
BBX 14 28 1 -8
BITMAP
00101000
0038B000
002DE000
001FC000
000B4000
006F9000
03FFF000
0F80B400
2E00B800
3D00B800
7800B400
B8001000
F4000000
F4000000
F407FC00
B806FC00
7C003C10
3F4079E0
1FFFFF80
01BEBE00
0001F400
0007F000
001EE000
0039E000
0072D000
00B3C000
00BF4000
007D0000
ENDCHAR
STARTCHAR gcaron
ENCODING 487
SWIDTH 479 0
DWIDTH 8 0
BBX 10 23 0 -8
BITMAP
014100
038B40
02CE00
02ED00
01F800
00E000
000000
02D400
0FFC00
2E3800
3C7800
78B490
78FBD0
7FFF40
2EF800
02F000
0BE000
2ED000
76D000
A3C000
E74000
FF0000
7D0000
ENDCHAR
STARTCHAR uni01EA
ENCODING 490
SWIDTH 816 0
DWIDTH 13 0
BBX 12 19 1 -4
BITMAP
00BF90
07FFF4
0F80BC
2E003D
7C002E
B8002E
B8002E
F4002E
F4003D
F8007C
B800B8
7D02F4
2FAFD0
0BFE40
00B400
00E000
00F000
00BF40
001900
ENDCHAR
STARTCHAR uni01EB
ENCODING 491
SWIDTH 451 0
DWIDTH 7 0
BBX 10 13 0 -5
BITMAP
0BD000
2FF400
3CF800
78BFD0
783F80
787800
3EF400
1FD000
074000
0E0000
0E0000
0BF000
019000
ENDCHAR
STARTCHAR Aringacute
ENCODING 506
SWIDTH 786 0
DWIDTH 13 0
BBX 15 23 1 0
BITMAP
00000010
000000B8
0001A2E0
0003F940
00076C00
00076C00
0003F800
0001A000
001BFE00
01FFFF40
07E40500
0F807800
2E00B800
7D00F400
B800F400
F801F000
F402F000
F403E000
F407E000
F80BE050
BD2FE1E0
3FF9FF80
1BE0BE00
ENDCHAR
STARTCHAR aringacute
ENCODING 507
SWIDTH 470 0
DWIDTH 8 0
BBX 11 16 0 0
BITMAP
000010
0000B4
00B9E0
02FD40
038D00
02FC00
01F400
000000
02D400
0FFC00
2E3800
3C7800
78B450
78F5D0
7FFF80
2E2E00
ENDCHAR
STARTCHAR AEacute
ENCODING 508
SWIDTH 1015 0
DWIDTH 16 0
BBX 18 19 1 0
BITMAP
0000007400
000002F400
00000BD000
00000D0000
002F4BFF00
01FF6FFE00
07F43C0000
1F807C0000
2E00B80000
7D00B80000
B800F40000
F801FFFC00
F402FFF800
F402F00000
F403F00000
F40BF00000
BC1EF802D0
3FFC7FFF80
0BE01BF900
ENDCHAR
STARTCHAR aeacute
ENCODING 509
SWIDTH 653 0
DWIDTH 10 0
BBX 13 14 0 0
BITMAP
0000A000
0001E000
0002D000
00074000
00060000
00000000
02F7E000
0FFFF400
2E3C7400
7C78B000
787F9140
78BD0B40
3FEFFE00
1F4BE400
ENDCHAR
STARTCHAR Oslashacute
ENCODING 510
SWIDTH 816 0
DWIDTH 13 0
BBX 12 21 1 -2
BITMAP
0001D0
000BD0
002F40
003B80
00BF80
03FFF4
0F8BBC
2E0E3D
3D1D2E
781D2E
B82C2E
F4382E
F4782E
F4743D
B8B07C
BCE0F4
7EE2E0
1FFF80
07F900
03C000
038000
ENDCHAR
STARTCHAR oslashacute
ENCODING 511
SWIDTH 459 0
DWIDTH 7 0
BBX 10 16 0 -2
BITMAP
00D000
02E000
03C000
074000
099000
00C000
0BE000
2FF800
3EBC00
7A6FD0
7A7E80
7B7800
3FF400
1FD000
060000
090000
ENDCHAR
STARTCHAR uni0200
ENCODING 512
SWIDTH 786 0
DWIDTH 13 0
BBX 14 19 1 0
BITMAP
001CA000
002DB400
000E7800
00062800
001BFE00
01FFFF40
07E40500
0F807800
2E00B800
7D00F400
B800F400
F801F000
F402F000
F403E000
F407E000
F80BE050
BD2FE1E0
3FF9FF80
1BE0BE00
ENDCHAR
STARTCHAR uni0201
ENCODING 513
SWIDTH 470 0
DWIDTH 8 0
BBX 10 14 0 0
BITMAP
28A000
2DF400
1E7400
0B2800
031C00
000000
02D400
0FFC00
2E3800
3C7800
78B450
78F5D0
7FFF80
2E2E00
ENDCHAR
STARTCHAR uni0202
ENCODING 514
SWIDTH 786 0
DWIDTH 13 0
BBX 14 19 1 0
BITMAP
0002A800
000FFE00
001E0F00
00040100
001BFE00
01FFFF40
07E40500
0F807800
2E00B800
7D00F400
B800F400
F801F000
F402F000
F403E000
F407E000
F80BE050
BD2FE1E0
3FF9FF80
1BE0BE00
ENDCHAR
STARTCHAR uni0203
ENCODING 515
SWIDTH 470 0
DWIDTH 8 0
BBX 10 13 0 0
BITMAP
01A800
07FF00
0F4B40
0D0740
000000
02D400
0FFC00
2E3800
3C7800
78B450
78F5D0
7FFF80
2E2E00
ENDCHAR
STARTCHAR uni0204
ENCODING 516
SWIDTH 686 0
DWIDTH 11 0
BBX 13 19 0 0
BITMAP
00728000
00B6D000
0039E000
0018A000
006FE000
02FFF800
07D03D00
0F802D00
0F402D00
0BC01400
02FD0000
07FD0000
2F400000
7D000000
7C000000
7C000000
3E001BC0
1FFFFF80
02BFE500
ENDCHAR
STARTCHAR uni0205
ENCODING 517
SWIDTH 393 0
DWIDTH 6 0
BBX 9 14 0 0
BITMAP
75C000
7AE000
3CE000
1D7000
092400
000000
07D000
2FF000
3CB000
79E000
7F8240
7D1B40
3FFD00
0BE400
ENDCHAR
STARTCHAR uni0206
ENCODING 518
SWIDTH 686 0
DWIDTH 11 0
BBX 13 19 0 0
BITMAP
000AA000
003FF800
00783C00
00100400
006FE000
02FFF800
07D03D00
0F802D00
0F402D00
0BC01400
02FD0000
07FD0000
2F400000
7D000000
7C000000
7C000000
3E001BC0
1FFFFF80
02BFE500
ENDCHAR
STARTCHAR uni0207
ENCODING 519
SWIDTH 393 0
DWIDTH 6 0
BBX 9 13 0 0
BITMAP
02A400
1FFD00
2D1E00
280A00
000000
07D000
2FF000
3CB000
79E000
7F8240
7D1B40
3FFD00
0BE400
ENDCHAR
STARTCHAR uni0208
ENCODING 520
SWIDTH 495 0
DWIDTH 8 0
BBX 9 19 0 0
BITMAP
0B2800
0B6C00
079D00
028A00
1FFF80
1BFF40
00F000
01F000
01F000
02E000
02E000
02D000
03D000
03D000
07C000
07C000
078000
AFF800
FFF800
ENDCHAR
STARTCHAR uni0209
ENCODING 521
SWIDTH 246 0
DWIDTH 4 0
BBX 7 14 -1 0
BITMAP
E340
F7C0
B6D0
38E0
1860
0000
0740
0B40
0F00
0F00
1E08
1E2C
0FF4
0790
ENDCHAR
STARTCHAR uni020A
ENCODING 522
SWIDTH 495 0
DWIDTH 8 0
BBX 9 19 0 0
BITMAP
00A900
03FF80
0783C0
010140
1FFF80
1BFF40
00F000
01F000
01F000
02E000
02E000
02D000
03D000
03D000
07C000
07C000
078000
AFF800
FFF800
ENDCHAR
STARTCHAR uni020B
ENCODING 523
SWIDTH 246 0
DWIDTH 4 0
BBX 7 13 -1 0
BITMAP
0690
2FF8
787C
701C
0000
0740
0B40
0F00
0F00
1E08
1E2C
0FF4
0790
ENDCHAR
STARTCHAR uni020C
ENCODING 524
SWIDTH 816 0
DWIDTH 13 0
BBX 12 19 1 0
BITMAP
01D700
01E740
00B380
007180
00BF80
03FFF4
0F80BC
2E003D
3D002E
78002E
B8002E
F4002E
F4002E
F4003D
B8007C
BC00F4
3E02E0
1FFF80
06F900
ENDCHAR
STARTCHAR uni020D
ENCODING 525
SWIDTH 451 0
DWIDTH 7 0
BBX 10 14 0 0
BITMAP
72C000
BAD000
3CE000
1CB000
093400
000000
0BE000
2FF400
3CF840
78BFD0
783E80
787800
3FF000
1B9000
ENDCHAR
STARTCHAR uni020E
ENCODING 526
SWIDTH 816 0
DWIDTH 13 0
BBX 12 19 1 0
BITMAP
001A80
00BFF0
00E0B4
004010
00BF80
03FFF4
0F80BC
2E003D
3D002E
78002E
B8002E
F4002E
F4002E
F4003D
B8007C
BC00F4
3E02E0
1FFF80
06F900
ENDCHAR
STARTCHAR uni020F
ENCODING 527
SWIDTH 451 0
DWIDTH 7 0
BBX 10 13 0 0
BITMAP
06A400
1FFD00
2D2E00
280D00
000000
0BE000
2FF400
3CF840
78BFD0
783E80
787800
3FF000
1B9000
ENDCHAR
STARTCHAR uni0210
ENCODING 528
SWIDTH 880 0
DWIDTH 14 0
BBX 15 19 1 0
BITMAP
00A38000
00F3C000
0075D000
00249000
006FE000
03FFFC00
0F807E00
2D142F00
787C1F00
B4782E00
B0B83D00
E0B9B800
E2FFD000
E2FF8000
E1F2E000
F1F1F404
B6E0BC2C
3FD03FF4
1B801B90
ENDCHAR
STARTCHAR uni0211
ENCODING 529
SWIDTH 455 0
DWIDTH 7 0
BBX 10 14 0 0
BITMAP
38D000
3DF000
2DB400
0E3800
061800
000000
1D2D00
2DBD00
3DFD00
3B6D90
3E2FD0
7D1E40
3C0000
280000
ENDCHAR
STARTCHAR uni0212
ENCODING 530
SWIDTH 880 0
DWIDTH 14 0
BBX 15 19 1 0
BITMAP
001A9000
007FF400
00B47C00
00501400
006FE000
03FFFC00
0F807E00
2D142F00
787C1F00
B4782E00
B0B83D00
E0B9B800
E2FFD000
E2FF8000
E1F2E000
F1F1F404
B6E0BC2C
3FD03FF4
1B801B90
ENDCHAR
STARTCHAR uni0213
ENCODING 531
SWIDTH 455 0
DWIDTH 7 0
BBX 10 13 0 0
BITMAP
01A400
0BFE00
1E1F00
1C0700
000000
1D2D00
2DBD00
3DFD00
3B6D90
3E2FD0
7D1E40
3C0000
280000
ENDCHAR
STARTCHAR uni0214
ENCODING 532
SWIDTH 890 0
DWIDTH 14 0
BBX 17 19 0 0
BITMAP
001CB00000
002DB40000
000E380000
0006280000
0BE002C000
2FF003D000
B4F403D000
D0F407C000
00F407C000
01F00BC000
02E00B8000
02E00F8000
03D01F4000
03D02F4000
07C07F4000
07C0EF0240
07D6CF9B00
03FF4BFD00
01F906F400
ENDCHAR
STARTCHAR uni0215
ENCODING 533
SWIDTH 462 0
DWIDTH 7 0
BBX 10 14 0 0
BITMAP
38E000
3DF000
2DB400
0E3800
061800
000000
1D2C00
2D3C00
3C7800
3CB400
38F450
7EF5D0
3FBF80
2D3D00
ENDCHAR
STARTCHAR uni0216
ENCODING 534
SWIDTH 890 0
DWIDTH 14 0
BBX 17 19 0 0
BITMAP
0002A80000
000FFE0000
001E0B4000
0004010000
0BE002C000
2FF003D000
B4F403D000
D0F407C000
00F407C000
01F00BC000
02E00B8000
02E00F8000
03D01F4000
03D02F4000
07C07F4000
07C0EF0240
07D6CF9B00
03FF4BFD00
01F906F400
ENDCHAR
STARTCHAR uni0217
ENCODING 535
SWIDTH 462 0
DWIDTH 7 0
BBX 10 13 0 0
BITMAP
01A800
0BFE00
1E1F00
1C0700
000000
1D2C00
2D3C00
3C7800
3CB400
38F450
7EF5D0
3FBF80
2D3D00
ENDCHAR
STARTCHAR uni0218
ENCODING 536
SWIDTH 693 0
DWIDTH 11 0
BBX 11 20 0 -5
BITMAP
00BF90
07FFF4
0F807C
1F003C
1F003C
0F8014
0BF400
02FF40
002FE0
1402F4
7800F4
7800B4
7D01F0
2FFFD0
06FE40
000000
00A000
00F000
00E000
009000
ENDCHAR
STARTCHAR uni0219
ENCODING 537
SWIDTH 427 0
DWIDTH 7 0
BBX 9 13 0 -5
BITMAP
02C000
078000
0B8000
1FD000
39F180
B5FB80
DFFF40
0BF900
000000
074000
074000
070000
060000
ENDCHAR
STARTCHAR uni021A
ENCODING 538
SWIDTH 697 0
DWIDTH 11 0
BBX 15 20 0 -5
BITMAP
01AFFFE4
1FFFFFF4
3D0B8000
780B8000
780F4000
380F4000
001F0000
001F0000
002E0000
002E0000
002D0000
003D0000
003D0000
007D0000
00380000
00000000
00340000
00780000
00740000
00700000
ENDCHAR
STARTCHAR uni021B
ENCODING 539
SWIDTH 393 0
DWIDTH 6 0
BBX 9 20 0 -5
BITMAP
00B400
02FC00
03AC00
0B6800
0B3800
0E7000
1ED000
FFFC00
BFE800
2D0000
2D0000
2D0140
1E0B40
0FFE00
06F400
000000
034000
078000
074000
070000
ENDCHAR
STARTCHAR uni022A
ENCODING 554
SWIDTH 816 0
DWIDTH 13 0
BBX 12 21 1 0
BITMAP
002FE0
003FE0
000000
006490
00B9F0
00B5D0
00BF80
03FFF4
0F80BC
2E003D
3D002E
78002E
B8002E
F4002E
F4002E
F4003D
B8007C
BC00F4
3E02E0
1FFF80
06F900
ENDCHAR
STARTCHAR uni022B
ENCODING 555
SWIDTH 451 0
DWIDTH 7 0
BBX 10 15 0 0
BITMAP
0BF800
0BFC00
000000
092800
1F3D00
1E3800
000000
0BE000
2FF400
3CF840
78BFD0
783E80
787800
3FF000
1B9000
ENDCHAR
STARTCHAR uni022C
ENCODING 556
SWIDTH 816 0
DWIDTH 13 0
BBX 12 21 1 0
BITMAP
002FE0
003FE0
001400
00BD34
01EBF4
0042E0
00BF80
03FFF4
0F80BC
2E003D
3D002E
78002E
B8002E
F4002E
F4002E
F4003D
B8007C
BC00F4
3E02E0
1FFF80
06F900
ENDCHAR
STARTCHAR uni022D
ENCODING 557
SWIDTH 451 0
DWIDTH 7 0
BBX 10 15 0 0
BITMAP
07F800
0BFC00
050000
1F8A00
3AFE00
107800
000000
0BE000
2FF400
3CF840
78BFD0
783E80
787800
3FF000
1B9000
ENDCHAR
STARTCHAR uni0230
ENCODING 560
SWIDTH 816 0
DWIDTH 13 0
BBX 12 21 1 0
BITMAP
002FE0
003FE0
000000
000A00
001F40
001F00
00BF80
03FFF4
0F80BC
2E003D
3D002E
78002E
B8002E
F4002E
F4002E
F4003D
B8007C
BC00F4
3E02E0
1FFF80
06F900
ENDCHAR
STARTCHAR uni0231
ENCODING 561
SWIDTH 451 0
DWIDTH 7 0
BBX 10 15 0 0
BITMAP
0BF800
0BFC00
000000
019000
03E000
02D000
000000
0BE000
2FF400
3CF840
78BFD0
783E80
787800
3FF000
1B9000
ENDCHAR
STARTCHAR uni0232
ENCODING 562
SWIDTH 851 0
DWIDTH 14 0
BBX 16 22 0 -5
BITMAP
0007F900
000BFD00
0BE002D0
3FF403D0
B4F403D0
D0F407C0
01F007C0
01F00B80
02E00F80
02D02F80
03D03F40
03E0EB40
02FFCF69
00BE1FFD
0001BF90
000BFE00
002F5E00
00B82D00
00F03C00
00F0B400
00FFE000
006F8000
ENDCHAR
STARTCHAR uni0233
ENCODING 563
SWIDTH 479 0
DWIDTH 8 0
BBX 10 19 0 -8
BITMAP
0BF800
0BFC00
000000
1D2C00
2D3C00
3C7800
3CB800
38F490
7EF7D0
3FBF40
2DB800
02F000
0BE000
2ED000
76C000
A3C000
E74000
FF0000
790000
ENDCHAR
STARTCHAR uni0237
ENCODING 567
SWIDTH 254 0
DWIDTH 4 0
BBX 10 16 -4 -8
BITMAP
001D00
002D00
003C00
003C00
003C60
003AE0
007F80
007D00
01F400
07F000
0EF000
28E000
75D000
B3C000
BF4000
2E0000
ENDCHAR
STARTCHAR uni0259
ENCODING 601
SWIDTH 458 0
DWIDTH 7 0
BBX 7 8 0 0
BITMAP
1FD0
3FF4
0078
2FFC
7FFC
7878
3FF4
1BD0
ENDCHAR
STARTCHAR uni02BC
ENCODING 700
SWIDTH 600 0
DWIDTH 10 0
BBX 3 4 4 9
BITMAP
70
B4
B0
90
ENDCHAR
STARTCHAR circumflex
ENCODING 710
SWIDTH 600 0
DWIDTH 10 0
BBX 6 6 2 9
BITMAP
0100
0F80
1EC0
39D0
B5D0
A0D0
ENDCHAR
STARTCHAR caron
ENCODING 711
SWIDTH 600 0
DWIDTH 10 0
BBX 5 6 3 9
BITMAP
4040
E2C0
E380
BB00
7E00
3800
ENDCHAR
STARTCHAR uni02C9
ENCODING 713
SWIDTH 600 0
DWIDTH 10 0
BBX 6 2 2 9
BITMAP
7F90
BFD0
ENDCHAR
STARTCHAR breve
ENCODING 728
SWIDTH 600 0
DWIDTH 10 0
BBX 8 4 1 9
BITMAP
340D
7C2D
2FF8
0BE0
ENDCHAR
STARTCHAR dotaccent
ENCODING 729
SWIDTH 600 0
DWIDTH 10 0
BBX 4 3 3 9
BITMAP
28
7D
78
ENDCHAR
STARTCHAR ring
ENCODING 730
SWIDTH 600 0
DWIDTH 10 0
BBX 5 5 3 9
BITMAP
7D00
BF00
D740
FF00
7D00
ENDCHAR
STARTCHAR ogonek
ENCODING 731
SWIDTH 600 0
DWIDTH 10 0
BBX 5 6 2 -4
BITMAP
1400
7800
B000
B000
BF40
2E00
ENDCHAR
STARTCHAR tilde
ENCODING 732
SWIDTH 600 0
DWIDTH 10 0
BBX 8 4 1 9
BITMAP
0500
2F4D
7AFD
10B4
ENDCHAR
STARTCHAR hungarumlaut
ENCODING 733
SWIDTH 600 0
DWIDTH 10 0
BBX 6 5 3 9
BITMAP
38E0
79E0
B6C0
E380
C700
ENDCHAR
STARTCHAR gravecomb
ENCODING 768
SWIDTH 0 0
DWIDTH 0 0
BBX 4 5 -8 9
BITMAP
70
B8
3C
1D
06
ENDCHAR
STARTCHAR acutecomb
ENCODING 769
SWIDTH 0 0
DWIDTH 0 0
BBX 4 5 -6 9
BITMAP
0B
0F
2D
38
70
ENDCHAR
STARTCHAR uni0302
ENCODING 770
SWIDTH 0 0
DWIDTH 0 0
BBX 6 6 -8 9
BITMAP
0140
07C0
0ED0
2DE0
38E0
74A0
ENDCHAR
STARTCHAR tildecomb
ENCODING 771
SWIDTH 0 0
DWIDTH 0 0
BBX 7 4 -8 9
BITMAP
1400
7E28
FBF8
41E0
ENDCHAR
STARTCHAR uni0304
ENCODING 772
SWIDTH 0 0
DWIDTH 0 0
BBX 6 2 -8 9
BITMAP
2FE0
7FE0
ENDCHAR
STARTCHAR uni0306
ENCODING 774
SWIDTH 0 0
DWIDTH 0 0
BBX 7 4 -8 9
BITMAP
A028
B478
7FF4
1F90
ENDCHAR
STARTCHAR uni0307
ENCODING 775
SWIDTH 0 0
DWIDTH 0 0
BBX 3 3 -6 9
BITMAP
64
F8
B4
ENDCHAR
STARTCHAR uni0308
ENCODING 776
SWIDTH 0 0
DWIDTH 0 0
BBX 7 3 -8 9
BITMAP
28A0
7CF4
78E0
ENDCHAR
STARTCHAR hookabovecomb
ENCODING 777
SWIDTH 0 0
DWIDTH 0 0
BBX 4 5 -6 9
BITMAP
B8
BD
0E
7D
78
ENDCHAR
STARTCHAR uni030A
ENCODING 778
SWIDTH 0 0
DWIDTH 0 0
BBX 5 5 -7 9
BITMAP
2E00
7F40
B380
7F40
2E00
ENDCHAR
STARTCHAR uni030B
ENCODING 779
SWIDTH 0 0
DWIDTH 0 0
BBX 6 5 -7 9
BITMAP
2CB0
3DF0
79E0
B2C0
9240
ENDCHAR
STARTCHAR uni030C
ENCODING 780
SWIDTH 0 0
DWIDTH 0 0
BBX 6 6 -7 9
BITMAP
5050
B1E0
B2C0
7740
3F00
2D00
ENDCHAR
STARTCHAR uni030F
ENCODING 783
SWIDTH 0 0
DWIDTH 0 0
BBX 7 5 -9 9
BITMAP
75C0
7AD0
3CE0
1DB0
0934
ENDCHAR
STARTCHAR uni0311
ENCODING 785
SWIDTH 0 0
DWIDTH 0 0
BBX 7 4 -8 9
BITMAP
1A90
7FF4
B4B8
A028
ENDCHAR
STARTCHAR uni0312
ENCODING 786
SWIDTH 0 0
DWIDTH 0 0
BBX 3 4 -6 9
BITMAP
34
78
74
70
ENDCHAR
STARTCHAR uni031B
ENCODING 795
SWIDTH 0 0
DWIDTH 0 0
BBX 3 4 -5 6
BITMAP
28
38
F4
D0
ENDCHAR
STARTCHAR dotbelowcomb
ENCODING 803
SWIDTH 0 0
DWIDTH 0 0
BBX 4 3 -8 -4
BITMAP
28
7D
78
ENDCHAR
STARTCHAR uni0324
ENCODING 804
SWIDTH 0 0
DWIDTH 0 0
BBX 6 3 -9 -4
BITMAP
6190
F6E0
B1D0
ENDCHAR
STARTCHAR uni0326
ENCODING 806
SWIDTH 0 0
DWIDTH 0 0
BBX 2 4 -7 -5
BITMAP
A0
F0
E0
D0
ENDCHAR
STARTCHAR uni0327
ENCODING 807
SWIDTH 0 0
DWIDTH 0 0
BBX 5 5 -9 -4
BITMAP
2E40
2F80
02C0
7F80
7E00
ENDCHAR
STARTCHAR uni0328
ENCODING 808
SWIDTH 0 0
DWIDTH 0 0
BBX 5 6 -8 -4
BITMAP
0400
2C00
7400
7400
7F80
2F40
ENDCHAR
STARTCHAR uni032E
ENCODING 814
SWIDTH 0 0
DWIDTH 0 0
BBX 7 4 -10 -5
BITMAP
701C
783C
3FF4
1BD0
ENDCHAR
STARTCHAR uni0331
ENCODING 817
SWIDTH 0 0
DWIDTH 0 0
BBX 6 2 -9 -3
BITMAP
7FD0
7FD0
ENDCHAR
STARTCHAR uni0394
ENCODING 916
SWIDTH 700 0
DWIDTH 11 0
BBX 10 14 0 0
BITMAP
000D00
002E00
003F00
007F40
00F740
01E380
02D380
0383C0
0B42C0
0F02D0
1E01E0
3C01E0
7FFFF0
7FFFE0
ENDCHAR
STARTCHAR uni03A9
ENCODING 937
SWIDTH 816 0
DWIDTH 13 0
BBX 14 14 -1 0
BITMAP
000BF900
007FFF40
01F80BC0
02E003D0
07C002E0
0B8002E0
0B8002E0
0F4002E0
0F4003D0
0F8007C0
0B800F80
07D02E00
2FF4BFE0
7FF0BFE0
ENDCHAR
STARTCHAR uni03BC
ENCODING 956
SWIDTH 462 0
DWIDTH 7 0
BBX 10 12 0 -4
BITMAP
1D2C00
2D3C00
3C7800
3CB400
78F490
7AF5D0
7FBF80
7D3D00
B40000
B40000
B40000
740000
ENDCHAR
STARTCHAR pi
ENCODING 960
SWIDTH 496 0
DWIDTH 8 0
BBX 10 8 0 0
BITMAP
7FFF80
7EBE40
2D3C00
3C3C00
3C7810
7878B0
783FD0
741E40
ENDCHAR
STARTCHAR uni0400
ENCODING 1024
SWIDTH 686 0
DWIDTH 11 0
BBX 13 19 0 0
BITMAP
02D00000
02F40000
00BD0000
000B0000
006FE000
02FFF800
07D03D00
0F802D00
0F402D00
0BC01400
02FD0000
07FD0000
2F400000
7D000000
7C000000
7C000000
3E001BC0
1FFFFF80
02BFE500
ENDCHAR
STARTCHAR uni0401
ENCODING 1025
SWIDTH 686 0
DWIDTH 11 0
BBX 13 18 0 0
BITMAP
00286400
003DB800
002CB400
006FE000
02FFF800
07D03D00
0F802D00
0F402D00
0BC01400
02FD0000
07FD0000
2F400000
7D000000
7C000000
7C000000
3E001BC0
1FFFFF80
02BFE500
ENDCHAR
STARTCHAR uni0402
ENCODING 1026
SWIDTH 974 0
DWIDTH 16 0
BBX 18 23 0 -8
BITMAP
01AFFFE400
1FFFEAF400
3D0B800000
780B800000
780F400000
780F400000
241F000000
001F1BD000
002FBFF400
002FD0B800
002F00B800
003E00B5D0
003D00FFC0
007D00FE00
003801F800
000007F000
00001FE000
00007FD000
0000F7C000
0001E78000
0002DB4000
0002FE0000
0000B80000
ENDCHAR
STARTCHAR uni0403
ENCODING 1027
SWIDTH 635 0
DWIDTH 10 0
BBX 14 19 0 0
BITMAP
00003800
0001F800
0007E000
000A0000
02BFFFE0
1FFFAA90
3D3D0000
783C0000
787C0000
38B80000
00B80000
00B40000
00F40000
00F40000
01F00000
01F00000
02E00000
02E00000
01D00000
ENDCHAR
STARTCHAR uni0404
ENCODING 1028
SWIDTH 687 0
DWIDTH 11 0
BBX 12 15 1 0
BITMAP
00BF80
07FBE0
0F80F0
2F00F4
3D00F0
7C0090
B80000
FFFE00
FEA900
F40000
B80000
7C0000
3E401B
0FFBFE
01BFA4
ENDCHAR
STARTCHAR uni0405
ENCODING 1029
SWIDTH 693 0
DWIDTH 11 0
BBX 11 15 0 0
BITMAP
00BF90
07FFF4
0F807C
1F003C
1F003C
0F8014
0BF400
02FF40
002FE0
1402F4
7800F4
7800B4
7D01F0
2FFFD0
06FE40
ENDCHAR
STARTCHAR uni0406
ENCODING 1030
SWIDTH 495 0
DWIDTH 8 0
BBX 9 15 0 0
BITMAP
1FFF80
1BFF40
00F000
01F000
01F000
02E000
02E000
02D000
03D000
03D000
07C000
07C000
078000
AFF800
FFF800
ENDCHAR
STARTCHAR uni0407
ENCODING 1031
SWIDTH 495 0
DWIDTH 8 0
BBX 9 18 0 0
BITMAP
028640
03DB80
038B40
1FFF80
1BFF40
00F000
01F000
01F000
02E000
02E000
02D000
03D000
03D000
07C000
07C000
078000
AFF800
FFF800
ENDCHAR
STARTCHAR uni0408
ENCODING 1032
SWIDTH 743 0
DWIDTH 12 0
BBX 11 16 1 -1
BITMAP
06BFE8
2FFFFC
B900F4
B000F4
B400F0
7401F0
0001E0
001FE0
00BFD0
03E3D0
0B43C0
1E0780
2D0F40
2E2E00
1FFC00
07E000
ENDCHAR
STARTCHAR uni0409
ENCODING 1033
SWIDTH 1158 0
DWIDTH 19 0
BBX 19 15 0 0
BITMAP
00002D0000
00007D0000
0000BD0000
0000FD0000
0001FD0000
0002FD0000
0003FDBF80
0007BFFFE0
000B7D02F0
000F3D00F4
001E3D00F4
A03D2E01F0
B4B81F03E0
7FF00FFF80
1F8002F900
ENDCHAR
STARTCHAR uni040A
ENCODING 1034
SWIDTH 1182 0
DWIDTH 19 0
BBX 20 15 -1 0
BITMAP
02F401D000
0FFC02E000
2C3D02D000
743D03D000
203D03C000
003C078000
003C07AFE4
007C1BFFFD
07FFFF803E
06FEAF402E
00F40F402E
00F40F403D
01F00B80BC
02E007FFF4
01D001BE80
ENDCHAR
STARTCHAR uni040B
ENCODING 1035
SWIDTH 979 0
DWIDTH 16 0
BBX 18 15 0 0
BITMAP
01AFFFE400
1FFFEAF400
3D0B800000
780B800000
780F400000
780F400000
241F000000
001F1BD000
002FBFF400
002FD0B800
002F00B800
003E00F450
003D00F4E0
007D00FFC0
003800BE00
ENDCHAR
STARTCHAR uni040C
ENCODING 1036
SWIDTH 937 0
DWIDTH 15 0
BBX 17 19 0 0
BITMAP
0000007400
000001F400
00000BD000
00000E0000
01BF802D00
0FFFD03D00
2E0B807C00
3C0B80B800
3C0B41F000
2D0F43D000
040F5F8000
007FFD0000
007FF40000
001E7D0000
002E2F0000
602D0F4080
B87C0BD2C0
7FF803FF40
1BE001F900
ENDCHAR
STARTCHAR uni040D
ENCODING 1037
SWIDTH 890 0
DWIDTH 14 0
BBX 17 19 0 0
BITMAP
00B4000000
00BD000000
002F400000
0002800000
0BE002C000
2FF003D000
B4F403D000
D0F407C000
00F407C000
01F00BC000
02E00B8000
02E00F8000
03D01F4000
03D02F4000
07C07F4000
07C0EF0240
07D6CF9B00
03FF4BFD00
01F906F400
ENDCHAR
STARTCHAR uni040E
ENCODING 1038
SWIDTH 824 0
DWIDTH 13 0
BBX 15 23 0 -4
BITMAP
00000500
000E0E00
000FFD00
0007F400
0BD002C0
3FF003D0
74F407C0
00F007C0
01F00BC0
02E01F80
02E03F80
02E0BB40
01FBDF40
00BE4F68
00001FFC
0001FF90
001FFE00
007E6D00
00B42D00
00F03800
00F1F400
00BFE000
002A4000
ENDCHAR
STARTCHAR uni040F
ENCODING 1039
SWIDTH 890 0
DWIDTH 14 0
BBX 17 19 0 -4
BITMAP
0BE002C000
2FF003D000
B4F403D000
D0F407C000
00F407C000
01F00BC000
02E00B8000
02E00F8000
03D01F4000
03D02F4000
07C07F4000
07C0EF0240
07D6CF9B00
03FF4BFD00
01FD02F400
00B4000000
00F4000000
00F0000000
0050000000
ENDCHAR
STARTCHAR uni0410
ENCODING 1040
SWIDTH 786 0
DWIDTH 13 0
BBX 14 15 1 0
BITMAP
001BFE00
01FFFF40
07E40500
0F807800
2E00B800
7D00F400
B800F400
F801F000
F402F000
F403E000
F407E000
F80BE050
BD2FE1E0
3FF9FF80
1BE0BE00
ENDCHAR
STARTCHAR uni0411
ENCODING 1041
SWIDTH 917 0
DWIDTH 15 0
BBX 15 16 0 -1
BITMAP
01BFFFE0
1FFFAA90
3D1F0000
782E0000
782E0000
783D0000
383D0000
007EFE40
02FFEFE0
02FC02F4
00B800F4
00B800F4
00F402F0
00F40BD0
00F5BF40
00A1A400
ENDCHAR
STARTCHAR uni0412
ENCODING 1042
SWIDTH 827 0
DWIDTH 13 0
BBX 14 16 0 -1
BITMAP
01AFF900
1FFFFF80
7E4007E0
A44002F0
02E002E0
02D003E0
03D01F80
07C7FE00
0787F800
0B802F00
0B801F00
0F401F00
0F407E00
0FFFF800
1FFE9000
0E000000
ENDCHAR
STARTCHAR uni0413
ENCODING 1043
SWIDTH 635 0
DWIDTH 10 0
BBX 14 15 0 0
BITMAP
02BFFFE0
1FFFAA90
3D3D0000
783C0000
787C0000
38B80000
00B80000
00B40000
00F40000
00F40000
01F00000
01F00000
02E00000
02E00000
01D00000
ENDCHAR
STARTCHAR uni0414
ENCODING 1044
SWIDTH 964 0
DWIDTH 15 0
BBX 15 15 0 0
BITMAP
001BF900
02FFBFD0
07D006F0
010500F4
001E00B8
002D007C
003C007C
007C007C
00B8007C
00B400B8
00B400F4
2FF001F0
BBF807E0
BBEFFF80
6F42FE00
ENDCHAR
STARTCHAR uni0415
ENCODING 1045
SWIDTH 686 0
DWIDTH 11 0
BBX 13 15 0 0
BITMAP
006FE000
02FFF800
07D03D00
0F802D00
0F402D00
0BC01400
02FD0000
07FD0000
2F400000
7D000000
7C000000
7C000000
3E001BC0
1FFFFF80
02BFE500
ENDCHAR
STARTCHAR uni0416
ENCODING 1046
SWIDTH 1234 0
DWIDTH 20 0
BBX 21 15 0 0
BITMAP
02F803802F40
07FD07C0FFC0
051F07C1E280
000F4782D000
000B4B87C000
00078B4F4000
0003DBAE0000
0001FFF80000
0007FFF80000
001F5F3D0000
002E1E1E0000
107C2E0F4080
74B42D0BC2C0
7FE03D03FF40
2F802C01BD00
ENDCHAR
STARTCHAR uni0417
ENCODING 1047
SWIDTH 725 0
DWIDTH 12 0
BBX 10 15 1 0
BITMAP
01BE40
0FEFC0
2E03D0
2D02D0
2C02D0
1803C0
000B40
01FF80
02A6E0
0001F0
F001F0
F002E0
F80BD0
7FBF40
1BF900
ENDCHAR
STARTCHAR uni0418
ENCODING 1048
SWIDTH 890 0
DWIDTH 14 0
BBX 17 15 0 0
BITMAP
0BE002C000
2FF003D000
B4F403D000
D0F407C000
00F407C000
01F00BC000
02E00B8000
02E00F8000
03D01F4000
03D02F4000
07C07F4000
07C0EF0240
07D6CF9B00
03FF4BFD00
01F906F400
ENDCHAR
STARTCHAR uni0419
ENCODING 1049
SWIDTH 890 0
DWIDTH 14 0
BBX 17 19 0 0
BITMAP
0000010000
000A0B0000
000FFE0000
0006F40000
0BE002C000
2FF003D000
B4F403D000
D0F407C000
00F407C000
01F00BC000
02E00B8000
02E00F8000
03D01F4000
03D02F4000
07C07F4000
07C0EF0240
07D6CF9B00
03FF4BFD00
01F906F400
ENDCHAR
STARTCHAR uni041A
ENCODING 1050
SWIDTH 937 0
DWIDTH 15 0
BBX 17 15 0 0
BITMAP
01BF802D00
0FFFD03D00
2E0B807C00
3C0B80B800
3C0B41F000
2D0F43D000
040F5F8000
007FFD0000
007FF40000
001E7D0000
002E2F0000
602D0F4080
B87C0BD2C0
7FF803FF40
1BE001F900
ENDCHAR
STARTCHAR uni041B
ENCODING 1051
SWIDTH 861 0
DWIDTH 14 0
BBX 16 15 0 0
BITMAP
00002D00
00007D00
0000BD00
0000FD00
0001FD00
0002FD00
0003FD00
0007BD00
000B7D00
000F3D00
001E2D00
A03D2E06
B4B81F0E
7FF00FFC
1F8007E0
ENDCHAR
STARTCHAR uni041C
ENCODING 1052
SWIDTH 1133 0
DWIDTH 18 0
BBX 20 15 0 0
BITMAP
0002E01E00
0003E02F00
0007E03F00
000BE0BF00
000BE0FF00
000FE1EF00
000EE2DE00
001EE3DE00
002DF79E00
002CFB5E00
003CBB1F00
A078BE0F02
B4F0BD0F4B
BFE07C0BFD
2F803802E4
ENDCHAR
STARTCHAR uni041D
ENCODING 1053
SWIDTH 873 0
DWIDTH 14 0
BBX 17 15 -1 0
BITMAP
02F4002E00
1FFC00BF00
3C3D01E740
703D03C700
003D078B00
003C07AD00
007C0BF800
06FFFFE000
07FFAF4000
00B40F0000
00F40F0000
01F00F4080
01F00B82C0
02E007FF40
01D001F900
ENDCHAR
STARTCHAR uni041E
ENCODING 1054
SWIDTH 816 0
DWIDTH 13 0
BBX 12 15 1 0
BITMAP
00BF80
03FFF4
0F80BC
2E003D
3D002E
78002E
B8002E
F4002E
F4002E
F4003D
B8007C
BC00F4
3E02E0
1FFF80
06F900
ENDCHAR
STARTCHAR uni041F
ENCODING 1055
SWIDTH 892 0
DWIDTH 14 0
BBX 17 15 0 0
BITMAP
01AFFFEA00
1FFFABFF40
3D2D02D100
783D03D000
787C03D000
387C07C000
10B807C000
00B80B8000
00B40B4000
00F40F4000
00F40F0000
01F00F0240
01F00F4740
01F00BFE00
01E002F400
ENDCHAR
STARTCHAR uni0420
ENCODING 1056
SWIDTH 805 0
DWIDTH 13 0
BBX 13 16 0 -1
BITMAP
001BF800
00BFFF40
02E01F80
0B8007C0
0F0B07C0
1D1F07C0
2C1E0B80
382E1F40
38BFFD00
79FFE000
783C0000
787C0000
38780000
2DB80000
1FF40000
07E00000
ENDCHAR
STARTCHAR uni0421
ENCODING 1057
SWIDTH 686 0
DWIDTH 11 0
BBX 12 15 1 0
BITMAP
00BF80
07FFE0
0F81F0
2E00F4
7D00F0
7800A0
B80000
F40000
F40000
F40000
B80000
7C0000
3F401B
0FFFFE
01BF90
ENDCHAR
STARTCHAR uni0422
ENCODING 1058
SWIDTH 697 0
DWIDTH 11 0
BBX 15 15 0 0
BITMAP
01AFFFE4
1FFFFFF4
3D0B8000
780B8000
780F4000
380F4000
001F0000
001F0000
002E0000
002E0000
002D0000
003D0000
003D0000
007D0000
00380000
ENDCHAR
STARTCHAR uni0423
ENCODING 1059
SWIDTH 824 0
DWIDTH 13 0
BBX 15 19 0 -4
BITMAP
0BD002C0
3FF003D0
74F407C0
00F007C0
01F00BC0
02E01F80
02E03F80
02E0BB40
01FBDF40
00BE4F68
00001FFC
0001FF90
001FFE00
007E6D00
00B42D00
00F03800
00F1F400
00BFE000
002A4000
ENDCHAR
STARTCHAR uni0424
ENCODING 1060
SWIDTH 977 0
DWIDTH 16 0
BBX 15 21 1 -4
BITMAP
04000000
1FEAA000
06FFF000
0003C000
02A7C680
0FFFAFE0
2E1FF4F4
7C0BD0F4
B80B80F4
F40B40F4
F40F00F0
F42F01F0
F47F02E0
F5FF47C0
BFEFFF40
2A2DA900
003C0000
243C0000
3CB40000
2FF00000
0B900000
ENDCHAR
STARTCHAR uni0425
ENCODING 1061
SWIDTH 712 0
DWIDTH 11 0
BBX 14 15 0 0
BITMAP
1BD00B40
7FF02F00
E0F87D00
407DF400
003FE000
003F8000
002F0000
007F0000
00FF0000
02EF4000
0BCB8000
1F47C050
7E03D1D0
F802FF80
F000BD00
ENDCHAR
STARTCHAR uni0426
ENCODING 1062
SWIDTH 890 0
DWIDTH 14 0
BBX 16 21 0 -6
BITMAP
0BE002C0
2FF003D0
B4F403D0
D0F407C0
40F407C0
01F00BC0
02F00B80
02E00F80
03D01F40
03D02F40
07C03F40
07C0AF00
07C2CF92
03FF4BFF
01F902F8
00001FE0
00007ED0
0000F6C0
0001F780
0000FF40
00006900
ENDCHAR
STARTCHAR uni0427
ENCODING 1063
SWIDTH 773 0
DWIDTH 12 0
BBX 11 15 1 0
BITMAP
1E0038
2E0078
2E00B8
2E00B8
2E00F4
3D00F4
3D02F4
7C07F0
3E5FF0
2FFDF0
0BE5E0
0001E0
0002E0
0002E0
0001D0
ENDCHAR
STARTCHAR uni0428
ENCODING 1064
SWIDTH 1272 0
DWIDTH 20 0
BBX 23 15 0 0
BITMAP
0BE003801D00
2FF007C02D00
B4F407C03D00
D0F40B803D00
00F40B807C00
01F00F407C00
02E00F00BC00
02E01F00F800
03D02E01F800
03D03E02F400
07C0BD03F400
07C1ED0AF424
07D79E6CF9B4
03FF1FF4BFE0
01F80BD02F40
ENDCHAR
STARTCHAR uni0429
ENCODING 1065
SWIDTH 1272 0
DWIDTH 20 0
BBX 23 21 0 -6
BITMAP
0BE003801D00
2FF007C02D00
B4F407C03D00
D0F40B803D00
00F40B807C00
01F00F407C00
02E00F00B800
02E01F00F800
03D02E01F800
03D03E02F400
07C0BD03F400
07C1ED0AF400
07D79E6CFE74
03FF1FF47FF0
01F80BD01F80
00000000BE00
00000007ED00
0000000F6D00
0000000F3C00
0000000FF400
000000069000
ENDCHAR
STARTCHAR uni042A
ENCODING 1066
SWIDTH 863 0
DWIDTH 14 0
BBX 12 14 2 0
BITMAP
AAF800
FFF400
02E000
03D000
07EA90
0BFFF8
3F907D
2F402E
0F002E
0F003D
0F407C
0B80F8
03FBE0
01BE40
ENDCHAR
STARTCHAR uni042B
ENCODING 1067
SWIDTH 1078 0
DWIDTH 17 0
BBX 17 15 0 0
BITMAP
02C0000780
03D0000B80
07C0000B80
0780000B40
0B80000F40
0BAA900F00
1FFFF81F00
7F40BC1F00
6F003D2E00
1F003D2E00
1F003D2D00
0F00BC3D00
0F41F43D00
07FFE07C00
01FE403800
ENDCHAR
STARTCHAR uni042C
ENCODING 1068
SWIDTH 721 0
DWIDTH 12 0
BBX 12 15 0 0
BITMAP
02C000
03D000
07C000
078000
0B8000
0BAA90
1FFFF8
7F40BC
6F003D
1F003D
1F003D
0F00BC
0F41F4
07FFE0
01FE40
ENDCHAR
STARTCHAR uni042D
ENCODING 1069
SWIDTH 755 0
DWIDTH 12 0
BBX 12 15 0 0
BITMAP
01BF80
0BFBF4
1F40FC
18007D
00003E
00002E
00002E
01FFFE
01AABE
00003D
28007C
7C00B8
7C02F0
2FAFC0
0BF900
ENDCHAR
STARTCHAR uni042E
ENCODING 1070
SWIDTH 1246 0
DWIDTH 20 0
BBX 20 15 0 0
BITMAP
0BD0000B80
2FF006CBF4
B4F40FD0B8
D0F42DD07D
80F43EC03D
00F07F402E
00F0BE002E
01F6F8002E
1FFFF4003D
1FE9F4007C
02D0F400B8
03C0B801F4
07C07E07E0
0B802FFF80
074006F900
ENDCHAR
STARTCHAR uni042F
ENCODING 1071
SWIDTH 850 0
DWIDTH 14 0
BBX 16 15 0 0
BITMAP
002FEB40
00BEFF80
01F00B80
02D00F40
03D00F40
03D01F40
03D02F00
02F43F00
00FFFE00
001AFE00
0002EE00
500B5D05
B06E1E1E
BFF81FBC
2F900BE0
ENDCHAR
STARTCHAR uni0430
ENCODING 1072
SWIDTH 470 0
DWIDTH 8 0
BBX 10 8 0 0
BITMAP
02D400
0FFC00
2E3800
3C7800
78B450
78F5D0
7FFF80
2E2E00
ENDCHAR
STARTCHAR uni0431
ENCODING 1073
SWIDTH 473 0
DWIDTH 8 0
BBX 10 16 0 0
BITMAP
000400
01BD00
0BF800
0F0000
0F0000
078000
02E000
00B400
0BF800
2FFC00
3DBC50
787FE0
783E90
78B800
3FF000
1B9000
ENDCHAR
STARTCHAR uni0432
ENCODING 1074
SWIDTH 473 0
DWIDTH 8 0
BBX 9 16 1 0
BITMAP
02D000
0FE000
1DB000
3CA000
38E000
75D000
B68000
B70000
FB8000
FFE000
F6F540
F1FF80
F0BA40
F4F000
7FD000
2F4000
ENDCHAR
STARTCHAR uni0433
ENCODING 1075
SWIDTH 380 0
DWIDTH 6 0
BBX 8 8 0 0
BITMAP
1FD0
3FF0
11E0
07C0
2D02
781B
7EFD
2FE4
ENDCHAR
STARTCHAR uni0434
ENCODING 1076
SWIDTH 479 0
DWIDTH 8 0
BBX 10 16 0 -8
BITMAP
02D400
0FFC00
2E3800
3C7800
78B490
78FBD0
7FFF40
2EF800
02F000
0BE000
2ED000
76D000
A3C000
E74000
FF0000
7D0000
ENDCHAR
STARTCHAR uni0435
ENCODING 1077
SWIDTH 393 0
DWIDTH 6 0
BBX 9 8 0 0
BITMAP
07D000
2FF000
3CB000
79E000
7F8240
7D1B40
3FFD00
0BE400
ENDCHAR
STARTCHAR uni0436
ENCODING 1078
SWIDTH 717 0
DWIDTH 11 0
BBX 14 8 0 0
BITMAP
1F5D7D00
2FEDFF00
19FEDB00
01FFC500
75EF8050
B6EFC1D0
BF6DFF80
7E287E00
ENDCHAR
STARTCHAR uni0437
ENCODING 1079
SWIDTH 435 0
DWIDTH 7 0
BBX 10 16 -1 -8
BITMAP
02F800
0BFD00
051D00
002C00
01B410
0F91E0
0F8B80
02FD00
01F000
07F000
1DB000
38F000
71E000
B2C000
BF8000
7E0000
ENDCHAR
STARTCHAR uni0438
ENCODING 1080
SWIDTH 462 0
DWIDTH 7 0
BBX 10 8 0 0
BITMAP
1D2C00
2D3C00
3C7800
3CB400
38F450
7EF5D0
3FBF80
2D3D00
ENDCHAR
STARTCHAR uni0439
ENCODING 1081
SWIDTH 462 0
DWIDTH 7 0
BBX 10 13 0 0
BITMAP
040600
1E1D00
0FFC00
07E000
000000
1D2C00
2D3C00
3C7800
3CB400
38F450
7EF5D0
3FBF80
2D3D00
ENDCHAR
STARTCHAR uni043A
ENCODING 1082
SWIDTH 465 0
DWIDTH 7 0
BBX 10 8 0 0
BITMAP
1D7D00
2DFF00
3EDB00
3FC500
3F8050
7FC1D0
3DFF80
287E00
ENDCHAR
STARTCHAR uni043B
ENCODING 1083
SWIDTH 549 0
DWIDTH 9 0
BBX 11 8 0 0
BITMAP
003D00
007D00
00FD00
01FD00
B2ED14
F7AD78
FF1FE0
7D0B80
ENDCHAR
STARTCHAR uni043C
ENCODING 1084
SWIDTH 734 0
DWIDTH 12 0
BBX 14 8 0 0
BITMAP
00747800
00F8F800
01F9F800
02EBB800
B3AF7820
F76F38A0
FF2E3FC0
7D1D1E00
ENDCHAR
STARTCHAR uni043D
ENCODING 1085
SWIDTH 475 0
DWIDTH 8 0
BBX 10 8 0 0
BITMAP
1D1D00
2C2C00
3C3C00
3FF800
3EB850
7875E0
387F80
243E00
ENDCHAR
STARTCHAR uni043E
ENCODING 1086
SWIDTH 451 0
DWIDTH 7 0
BBX 10 8 0 0
BITMAP
0BE000
2FF400
3CF840
78BFD0
783E80
787800
3FF000
1B9000
ENDCHAR
STARTCHAR uni043F
ENCODING 1087
SWIDTH 496 0
DWIDTH 8 0
BBX 10 8 0 0
BITMAP
1D2D00
2DFD00
3EFD00
3F7C00
3E3C20
7D78B0
3C7FD0
282E40
ENDCHAR
STARTCHAR uni0440
ENCODING 1088
SWIDTH 481 0
DWIDTH 8 0
BBX 12 16 -2 -8
BITMAP
02DF40
03FFC0
03D3C0
03C3C0
03C785
07CB5E
0FEFFC
1FFAE0
2BC000
778000
778000
A74000
A74000
EB0000
BE0000
780000
ENDCHAR
STARTCHAR uni0441
ENCODING 1089
SWIDTH 368 0
DWIDTH 6 0
BBX 8 8 0 0
BITMAP
07D0
2FF0
3CB0
7850
7802
7C1E
3FFD
1BE0
ENDCHAR
STARTCHAR uni0442
ENCODING 1090
SWIDTH 744 0
DWIDTH 12 0
BBX 14 8 0 0
BITMAP
1D6C2D00
2DFDFD00
3EFEFD00
3F3F7C00
3E3E3820
7D7D78B0
3C3C7FD0
28282E40
ENDCHAR
STARTCHAR uni0443
ENCODING 1091
SWIDTH 479 0
DWIDTH 8 0
BBX 10 16 0 -8
BITMAP
1D2C00
2D3C00
3C7800
3CB800
38F490
7EF7D0
3FBF40
2DB800
02F000
0BE000
2ED000
76C000
A3C000
E74000
FF0000
790000
ENDCHAR
STARTCHAR uni0444
ENCODING 1092
SWIDTH 721 0
DWIDTH 12 0
BBX 14 20 0 -6
BITMAP
00050000
000F0000
000E0000
001E0000
002D0000
002C0000
02FDE000
0FBFB800
2D3D3C00
3C7C7C00
78B87850
78F8F5D0
7FFBFB80
2E7FBE00
00740000
00B40000
00B40000
00B40000
00B40000
00100000
ENDCHAR
STARTCHAR uni0445
ENCODING 1093
SWIDTH 529 0
DWIDTH 8 0
BBX 11 8 0 0
BITMAP
1F4B40
2FFF80
19F640
01F000
61F014
B6F074
BFFFE0
7E2F40
ENDCHAR
STARTCHAR uni0446
ENCODING 1094
SWIDTH 501 0
DWIDTH 8 0
BBX 10 13 0 -5
BITMAP
1D2C00
2D3C00
3C7800
3CB400
38F400
7EF4A0
3FBFD0
2D3E00
01F800
07B800
0E7400
0FE000
0B8000
ENDCHAR
STARTCHAR uni0447
ENCODING 1095
SWIDTH 555 0
DWIDTH 9 0
BBX 11 10 0 0
BITMAP
014000
03D000
07FBC0
0B7F80
0E1E00
1D7800
78F008
F1E078
D0FFF0
007F80
ENDCHAR
STARTCHAR uni0448
ENCODING 1096
SWIDTH 693 0
DWIDTH 11 0
BBX 13 8 0 0
BITMAP
1D283800
2D387800
3C78B400
3CB8F400
38F5F080
7EFBF2C0
3FBEFF40
2D3D7900
ENDCHAR
STARTCHAR uni0449
ENCODING 1097
SWIDTH 732 0
DWIDTH 12 0
BBX 14 13 0 -5
BITMAP
1D283800
2D387800
3C78B400
3CB8F000
38F5F000
7EFBF1D0
3FBEBFC0
2D3D7E00
0001F800
0007B400
000DB000
001FD000
000B8000
ENDCHAR
STARTCHAR uni044A
ENCODING 1098
SWIDTH 542 0
DWIDTH 9 0
BBX 11 8 0 0
BITMAP
7FD000
1F4000
1FB800
2FFE00
2E1E18
2D1E78
1FFFE0
07EF80
ENDCHAR
STARTCHAR uni044B
ENCODING 1099
SWIDTH 702 0
DWIDTH 11 0
BBX 13 8 1 0
BITMAP
7400E000
B402E000
F7D3D000
FFFBD000
F4BFC240
F0FBCB00
BFE2FD00
2F81F400
ENDCHAR
STARTCHAR uni044C
ENCODING 1100
SWIDTH 517 0
DWIDTH 8 0
BBX 10 8 1 0
BITMAP
740000
B40000
F7D000
FFF400
F4B490
F0F6D0
BFFF40
2FBD00
ENDCHAR
STARTCHAR uni044D
ENCODING 1101
SWIDTH 466 0
DWIDTH 7 0
BBX 10 8 0 0
BITMAP
1BE000
2EF800
003C50
03FFE0
22BE90
743C00
7EF800
1FD000
ENDCHAR
STARTCHAR uni044E
ENCODING 1102
SWIDTH 676 0
DWIDTH 11 0
BBX 13 8 0 0
BITMAP
1D0B9000
2C3FF000
3CB9F440
3FF4FFC0
3FF07E40
78B4B000
387FE000
241F8000
ENDCHAR
STARTCHAR uni044F
ENCODING 1103
SWIDTH 543 0
DWIDTH 9 0
BBX 11 8 0 0
BITMAP
02FB00
07EF00
074B00
075E00
B2FE14
F0AE38
FFCFF0
7E0B80
ENDCHAR
STARTCHAR uni0450
ENCODING 1104
SWIDTH 393 0
DWIDTH 6 0
BBX 9 14 0 0
BITMAP
1D0000
1E0000
0F0000
038000
018000
000000
07D000
2FF000
3CB000
79E000
7F8240
7D1B40
3FFD00
0BE400
ENDCHAR
STARTCHAR uni0451
ENCODING 1105
SWIDTH 393 0
DWIDTH 6 0
BBX 9 12 0 0
BITMAP
0A2800
1F3D00
1E2C00
000000
07D000
2FF000
3CB000
79E000
7F8240
7D1B40
3FFD00
0BE400
ENDCHAR
STARTCHAR uni0452
ENCODING 1106
SWIDTH 514 0
DWIDTH 8 0
BBX 10 23 0 -8
BITMAP
038000
078000
0B4000
3FFC00
2FA800
1E0000
2E0000
2D2D00
2DBD00
3EFD00
3F6D00
3E3C60
3D3DE0
3D3F80
287D00
00F400
03F400
0EB000
2CE000
35D000
72C000
7F8000
2E0000
ENDCHAR
STARTCHAR uni0453
ENCODING 1107
SWIDTH 380 0
DWIDTH 6 0
BBX 8 14 0 0
BITMAP
0074
00F4
01E0
02C0
0340
0000
1FD0
3FF0
11E0
07C0
2D02
781B
7EFD
2FE4
ENDCHAR
STARTCHAR uni0454
ENCODING 1108
SWIDTH 379 0
DWIDTH 6 0
BBX 8 8 0 0
BITMAP
0BE0
2FF4
3C24
7F80
7E82
7C0B
3FBD
0BE4
ENDCHAR
STARTCHAR uni0455
ENCODING 1109
SWIDTH 427 0
DWIDTH 7 0
BBX 9 8 0 0
BITMAP
02C000
078000
0B8000
1FD000
39F180
B5FB80
DFFF40
0BF900
ENDCHAR
STARTCHAR uni0456
ENCODING 1110
SWIDTH 246 0
DWIDTH 4 0
BBX 6 12 0 0
BITMAP
0F00
1F40
0A00
0000
1D00
2D00
3C00
3C00
7820
78B0
3FD0
1E40
ENDCHAR
STARTCHAR uni0457
ENCODING 1111
SWIDTH 246 0
DWIDTH 4 0
BBX 6 12 0 0
BITMAP
6190
F6E0
B1D0
0000
1D00
2D00
3C00
3C00
7820
78B0
3FD0
1E40
ENDCHAR
STARTCHAR uni0458
ENCODING 1112
SWIDTH 254 0
DWIDTH 4 0
BBX 10 20 -4 -8
BITMAP
001A00
002F00
002E00
000000
001D00
002D00
003C00
003C00
003C60
003AE0
007F80
007D00
01F400
07F000
0EF000
28E000
75D000
B3C000
BF4000
2E0000
ENDCHAR
STARTCHAR uni0459
ENCODING 1113
SWIDTH 794 0
DWIDTH 13 0
BBX 15 8 0 0
BITMAP
003D0000
007D0000
00FDB800
01FFFE00
B2EE1E18
F79D1E78
FF1FFFF0
7D07EF80
ENDCHAR
STARTCHAR uni045A
ENCODING 1114
SWIDTH 751 0
DWIDTH 12 0
BBX 14 8 0 0
BITMAP
1D1D0000
2C2C0000
3C3DF400
3FFFFC00
3EBC3C20
78783CB0
383FFFD0
241BEE40
ENDCHAR
STARTCHAR uni045B
ENCODING 1115
SWIDTH 502 0
DWIDTH 8 0
BBX 9 15 1 0
BITMAP
0E0000
1E0000
2D0000
BEA000
BFF000
780000
780000
B4B400
B6F400
FBF400
FDB000
F8F080
F4F2C0
F4FF40
A0B900
ENDCHAR
STARTCHAR uni045C
ENCODING 1116
SWIDTH 465 0
DWIDTH 7 0
BBX 10 14 0 0
BITMAP
001D00
002D00
003800
00B000
009000
000000
1D7D00
2DFF00
3EDB00
3FC500
3F8050
7FC1D0
3DFF80
287E00
ENDCHAR
STARTCHAR uni045D
ENCODING 1117
SWIDTH 462 0
DWIDTH 7 0
BBX 10 14 0 0
BITMAP
0E0000
0F0000
078000
02C000
00D000
000000
1D2C00
2D3C00
3C7800
3CB400
38F450
7EF5D0
3FBF80
2D3D00
ENDCHAR
STARTCHAR uni045E
ENCODING 1118
SWIDTH 479 0
DWIDTH 8 0
BBX 10 21 0 -8
BITMAP
040600
1E1D00
0FFC00
07E000
000000
1D2C00
2D3C00
3C7800
3CB800
38F490
7EF7D0
3FBF40
2DB800
02F000
0BE000
2ED000
76C000
A3C000
E74000
FF0000
790000
ENDCHAR
STARTCHAR uni045F
ENCODING 1119
SWIDTH 600 0
DWIDTH 10 0
BBX 10 10 0 -2
BITMAP
1D2C00
2D3C00
3C7800
3CB400
38F450
7EF5D0
3FBF80
2D3D00
1D0000
180000
ENDCHAR
STARTCHAR uni0462
ENCODING 1122
SWIDTH 721 0
DWIDTH 12 0
BBX 12 15 0 0
BITMAP
02C000
03D000
2BE800
3FFC00
078000
0BAA90
0FFFF8
7F40BC
6F003D
1F003D
1F003D
0F00BC
0F41F4
07FFE0
01FE40
ENDCHAR
STARTCHAR uni0463
ENCODING 1123
SWIDTH 517 0
DWIDTH 8 0
BBX 11 11 0 0
BITMAP
0B0000
1F0000
7F9000
7FE000
3C0000
3DF400
7FFC00
7D2D24
3C2DB4
2FFFD0
0BEF40
ENDCHAR
STARTCHAR uni046A
ENCODING 1130
SWIDTH 1234 0
DWIDTH 20 0
BBX 21 15 0 0
BITMAP
02FFFFFFFF00
02BFAAABFA00
001F0002E000
000B4003D000
000B8007C000
0007800F4000
0003D07E0000
0001FFF40000
0007FFF80000
001F5F3D0000
002E1E1E0000
107C2E0F4080
74B42D0BC2C0
7FE03D03FF40
2F802C01BD00
ENDCHAR
STARTCHAR uni046B
ENCODING 1131
SWIDTH 788 0
DWIDTH 13 0
BBX 15 15 0 0
BITMAP
0000B400
0001F400
0002F400
0003F400
0003B000
0007B000
000BB000
01EEBB80
01FDBF40
002CB400
003CB000
60BDF014
B5FEF878
BFDF7FF0
7E0E1B80
ENDCHAR
STARTCHAR uni0472
ENCODING 1138
SWIDTH 816 0
DWIDTH 13 0
BBX 12 15 1 0
BITMAP
00BF80
03FBF4
0F80BC
2E003D
3D002E
7C002E
BEA42E
FFFFFE
F81ABE
F4003D
B8007C
BC00F4
3E02E0
1FEF80
06F900
ENDCHAR
STARTCHAR uni0473
ENCODING 1139
SWIDTH 451 0
DWIDTH 7 0
BBX 10 8 0 0
BITMAP
0BE000
2FF400
3C3840
7D3FD0
7FFF80
79B800
3FF000
1B9000
ENDCHAR
STARTCHAR uni0474
ENCODING 1140
SWIDTH 797 0
DWIDTH 13 0
BBX 14 15 2 0
BITMAP
78003F90
B8007FE0
B800B850
F400F800
F400F400
F401F000
F402E000
F403D000
F407C000
F40B8000
B80F4000
B82E0000
7EBC0000
2FF40000
0B900000
ENDCHAR
STARTCHAR uni0475
ENCODING 1141
SWIDTH 420 0
DWIDTH 7 0
BBX 9 8 0 0
BITMAP
381F40
783E40
787800
38B400
3DE000
3ED000
3F8000
1E0000
ENDCHAR
STARTCHAR uni048A
ENCODING 1162
SWIDTH 890 0
DWIDTH 14 0
BBX 17 23 0 -3
BITMAP
0005070000
000F1F0000
000BFD0000
0002A40000
0000000000
0BE002C000
2FF003D000
B4F403D000
D0F407C000
00F407C000
01F00BC000
02E00B8000
02E00F8000
03D01F4000
03D02F4000
07C07F4000
07C0EF0240
07D6CF9B00
03FF4FFD00
01F906F400
000001E000
000007C000
0000074000
ENDCHAR
STARTCHAR uni048B
ENCODING 1163
SWIDTH 462 0
DWIDTH 7 0
BBX 10 16 0 -3
BITMAP
040600
1E1D00
0FF800
069000
000000
1D2C00
2D3C00
3C7800
3CB400
38F450
7EF5D0
3FBF80
2D7E00
003C00
00B400
00A000
ENDCHAR
STARTCHAR uni048C
ENCODING 1164
SWIDTH 721 0
DWIDTH 12 0
BBX 12 15 0 0
BITMAP
02C000
03D000
2BE800
3FFC00
078000
0BAA90
0FFFF8
7F40BC
6F003D
1F003D
1F003D
0F00BC
0F41F4
07FFE0
01FE40
ENDCHAR
STARTCHAR uni048D
ENCODING 1165
SWIDTH 517 0
DWIDTH 8 0
BBX 11 11 0 0
BITMAP
0B0000
1F0000
7F9000
7FE000
3C0000
3DF400
7FFC00
7D2D24
3C2DB4
2FFFD0
0BEF40
ENDCHAR
STARTCHAR uni048E
ENCODING 1166
SWIDTH 805 0
DWIDTH 13 0
BBX 14 16 0 -1
BITMAP
001BF800
00BEFF00
02E01F80
0B8007C0
0F0B07C0
1D1F2BC0
2C1E2FC0
382E1FF0
38BFFD10
79FFE400
783C0000
787C0000
38780000
2DB80000
1FF40000
07E00000
ENDCHAR
STARTCHAR uni048F
ENCODING 1167
SWIDTH 481 0
DWIDTH 8 0
BBX 12 16 -2 -8
BITMAP
02DF40
03FFC0
03D3C0
03C3C0
03DB86
0BDF5E
0FEFFC
1FFAE0
3BC000
778000
778000
A74000
A74000
EB0000
BE0000
780000
ENDCHAR
STARTCHAR uni0490
ENCODING 1168
SWIDTH 645 0
DWIDTH 10 0
BBX 15 19 0 0
BITMAP
00000010
000000B4
000000B0
000000F0
02BFFFE0
1FFFAA90
3D3D0000
787C0000
787C0000
38B80000
00B80000
00B40000
00F40000
00F40000
01F00000
01F00000
02E00000
02E00000
01D00000
ENDCHAR
STARTCHAR uni0491
ENCODING 1169
SWIDTH 394 0
DWIDTH 6 0
BBX 7 11 0 0
BITMAP
0014
0028
0038
1FF4
2EA0
3C00
3800
3800
7800
3800
2400
ENDCHAR
STARTCHAR uni0492
ENCODING 1170
SWIDTH 635 0
DWIDTH 10 0
BBX 14 15 0 0
BITMAP
01BFFFE0
1FFFAA90
3D3D0000
783C0000
787C0000
78780000
14B80000
07FF8000
06FE4000
00F40000
01F00000
01F00000
01F00000
02E00000
01D00000
ENDCHAR
STARTCHAR uni0493
ENCODING 1171
SWIDTH 380 0
DWIDTH 6 0
BBX 8 8 0 0
BITMAP
1FD0
3FF0
11E0
6BD0
7F82
795B
7EFD
2FE0
ENDCHAR
STARTCHAR uni0494
ENCODING 1172
SWIDTH 884 0
DWIDTH 14 0
BBX 16 23 0 -8
BITMAP
01BFFFE0
1FFFAA90
3E7D0000
783C0000
787C0000
78BC0000
24B80000
00B8BE00
00FBEF80
00FE07C0
01F803C0
01F007CA
02E007FE
02E007F8
01D00BD0
00002F40
0000BF40
0002EF00
00079E00
000B2D00
000E3C00
000FF400
0007D000
ENDCHAR
STARTCHAR uni0495
ENCODING 1173
SWIDTH 441 0
DWIDTH 7 0
BBX 9 13 0 -5
BITMAP
1FD000
3FF000
11E000
07C000
2D0000
780280
7EFF40
2FF800
07F000
1EE000
29D000
3F8000
1E0000
ENDCHAR
STARTCHAR uni0496
ENCODING 1174
SWIDTH 1234 0
DWIDTH 20 0
BBX 22 21 0 -6
BITMAP
02F803802F40
07FD07C0FFC0
051F07C1E280
000F4782D000
000B4B87C000
00078B4F4000
0003DBAE0000
0001FFF40000
0007FFF80000
001F5F3D0000
002E1E1F0000
107C2E0F4000
74B42D0BD4A0
7FE03D03FFD0
2F802C00BF40
00000001FC00
0000000BBC00
0000001E3800
0000002DB400
0000002FE000
0000000A8000
ENDCHAR
STARTCHAR uni0497
ENCODING 1175
SWIDTH 803 0
DWIDTH 13 0
BBX 15 13 0 -5
BITMAP
1F5D7D00
2FEDFF00
19FEDB00
01FFC500
75EF8000
B6EFC024
BF6DFFF4
7E287F80
00007E00
0001ED00
00035C00
0003F800
0002E000
ENDCHAR
STARTCHAR uni0498
ENCODING 1176
SWIDTH 725 0
DWIDTH 12 0
BBX 10 21 1 -6
BITMAP
01BE40
0FEFC0
2E03D0
2D02D0
2C02D0
1803C0
000B40
01FF80
02A6E0
0001F0
F001F0
F002F0
F80BD0
7FBF80
1BFE00
01FD00
0BAC00
1F3C00
1E7800
1FF000
069000
ENDCHAR
STARTCHAR uni0499
ENCODING 1177
SWIDTH 445 0
DWIDTH 7 0
BBX 9 13 0 -5
BITMAP
0BE000
3FF400
347400
02E000
06E000
60B680
7FFF40
2FF800
02E000
0EE000
29D000
2FC000
1E4000
ENDCHAR
STARTCHAR uni049A
ENCODING 1178
SWIDTH 937 0
DWIDTH 15 0
BBX 17 21 0 -6
BITMAP
01BF802D00
0FEFD03D00
2E0B807C00
3C0B80B800
3C0B41F000
2D0F43D000
180F5F8000
002FFD0000
007FF40000
001E7D0000
002E2F0000
702D0F4000
B47C0BD6C0
3FF803FF80
1BE001FD00
000007F400
00002FB000
00007CF000
000079E000
00007FC000
00001A0000
ENDCHAR
STARTCHAR uni049B
ENCODING 1179
SWIDTH 531 0
DWIDTH 9 0
BBX 10 13 0 -5
BITMAP
1D7D00
2DFF00
3EDB00
3BC500
3F8000
7FC070
3EFFE0
287F40
00BD00
02EC00
072800
0BF400
03D000
ENDCHAR
STARTCHAR uni049C
ENCODING 1180
SWIDTH 937 0
DWIDTH 15 0
BBX 17 15 0 0
BITMAP
01BF802D00
0FEFD03D00
2E0B807C00
3C0B80B800
3C0B61F000
2D0F77D000
180F7F8000
002FFD0000
007FF40000
001EBD0000
002EBF0000
602DAF4080
B47C9BD2C0
7FF807FF40
1BE001F900
ENDCHAR
STARTCHAR uni049D
ENCODING 1181
SWIDTH 485 0
DWIDTH 8 0
BBX 10 8 0 0
BITMAP
1D2E00
2CBF40
3EE740
3FD100
3FC060
7FD1E0
3AFFC0
247E00
ENDCHAR
STARTCHAR uni049E
ENCODING 1182
SWIDTH 937 0
DWIDTH 15 0
BBX 17 15 0 0
BITMAP
01BF802D00
0FEFD03D00
2E0B807C00
3C0B80B800
3CBFF1F000
2DAFE3D000
180F5F8000
002FFD0000
007FF40000
001E7D0000
002E2F0000
602D0F4080
B47C0BD2C0
7FF803FF40
1BE001F900
ENDCHAR
STARTCHAR uni049F
ENCODING 1183
SWIDTH 473 0
DWIDTH 8 0
BBX 9 15 1 0
BITMAP
0E0000
1E0000
2D0000
BFA000
BFF000
780000
780000
B5B800
B7FC00
FB5C00
FF1400
FF0140
FF4780
FBEE00
A1F800
ENDCHAR
STARTCHAR uni04A0
ENCODING 1184
SWIDTH 937 0
DWIDTH 15 0
BBX 17 15 0 0
BITMAP
0005402D00
1FFFD03D00
1FFF807C00
000B80B800
000B41F000
000F43D000
000F5F8000
002FFD0000
007FF40000
001E7D0000
002E2F0000
602D0F4080
B47C0BD2C0
7FF803FF40
1BE001F900
ENDCHAR
STARTCHAR uni04A1
ENCODING 1185
SWIDTH 555 0
DWIDTH 9 0
BBX 11 8 0 0
BITMAP
7F8B80
2FAFD0
07B8D0
0BB480
0BF408
0BF82C
0BBFF4
074B90
ENDCHAR
STARTCHAR uni04A2
ENCODING 1186
SWIDTH 907 0
DWIDTH 15 0
BBX 18 21 -1 -6
BITMAP
02F4002E00
1FFC00BF00
383D01E740
703D03C700
003D078B00
003C079D00
007C0BF800
06FEAFD000
07FFAF4000
00B40F0000
00F40F4000
01F00F4000
01F00BD5D0
02E007FFC0
01D001FE00
000002F800
00000FB800
00002D7400
00003DB000
00003FE000
00001A4000
ENDCHAR
STARTCHAR uni04A3
ENCODING 1187
SWIDTH 515 0
DWIDTH 8 0
BBX 10 13 0 -5
BITMAP
1D1D00
2C2C00
3C3C00
3FF800
3EF400
787860
387FD0
242F40
00BC00
03A800
0B3400
0BF000
079000
ENDCHAR
STARTCHAR uni04A4
ENCODING 1188
SWIDTH 873 0
DWIDTH 14 0
BBX 19 15 -1 0
BITMAP
02F4002FE4
0FFC00BEA4
3C3D01F000
703D03D000
103D07C000
003C078000
007C0B8000
06FEBF4000
07FFAF4000
00B40F0000
00F40F0000
01F00F4080
01F00B82C0
02E007FF40
01D001F900
ENDCHAR
STARTCHAR uni04A5
ENCODING 1189
SWIDTH 475 0
DWIDTH 8 0
BBX 10 9 0 0
BITMAP
000140
1D1F80
2C2D00
3C3C00
3FF800
3EB850
7875E0
387F80
243E00
ENDCHAR
STARTCHAR uni04A8
ENCODING 1192
SWIDTH 997 0
DWIDTH 16 0
BBX 17 15 1 0
BITMAP
00B8000000
07FC000000
0F906F8000
2E02FFF000
7D07D1F800
7C0F40BC00
B81F007C00
F41F007C00
F41E007C00
F41F00B800
B81F01F400
7C0B87E000
3F47FF97C0
1FFFFFFF40
02BFABE800
ENDCHAR
STARTCHAR uni04A9
ENCODING 1193
SWIDTH 574 0
DWIDTH 9 0
BBX 11 8 0 0
BITMAP
0B8000
2E6F40
3C7B80
78B280
78E388
78FB6C
3EFFF4
1BEF90
ENDCHAR
STARTCHAR uni04AA
ENCODING 1194
SWIDTH 781 0
DWIDTH 13 0
BBX 13 23 1 -8
BITMAP
00BF8000
03FBE000
0F80F000
2E00F400
3D00F000
7800A000
B8000000
F4000000
F4000000
F4000000
B8000000
BC002080
3E01F7C0
1FEFFE00
06FEF800
0002E000
000BD000
002ED000
0076C000
00E38000
00D74000
00FE0000
00B80000
ENDCHAR
STARTCHAR uni04AB
ENCODING 1195
SWIDTH 431 0
DWIDTH 7 0
BBX 9 13 0 -5
BITMAP
07D000
2FF000
3CB000
785000
780000
780240
3FFF40
1FF800
07E000
1ED000
39C000
3F8000
2E0000
ENDCHAR
STARTCHAR uni04AC
ENCODING 1196
SWIDTH 697 0
DWIDTH 11 0
BBX 15 20 0 -5
BITMAP
01AFFFE4
1FEFEAF4
3D0B8000
780B8000
780F4000
280F4000
001F0000
001F0000
002E0000
002E0000
003D0000
003D0000
003E4000
003F8000
003F4000
01FB4000
03DB0000
078E0000
07FD0000
02F40000
ENDCHAR
STARTCHAR uni04AD
ENCODING 1197
SWIDTH 784 0
DWIDTH 13 0
BBX 14 13 0 -5
BITMAP
1D6C2D00
2DFDFD00
3EFEFD00
3F3F7C00
3E3E3800
7D7D7870
3C3C3FE0
28282F40
0000BD00
0002EC00
00076800
0007F400
0003D000
ENDCHAR
STARTCHAR uni04AE
ENCODING 1198
SWIDTH 677 0
DWIDTH 11 0
BBX 10 15 2 0
BITMAP
B401E0
B803E0
7C07C0
3D0F40
2F2E00
1F7D00
0BF800
07F000
03E000
02D000
03D000
03C000
03C000
03C000
03C000
ENDCHAR
STARTCHAR uni04AF
ENCODING 1199
SWIDTH 472 0
DWIDTH 8 0
BBX 9 14 1 -6
BITMAP
E0B000
E1F400
F1F400
F1FF80
B2FE40
B78000
BF0000
7D0000
780000
780000
780000
7C0000
3C0000
140000
ENDCHAR
STARTCHAR uni04B0
ENCODING 1200
SWIDTH 677 0
DWIDTH 11 0
BBX 10 15 2 0
BITMAP
B401E0
B803E0
7C07C0
3D0F40
2E1F00
1F7D00
0FF800
07F400
03E000
2FFD00
2BE800
03D000
03C000
03C000
03C000
ENDCHAR
STARTCHAR uni04B1
ENCODING 1201
SWIDTH 472 0
DWIDTH 8 0
BBX 10 14 0 -6
BITMAP
382C00
387D00
3C7D00
3C7FE0
2CBF90
2DE000
2FC000
2F4000
BFE000
6F9000
1E0000
1E0000
0F0000
050000
ENDCHAR
STARTCHAR uni04B2
ENCODING 1202
SWIDTH 716 0
DWIDTH 11 0
BBX 14 21 0 -6
BITMAP
1BD00B40
7FF02F00
E0F87D00
407DF400
003FE000
003F8000
002F0000
007F0000
00FF4000
02EF4000
0BCB8000
1F47C000
7E03E5D0
F802FFC0
F000FE00
0002F800
000FB800
002D7400
003CF000
003FD000
001A4000
ENDCHAR
STARTCHAR uni04B3
ENCODING 1203
SWIDTH 601 0
DWIDTH 10 0
BBX 12 13 0 -5
BITMAP
1F5B40
2FFF80
19F640
01F000
61F000
B6F019
BFFEFC
7E7FE0
001F40
00BB40
01DB00
01FD00
00B400
ENDCHAR
STARTCHAR uni04B4
ENCODING 1204
SWIDTH 1040 0
DWIDTH 17 0
BBX 19 21 0 -6
BITMAP
01BFFE1D00
1FFFEA2E00
3D07C02E00
780B802E00
780B803D00
380F403D00
101F007C00
001F00BC00
002E00F800
002E01F800
003D02F800
003D07B800
003D1DBD14
002FB87FF4
000BE01FD0
000000BF00
000002EE00
00000B9E00
00000F6D00
00000BF800
000002A000
ENDCHAR
STARTCHAR uni04B5
ENCODING 1205
SWIDTH 501 0
DWIDTH 8 0
BBX 10 16 0 -5
BITMAP
07FD00
06A900
000000
1D2C00
2D3C00
3C7800
3CB400
38F400
7EF4A0
3FBFD0
2D3E00
01F800
07B800
0E7400
0FE000
0B8000
ENDCHAR
STARTCHAR uni04B6
ENCODING 1206
SWIDTH 804 0
DWIDTH 13 0
BBX 14 21 1 -6
BITMAP
1E003800
2E007800
2E00B800
2E00B800
2E00F800
3D00F400
3D02F400
7C07F000
3E5FF000
2FFDF000
0BE5E000
0001E000
0001F9A0
0000BFE0
00002F40
0001FC00
000BBC00
001E3800
002DB400
001FF000
000A8000
ENDCHAR
STARTCHAR uni04B7
ENCODING 1207
SWIDTH 631 0
DWIDTH 10 0
BBX 12 14 0 -5
BITMAP
02D000
03FBC0
077F80
0E1E00
1D7800
38F000
B1E00A
D0FFFD
00BFE0
001FC0
007B80
00A740
00FF00
007800
ENDCHAR
STARTCHAR uni04B8
ENCODING 1208
SWIDTH 773 0
DWIDTH 12 0
BBX 11 15 1 0
BITMAP
1E0038
2E0078
2E00B8
2E00B8
2E10F4
3D70F4
3D72F4
7CA7F0
3EBFF0
2FFDF0
0BE5E0
00D1E0
0082E0
0002E0
0001D0
ENDCHAR
STARTCHAR uni04B9
ENCODING 1209
SWIDTH 575 0
DWIDTH 9 0
BBX 11 10 0 0
BITMAP
000400
02DC00
07FAD0
07BFC0
0F6B40
1D2C00
38B408
B0F06C
90BFF4
006F90
ENDCHAR
STARTCHAR uni04BA
ENCODING 1210
SWIDTH 755 0
DWIDTH 12 0
BBX 13 15 1 0
BITMAP
0B000000
0F400000
1F000000
1F000000
1E000000
2E000000
2D000000
3D6F8000
3EFBE000
7F41F000
7D01F000
BC01F080
B802E2C0
B802FF40
B401F900
ENDCHAR
STARTCHAR uni04BB
ENCODING 1211
SWIDTH 502 0
DWIDTH 8 0
BBX 9 16 1 0
BITMAP
02D000
0FE000
1DB000
2CA000
38D000
75C000
B78000
BB0000
FDB400
F6F400
F7F400
FDB000
F8F080
F4F2C0
F4FF40
E0B900
ENDCHAR
STARTCHAR uni04BC
ENCODING 1212
SWIDTH 808 0
DWIDTH 13 0
BBX 14 15 1 0
BITMAP
000BF400
007FFD00
00F81F00
02E00F00
03D00F00
07C00F00
EB801F00
FFFFFE00
6FEAA900
0F400000
0F800000
0BC00000
03E401B0
01FFBFE0
001BFA40
ENDCHAR
STARTCHAR uni04BD
ENCODING 1213
SWIDTH 483 0
DWIDTH 8 0
BBX 10 8 0 0
BITMAP
01B800
03FE00
0B4E00
5F2D00
BFF460
1F81E0
07FF80
01FD00
ENDCHAR
STARTCHAR uni04BE
ENCODING 1214
SWIDTH 808 0
DWIDTH 13 0
BBX 14 19 1 -4
BITMAP
000BF400
007FFD00
00F81F00
02E00F00
03D00F00
07C00F00
EB801F00
FFFFFE00
6FEAA900
0F400000
0F800000
0BC00000
03E401B0
01FFBFE0
003FFA40
00740000
00B00000
00BE4000
002F0000
ENDCHAR
STARTCHAR uni04BF
ENCODING 1215
SWIDTH 483 0
DWIDTH 8 0
BBX 10 13 0 -5
BITMAP
01B800
03FD00
0B4E00
5F2D00
BFB810
6F90E0
0B9BD0
02FE40
00B400
00E000
00E000
00BF00
001900
ENDCHAR
STARTCHAR uni04C0
ENCODING 1216
SWIDTH 495 0
DWIDTH 8 0
BBX 9 15 0 0
BITMAP
1FFF80
1BFF40
00F000
01F000
01F000
02E000
02E000
02D000
03D000
03D000
07C000
07C000
078000
AFF800
FFF800
ENDCHAR
STARTCHAR uni04C1
ENCODING 1217
SWIDTH 1234 0
DWIDTH 20 0
BBX 21 19 0 0
BITMAP
000000040000
00001D1D0000
00001FFC0000
00000BE00000
02F803802F40
07FD07C0FFC0
051F07C1E280
000F4782D000
000B4B87C000
00078B4F4000
0003DBAE0000
0001FFF80000
0007FFF80000
001F5F3D0000
002E1E1E0000
107C2E0F4080
74B42D0BC2C0
7FE03D03FF40
2F802C01BD00
ENDCHAR
STARTCHAR uni04C2
ENCODING 1218
SWIDTH 717 0
DWIDTH 11 0
BBX 14 13 0 0
BITMAP
00506000
00E0A000
00FFD000
002E4000
00000000
1F5D7D00
2FEDFF00
19FEDB00
01FFC500
75EF8050
B6EFC1D0
BF6DFF80
7E287E00
ENDCHAR
STARTCHAR uni04C3
ENCODING 1219
SWIDTH 937 0
DWIDTH 15 0
BBX 17 21 0 -6
BITMAP
01BF802D00
0FEFD03D00
2E0B807C00
3C0B80B800
3C0B41F000
2D0F43D000
180F5F8000
002FFD0000
007FF40000
001E7D0000
002E2F0000
702D0F4000
B47C0BD6C0
3FF803FF80
1BE001FD00
000007F400
00002FB000
00007CF000
000079E000
00007FC000
00001A0000
ENDCHAR
STARTCHAR uni04C4
ENCODING 1220
SWIDTH 531 0
DWIDTH 9 0
BBX 10 13 0 -5
BITMAP
1D7D00
2DFF00
3EDB00
3BC500
3F8000
7FC070
3EFFE0
287F40
00BD00
02EC00
072800
0BF400
03D000
ENDCHAR
STARTCHAR uni04C5
ENCODING 1221
SWIDTH 861 0
DWIDTH 14 0
BBX 16 18 0 -3
BITMAP
00002D00
00007D00
0000BD00
0000FD00
0001FD00
0002FD00
0003FD00
0007BD00
000B7D00
000F3D00
001E2D00
A03D2E06
B4B81F0E
7FF00FF8
1F8007E0
000003C0
00000B40
00000E00
ENDCHAR
STARTCHAR uni04C6
ENCODING 1222
SWIDTH 549 0
DWIDTH 9 0
BBX 11 11 0 -3
BITMAP
003D00
007D00
00FD00
01FD00
B2ED14
F7AD78
FF1FF0
7D0FC0
000B40
001E00
002800
ENDCHAR
STARTCHAR uni04C7
ENCODING 1223
SWIDTH 907 0
DWIDTH 15 0
BBX 18 21 -1 -6
BITMAP
02F4002E00
1FFC00BF00
383D01E740
703D03C700
003D078B00
003C079D00
007C0BF800
06FEAFD000
07FFAF4000
00B40F0000
00F40F4000
01F00F4000
01F00BD5D0
02E007FFC0
01D001FE00
000002F800
00000FB800
00002D7400
00003DB000
00003FE000
00001A4000
ENDCHAR
STARTCHAR uni04C8
ENCODING 1224
SWIDTH 515 0
DWIDTH 8 0
BBX 10 13 0 -5
BITMAP
1D1D00
2C2C00
3C3C00
3FF800
3EF400
787860
387FD0
242F40
00BC00
03A800
0B3400
0BF000
079000
ENDCHAR
STARTCHAR uni04C9
ENCODING 1225
SWIDTH 873 0
DWIDTH 14 0
BBX 17 19 -1 -4
BITMAP
02F4002E00
1FFC00BF00
383D01E740
703D03C700
003D078B00
003C079D00
007C0BF800
06FEAFD000
07FFAF4000
00B40F0000
00F40F4000
01F00F40C0
01F00B9780
02E007FF00
01D001FD00
000000B400
000001E000
000002D000
0000014000
ENDCHAR
STARTCHAR uni04CA
ENCODING 1226
SWIDTH 475 0
DWIDTH 8 0
BBX 10 11 0 -3
BITMAP
1D1D00
2C2C00
3C3C00
3FF800
3EB850
7875E0
387F80
243F00
002D00
007800
00A000
ENDCHAR
STARTCHAR uni04CB
ENCODING 1227
SWIDTH 773 0
DWIDTH 12 0
BBX 11 21 1 -6
BITMAP
1E0038
2E0078
2E00B8
2E00B8
2E00F4
3D00F4
3D02F4
7C07F0
3E5FF0
2FFDF0
0BE5E0
0001E0
0002E0
000BE0
001FD0
00BE00
03DE00
0B5D00
0F3C00
0FF400
069000
ENDCHAR
STARTCHAR uni04CC
ENCODING 1228
SWIDTH 555 0
DWIDTH 9 0
BBX 11 12 0 -2
BITMAP
014000
03D000
07FBC0
0B7F80
0E1E00
1D7800
78F008
F1E078
D0FFF4
007FC0
000280
000240
ENDCHAR
STARTCHAR uni04CD
ENCODING 1229
SWIDTH 1133 0
DWIDTH 18 0
BBX 20 18 0 -3
BITMAP
0002E01E00
0003E02F00
0007E03F00
000BE0BF00
000BE0FF00
000FE1EF00
000EE2EE00
001EE3DE00
002DF79E00
002CF75E00
003CBB1F00
6078BE0F02
B0F0BD0F4B
BFE07C0BFD
2F803802F4
00000002D0
0000000780
0000000B00
ENDCHAR
STARTCHAR uni04CE
ENCODING 1230
SWIDTH 734 0
DWIDTH 12 0
BBX 14 11 0 -3
BITMAP
00747800
00F8F800
01F9F800
02EBB800
B3AF7820
F76F38A0
FF2E3FC0
7D1D2F40
00002D00
00007800
00007000
ENDCHAR
STARTCHAR uni04CF
ENCODING 1231
SWIDTH 222 0
DWIDTH 4 0
BBX 5 14 0 0
BITMAP
0100
0B40
0B40
0F00
1F00
1E00
2E00
2D00
3D00
3C00
3C00
7800
7800
7400
ENDCHAR
STARTCHAR uni04D0
ENCODING 1232
SWIDTH 786 0
DWIDTH 13 0
BBX 14 19 1 0
BITMAP
00000100
000A0B00
000FFE00
0006F800
001BFE00
01FFFF40
07E40500
0F807800
2E00B800
7D00F400
B800F400
F801F000
F402F000
F403E000
F407E000
F80BE050
BD2FE1E0
3FF9FF80
1BE0BE00
ENDCHAR
STARTCHAR uni04D1
ENCODING 1233
SWIDTH 470 0
DWIDTH 8 0
BBX 10 13 0 0
BITMAP
050600
0E0A00
0FFD00
02E400
000000
02D400
0FFC00
2E3800
3C7800
78B450
78F5D0
7FFF80
2E2E00
ENDCHAR
STARTCHAR uni04D2
ENCODING 1234
SWIDTH 786 0
DWIDTH 13 0
BBX 14 18 1 0
BITMAP
000A1900
000F6E00
000B1D00
001BFE00
01FFFF40
07E40500
0F807800
2E00B800
7D00F400
B800F400
F801F000
F402F000
F403E000
F407E000
F80BE050
BD2FE1E0
3FF9FF80
1BE0BE00
ENDCHAR
STARTCHAR uni04D3
ENCODING 1235
SWIDTH 470 0
DWIDTH 8 0
BBX 10 12 0 0
BITMAP
064A00
0B9F00
075E00
000000
02D400
0FFC00
2E3800
3C7800
78B450
78F5D0
7FFF80
2E2E00
ENDCHAR
STARTCHAR uni04D4
ENCODING 1236
SWIDTH 1015 0
DWIDTH 16 0
BBX 18 15 1 0
BITMAP
002F4BFF00
01FF6FFE00
07F43C0000
1F807C0000
2E00B80000
7D00B80000
B800F40000
F801FFFC00
F402FFF800
F402F00000
F403F00000
F40BF00000
BC1EF802D0
3FFC7FFF80
0BE01BF900
ENDCHAR
STARTCHAR uni04D5
ENCODING 1237
SWIDTH 653 0
DWIDTH 10 0
BBX 13 8 0 0
BITMAP
02F7E000
0FFFF400
2E3C7400
7C78B000
787F9140
78BD0B40
3FEFFE00
1F4BE400
ENDCHAR
STARTCHAR uni04D6
ENCODING 1238
SWIDTH 686 0
DWIDTH 11 0
BBX 13 19 0 0
BITMAP
00000400
00282C00
003FF800
001BD000
006FE000
02FFF800
07D03D00
0F802D00
0F402D00
0BC01400
02FD0000
07FD0000
2F400000
7D000000
7C000000
7C000000
3E001BC0
1FFFFF80
02BFE500
ENDCHAR
STARTCHAR uni04D7
ENCODING 1239
SWIDTH 393 0
DWIDTH 6 0
BBX 9 13 0 0
BITMAP
140900
2C2C00
2FF800
0BD000
000000
07D000
2FF000
3CB000
79E000
7F8240
7D1B40
3FFD00
0BE400
ENDCHAR
STARTCHAR uni04D8
ENCODING 1240
SWIDTH 792 0
DWIDTH 13 0
BBX 12 15 1 0
BITMAP
01BE40
0FFFE0
2E01F4
2400BC
00007D
00003D
00003D
7FFFFD
FFFFFC
F4007C
F400B8
B801F0
7D07E0
2FFF80
06F900
ENDCHAR
STARTCHAR uni04D9
ENCODING 1241
SWIDTH 455 0
DWIDTH 7 0
BBX 10 8 0 0
BITMAP
1FE000
3EF800
007C40
7FFFD0
7ABE80
B07800
7EF400
2F9000
ENDCHAR
STARTCHAR uni04DA
ENCODING 1242
SWIDTH 792 0
DWIDTH 13 0
BBX 12 18 1 0
BITMAP
00A280
01F3D0
01E2C0
01BE40
0FFFE0
2E01F4
2400BC
00007D
00003D
00003D
7FFFFD
FFFFFC
F4007C
F400B8
B801F0
7D07E0
2FFF80
06F900
ENDCHAR
STARTCHAR uni04DB
ENCODING 1243
SWIDTH 455 0
DWIDTH 7 0
BBX 10 12 0 0
BITMAP
092800
1F3D00
1E3800
000000
1FE000
3EF800
007C40
7FFFD0
7ABE80
B07800
7EF400
2F9000
ENDCHAR
STARTCHAR uni04DC
ENCODING 1244
SWIDTH 1234 0
DWIDTH 20 0
BBX 21 18 0 0
BITMAP
000019280000
00002E7C0000
00001D380000
02F803802F40
07FD07C0FFC0
051F07C1E280
000F4782D000
000B4B87C000
00078B4F4000
0003DBAE0000
0001FFF80000
0007FFF80000
001F5F3D0000
002E1E1E0000
107C2E0F4080
74B42D0BC2C0
7FE03D03FF40
2F802C01BD00
ENDCHAR
STARTCHAR uni04DD
ENCODING 1245
SWIDTH 717 0
DWIDTH 11 0
BBX 14 12 0 0
BITMAP
0064A000
00B9F000
0075E000
00000000
1F5D7D00
2FEDFF00
19FEDB00
01FFC500
75EF8050
B6EFC1D0
BF6DFF80
7E287E00
ENDCHAR
STARTCHAR uni04DE
ENCODING 1246
SWIDTH 725 0
DWIDTH 12 0
BBX 10 18 1 0
BITMAP
00A280
01F3D0
01E2C0
01BE40
0FEFC0
2E03D0
2D02D0
2C02D0
1803C0
000B40
01FF80
02A6E0
0001F0
F001F0
F002E0
F80BD0
7FBF40
1BF900
ENDCHAR
STARTCHAR uni04DF
ENCODING 1247
SWIDTH 435 0
DWIDTH 7 0
BBX 10 20 -1 -8
BITMAP
061900
0F6E00
0B1D00
000000
02F800
0BFD00
051D00
002C00
01B410
0F91E0
0F8B80
02FD00
01F000
07F000
1DB000
38F000
71E000
B2C000
BF8000
7E0000
ENDCHAR
STARTCHAR uni04E0
ENCODING 1248
SWIDTH 744 0
DWIDTH 12 0
BBX 12 15 1 0
BITMAP
06FFA4
1FEFFD
2D00F8
3C01F0
2D03D0
0807C0
001F40
02FF80
02A6E0
0001F0
F001F0
F002E0
F80BD0
7FBF40
1BF900
ENDCHAR
STARTCHAR uni04E1
ENCODING 1249
SWIDTH 435 0
DWIDTH 7 0
BBX 10 16 -1 -8
BITMAP
0FFF40
0ABF40
00BD00
02E000
0B8060
0F02E0
0BDF40
01F800
02F000
0BF000
1DB000
38F000
71E000
B2C000
BF4000
7D0000
ENDCHAR
STARTCHAR uni04E2
ENCODING 1250
SWIDTH 890 0
DWIDTH 14 0
BBX 17 17 0 0
BITMAP
000BF80000
000BFC0000
0BE002C000
2FF003D000
B4F403D000
D0F407C000
00F407C000
01F00BC000
02E00B8000
02E00F8000
03D01F4000
03D02F4000
07C07F4000
07C0EF0240
07D6CF9B00
03FF4BFD00
01F906F400
ENDCHAR
STARTCHAR uni04E3
ENCODING 1251
SWIDTH 462 0
DWIDTH 7 0
BBX 10 11 0 0
BITMAP
0BF800
0BFC00
000000
1D2C00
2D3C00
3C7800
3CB400
38F450
7EF5D0
3FBF80
2D3D00
ENDCHAR
STARTCHAR uni04E4
ENCODING 1252
SWIDTH 890 0
DWIDTH 14 0
BBX 17 18 0 0
BITMAP
000A190000
000F6E0000
000B2D0000
0BE002C000
2FF003D000
B4F403D000
D0F407C000
00F407C000
01F00BC000
02E00B8000
02E00F8000
03D01F4000
03D02F4000
07C07F4000
07C0EF0240
07D6CF9B00
03FF4BFD00
01F906F400
ENDCHAR
STARTCHAR uni04E5
ENCODING 1253
SWIDTH 462 0
DWIDTH 7 0
BBX 10 12 0 0
BITMAP
061900
0F6E00
0B1D00
000000
1D2C00
2D3C00
3C7800
3CB400
38F450
7EF5D0
3FBF80
2D3D00
ENDCHAR
STARTCHAR uni04E6
ENCODING 1254
SWIDTH 816 0
DWIDTH 13 0
BBX 12 18 1 0
BITMAP
006490
00B9F0
00B5D0
00BF80
03FFF4
0F80BC
2E003D
3D002E
78002E
B8002E
F4002E
F4002E
F4003D
B8007C
BC00F4
3E02E0
1FFF80
06F900
ENDCHAR
STARTCHAR uni04E7
ENCODING 1255
SWIDTH 451 0
DWIDTH 7 0
BBX 10 12 0 0
BITMAP
092800
1F3D00
1E3800
000000
0BE000
2FF400
3CF840
78BFD0
783E80
787800
3FF000
1B9000
ENDCHAR
STARTCHAR uni04E8
ENCODING 1256
SWIDTH 816 0
DWIDTH 13 0
BBX 12 15 1 0
BITMAP
00BF80
03FBF4
0F80BC
2F007D
3D002E
7C002E
B8002E
FFFFFE
FEAABE
F4003D
B8007C
BC00F4
3E02E0
1FEF80
06F900
ENDCHAR
STARTCHAR uni04E9
ENCODING 1257
SWIDTH 451 0
DWIDTH 7 0
BBX 10 8 0 0
BITMAP
0BE000
2FF400
3C3940
7FFFD0
7EBE80
787800
3FF000
1B9000
ENDCHAR
STARTCHAR uni04EA
ENCODING 1258
SWIDTH 816 0
DWIDTH 13 0
BBX 12 18 1 0
BITMAP
006490
00B9F0
00B5D0
00BF80
03FBF4
0F80BC
2F007D
3D002E
7C002E
B8002E
FFFFFE
FEAABE
F4003D
B8007C
BC00F4
3E02E0
1FEF80
06F900
ENDCHAR
STARTCHAR uni04EB
ENCODING 1259
SWIDTH 451 0
DWIDTH 7 0
BBX 10 12 0 0
BITMAP
092800
1E3C00
1D3800
000000
0BE000
2FF400
3C3940
7FFFD0
7EBE80
787800
3FF000
1B9000
ENDCHAR
STARTCHAR uni04EC
ENCODING 1260
SWIDTH 755 0
DWIDTH 12 0
BBX 12 18 0 0
BITMAP
0024A0
007CF4
0078E0
01BF80
0BFBF4
1F40FC
18007D
00003E
00002E
00002E
01FFFE
01AABE
00003D
28007C
7C00B8
7C02F0
2FAFC0
0BF900
ENDCHAR
STARTCHAR uni04ED
ENCODING 1261
SWIDTH 466 0
DWIDTH 7 0
BBX 10 12 0 0
BITMAP
0A1900
0F3D00
0E2D00
000000
1BE000
2EF800
003C50
03FFE0
22BE90
743C00
7EF800
1FD000
ENDCHAR
STARTCHAR uni04EE
ENCODING 1262
SWIDTH 824 0
DWIDTH 13 0
BBX 15 21 0 -4
BITMAP
000BF800
000FF800
0BD002C0
3FF003D0
74F407C0
00F007C0
01F00BC0
02E01F80
02E03F80
02E0BB40
01FBDF40
00BE4F68
00001FFC
0001FF90
001FFE00
007E6D00
00B42D00
00F03800
00F1F400
00BFE000
002A4000
ENDCHAR
STARTCHAR uni04EF
ENCODING 1263
SWIDTH 479 0
DWIDTH 8 0
BBX 10 19 0 -8
BITMAP
0BF800
0BFC00
000000
1D2C00
2D3C00
3C7800
3CB800
38F490
7EF7D0
3FBF40
2DB800
02F000
0BE000
2ED000
76C000
A3C000
E74000
FF0000
790000
ENDCHAR
STARTCHAR uni04F0
ENCODING 1264
SWIDTH 824 0
DWIDTH 13 0
BBX 15 22 0 -4
BITMAP
000A1800
001F3D00
000E2C00
0BD002C0
3FF003D0
74F407C0
00F007C0
01F00BC0
02E01F80
02E03F80
02E0BB40
01FBDF40
00BE4F68
00001FFC
0001FF90
001FFE00
007E6D00
00B42D00
00F03800
00F1F400
00BFE000
002A4000
ENDCHAR
STARTCHAR uni04F1
ENCODING 1265
SWIDTH 479 0
DWIDTH 8 0
BBX 10 20 0 -8
BITMAP
061900
0F6E00
0B1D00
000000
1D2C00
2D3C00
3C7800
3CB800
38F490
7EF7D0
3FBF40
2DB800
02F000
0BE000
2ED000
76C000
A3C000
E74000
FF0000
790000
ENDCHAR
STARTCHAR uni04F2
ENCODING 1266
SWIDTH 824 0
DWIDTH 13 0
BBX 15 23 0 -4
BITMAP
00028A00
00039E00
00076D00
000A2800
0BD002C0
3FF003D0
74F407C0
00F007C0
01F00BC0
02E01F80
02E03F80
02E0BB40
01FBDF40
00BE4F68
00001FFC
0001FF90
001FFE00
007E6D00
00B42D00
00F03800
00F1F400
00BFE000
002A4000
ENDCHAR
STARTCHAR uni04F3
ENCODING 1267
SWIDTH 479 0
DWIDTH 8 0
BBX 10 22 0 -8
BITMAP
00D740
01EB40
02CF00
038D00
071800
000000
1D2C00
2D3C00
3C7800
3CB800
38F490
7EF7D0
3FBF40
2DB800
02F000
0BE000
2ED000
76C000
A3C000
E74000
FF0000
790000
ENDCHAR
STARTCHAR uni04F4
ENCODING 1268
SWIDTH 773 0
DWIDTH 12 0
BBX 11 18 1 0
BITMAP
00A280
01F3D0
01E2C0
1E0038
2E0078
2E00B8
2E00B8
2E00F4
3D00F4
3D02F4
7C07F0
3E5FF0
2FFDF0
0BE5E0
0001E0
0002E0
0002E0
0001D0
ENDCHAR
STARTCHAR uni04F5
ENCODING 1269
SWIDTH 555 0
DWIDTH 9 0
BBX 11 12 0 0
BITMAP
006490
00B9F0
01F5E0
03D000
07FBC0
0B7F80
0E1E00
1D7800
78F008
F1E078
D0FFF0
007F80
ENDCHAR
STARTCHAR uni04F6
ENCODING 1270
SWIDTH 600 0
DWIDTH 10 0
BBX 14 20 0 -5
BITMAP
02BFFFE0
1FFFAA90
3D3D0000
787C0000
787C0000
28B80000
00B80000
00F40000
00F40000
00F00000
01F00000
01F00000
02F40000
02FC0000
01FC0000
0BBC0000
1E380000
2DB40000
2FF00000
1B800000
ENDCHAR
STARTCHAR uni04F7
ENCODING 1271
SWIDTH 441 0
DWIDTH 7 0
BBX 9 13 0 -5
BITMAP
1FD000
3FF000
11E000
07C000
2D0000
780280
7EFF40
2FF800
07F000
1EE000
29D000
3F8000
1E0000
ENDCHAR
STARTCHAR uni04F8
ENCODING 1272
SWIDTH 1078 0
DWIDTH 17 0
BBX 17 18 0 0
BITMAP
0000A28000
0001F3D000
0001E2C000
02C0000780
03D0000B80
07C0000B80
0780000B40
0B80000F40
0BAA900F00
1FFFF81F00
7F40BC1F00
6F003D2E00
1F003D2E00
1F003D2D00
0F00BC3D00
0F41F43D00
07FFE07C00
01FE403800
ENDCHAR
STARTCHAR uni04F9
ENCODING 1273
SWIDTH 702 0
DWIDTH 11 0
BBX 13 12 1 0
BITMAP
01864000
03DB8000
02C74000
00000000
7400E000
B402E000
F7D3D000
FFFBD000
F4BFC240
F0FBCB00
BFE2FD00
2F81F400
ENDCHAR
STARTCHAR uni04FA
ENCODING 1274
SWIDTH 635 0
DWIDTH 10 0
BBX 15 21 -1 -6
BITMAP
006FFFF8
07FFEAA4
0F4F4000
1E0F0000
1E1F0000
1E1E0000
052E0000
01FFE000
01BF9000
003D0000
003C0000
007C0000
007C0000
00B80000
00B80000
00F40000
01F00000
01E00000
F3D00000
FF800000
7E000000
ENDCHAR
STARTCHAR uni04FB
ENCODING 1275
SWIDTH 441 0
DWIDTH 7 0
BBX 9 13 0 -5
BITMAP
1FD000
3FF000
11E000
6BD000
7F8000
794280
7EFF40
2FF800
07F000
1EE000
29D000
3F8000
1E0000
ENDCHAR
STARTCHAR uni04FC
ENCODING 1276
SWIDTH 716 0
DWIDTH 11 0
BBX 14 21 0 -6
BITMAP
1BD00B40
7FF02F00
E0F87D00
407DF400
003FE000
003F8000
002F0000
007F0000
00FF4000
02EF4000
0BCB8000
1F47C000
7E03E5D0
F802FFC0
F000FE00
0002F800
000FB800
002D7400
003CF000
003FD000
001A4000
ENDCHAR
STARTCHAR uni04FD
ENCODING 1277
SWIDTH 601 0
DWIDTH 10 0
BBX 12 13 0 -5
BITMAP
1F5B40
2FFF80
19F640
01F000
61F000
B6F019
BFFEFC
7E7FE0
001F40
00BB40
01DB00
01FD00
00B400
ENDCHAR
STARTCHAR uni04FE
ENCODING 1278
SWIDTH 712 0
DWIDTH 11 0
BBX 14 15 0 0
BITMAP
1BD00B40
7FF02F00
A0F47D00
80B8F800
007EF000
003FD000
002F8000
07FFF400
06FFA000
00FF0000
03EB4000
0F8B8040
2E07D1D0
BC02FF80
F400BE00
ENDCHAR
STARTCHAR uni04FF
ENCODING 1279
SWIDTH 529 0
DWIDTH 8 0
BBX 11 8 0 0
BITMAP
1F5B40
2FFF80
19F640
03FC00
76F814
B6F074
BFFFE0
7E2F40
ENDCHAR
STARTCHAR uni0510
ENCODING 1296
SWIDTH 706 0
DWIDTH 11 0
BBX 11 15 0 0
BITMAP
007F80
02FBF0
07C0B8
0B8078
0B8078
078010
03D000
07FE00
1F6A00
3D0000
7D0078
3D0078
2F41F4
1FFFE0
02FE40
ENDCHAR
STARTCHAR uni0511
ENCODING 1297
SWIDTH 392 0
DWIDTH 6 0
BBX 8 8 0 0
BITMAP
0BD0
2FF0
3810
1F40
7E42
B41B
7EFD
2FE0
ENDCHAR
STARTCHAR uni0512
ENCODING 1298
SWIDTH 884 0
DWIDTH 14 0
BBX 17 21 0 -6
BITMAP
00002D0000
00007D0000
0000BD0000
0000FD0000
0001FD0000
0002FD0000
0003FD0000
0007BD0000
000B7D0000
000F3D0000
001E2D0000
A03D2E0000
B4B81F5740
7FF00FFF00
1F8007F800
00001BE000
00007ED000
0000F6D000
0001F7C000
0000FF4000
0000690000
ENDCHAR
STARTCHAR uni0513
ENCODING 1299
SWIDTH 631 0
DWIDTH 10 0
BBX 12 13 0 -5
BITMAP
003D00
007D00
00FD00
01FD00
B2ED00
F7AD0A
FF2FED
7D1FF4
000BC0
003B80
00A740
00FF00
007800
ENDCHAR
STARTCHAR uni051A
ENCODING 1306
SWIDTH 816 0
DWIDTH 13 0
BBX 13 20 1 -5
BITMAP
00BF8000
07FFF400
0F80BC00
2E003D00
7C002E00
B8002E00
B8002E00
F4002E00
F4003D00
F8007D00
B800B800
7D01F400
2FABD000
0BFF4000
01BD0000
002F0000
000F4080
000BD2C0
0007FF40
0001A900
ENDCHAR
STARTCHAR uni051B
ENCODING 1307
SWIDTH 500 0
DWIDTH 8 0
BBX 10 16 0 -7
BITMAP
000500
02FE00
0FFD00
2E3C00
3C7800
78B800
78F7F0
7FF7E0
2EF700
01E700
01E700
01E700
01E600
01EA00
00FD00
007800
ENDCHAR
STARTCHAR uni051C
ENCODING 1308
SWIDTH 1217 0
DWIDTH 19 0
BBX 20 15 2 0
BITMAP
7400B00B80
B801F02FE0
B801F038F0
F402F074F0
F402E074E0
F403E039E0
F407E02FD0
F40BE00BFE
F40FE007FE
F41EE00F00
F42DF01E00
B878F03C00
7DF4B9F400
3FE07FE000
1F802F4000
ENDCHAR
STARTCHAR uni051D
ENCODING 1309
SWIDTH 700 0
DWIDTH 11 0
BBX 14 8 0 0
BITMAP
38283800
7878BC00
78B8B840
38F8BFD0
3EFDFA80
3FBED000
3F6F8000
1E1E0000
ENDCHAR
STARTCHAR uni0524
ENCODING 1316
SWIDTH 892 0
DWIDTH 14 0
BBX 17 21 0 -6
BITMAP
01AFFFEA00
1FFFABFF40
3D2D02D100
783D03D000
787C03D000
387C07C000
00B8078000
00B80B8000
00B40B4000
00F40F4000
00F40F0000
01F00F0000
01F00FE740
01F007FE00
01E001F400
00000BE000
00007ED000
0000F6D000
0000F3C000
0000FF4000
0000690000
ENDCHAR
STARTCHAR uni0525
ENCODING 1317
SWIDTH 536 0
DWIDTH 9 0
BBX 10 13 0 -5
BITMAP
1D2D00
2DFD00
3EFD00
3F7C00
3E3800
7D7870
3C3FE0
281F40
00BD00
02EC00
076800
07F400
03D000
ENDCHAR
STARTCHAR uni0526
ENCODING 1318
SWIDTH 818 0
DWIDTH 13 0
BBX 14 21 1 -6
BITMAP
07400000
0F400000
0F400000
1F000000
1F000000
2E000000
2E000000
3D6F8000
3EFBE000
7F81F000
7E01F000
7C01F000
B801F960
B801FFE0
B401FF80
0000BD00
0007ED00
000F2C00
001E7800
001FF000
00069000
ENDCHAR
STARTCHAR uni0527
ENCODING 1319
SWIDTH 542 0
DWIDTH 9 0
BBX 10 21 1 -5
BITMAP
02D000
0FE000
1DB000
2CA000
38D000
75C000
B78000
BB0000
FDB400
F6F400
F7F400
FDB000
F8F000
F4F1D0
F4FF80
E07E00
01F400
0BB400
1DB000
1FD000
0B8000
ENDCHAR
STARTCHAR uni0528
ENCODING 1320
SWIDTH 873 0
DWIDTH 14 0
BBX 18 21 -2 -6
BITMAP
00BD000B80
07FF002FC0
0E0F4079D0
1C0F40F1C0
000F41E2C0
000F01E780
001F02FE00
01BFABF800
01FFEBD000
002D03C000
003D03C000
003C03D020
007C02E0B0
007801FFD0
00B8007E40
00F4000000
00F0000000
11E0000000
B6D0000000
BF80000000
2A00000000
ENDCHAR
STARTCHAR uni0529
ENCODING 1321
SWIDTH 475 0
DWIDTH 8 0
BBX 12 13 -2 -5
BITMAP
01D1D0
02C2C0
03C3C0
03FF80
03EB85
07875E
0387F8
0383E0
038000
038000
638000
BF4000
6E0000
ENDCHAR
STARTCHAR uni052E
ENCODING 1326
SWIDTH 884 0
DWIDTH 14 0
BBX 17 21 0 -6
BITMAP
00002D0000
00007D0000
0000BD0000
0000FD0000
0001FD0000
0002FD0000
0003FD0000
0007BD0000
000B7D0000
000F3D0000
001E2D0000
A03D2E0000
B4B81F5740
7FF00FFF00
1F8007F800
00001BE000
00007ED000
0000F6D000
0001F7C000
0000FF4000
0000690000
ENDCHAR
STARTCHAR uni052F
ENCODING 1327
SWIDTH 631 0
DWIDTH 10 0
BBX 12 13 0 -5
BITMAP
003D00
007D00
00FD00
01FD00
B2ED00
F7AD0A
FF2FED
7D1FF4
000BC0
003B80
00A740
00FF00
007800
ENDCHAR
STARTCHAR Wgrave
ENCODING 7808
SWIDTH 1217 0
DWIDTH 19 0
BBX 20 19 2 0
BITMAP
0028000000
003F000000
000BD00000
0001A00000
7400B00B80
B801F02FE0
B801F038F0
F402F074F0
F402E074E0
F403E039E0
F407E02FD0
F40BE00BFE
F40FE007FE
F41EE00F00
F42DF01E00
B878F03C00
7DF4B9F400
3FE07FE000
1F802F4000
ENDCHAR
STARTCHAR wgrave
ENCODING 7809
SWIDTH 700 0
DWIDTH 11 0
BBX 14 14 0 0
BITMAP
02C00000
02D00000
00F00000
00740000
00280000
00000000
38283800
7878BC00
78B8B840
38F8BFD0
3EFDFA80
3FBED000
3F6F8000
1E1E0000
ENDCHAR
STARTCHAR Wacute
ENCODING 7810
SWIDTH 1217 0
DWIDTH 19 0
BBX 20 19 2 0
BITMAP
000001D000
00000BD000
00002F4000
0000740000
7400B00B80
B801F02FE0
B801F038F0
F402F074F0
F402E074E0
F403E039E0
F407E02FD0
F40BE00BFE
F40FE007FE
F41EE00F00
F42DF01E00
B878F03C00
7DF4B9F400
3FE07FE000
1F802F4000
ENDCHAR
STARTCHAR wacute
ENCODING 7811
SWIDTH 700 0
DWIDTH 11 0
BBX 14 14 0 0
BITMAP
00028000
0007C000
000B4000
000E0000
00180000
00000000
38283800
7878BC00
78B8B840
38F8BFD0
3EFDFA80
3FBED000
3F6F8000
1E1E0000
ENDCHAR
STARTCHAR Wdieresis
ENCODING 7812
SWIDTH 1217 0
DWIDTH 19 0
BBX 20 18 2 0
BITMAP
00028A0000
0007CF4000
00078B0000
7400B00B80
B801F02FE0
B801F038F0
F402F074F0
F402E074E0
F403E039E0
F407E02FD0
F40BE00BFE
F40FE007FE
F41EE00F00
F42DF01E00
B878F03C00
7DF4B9F400
3FE07FE000
1F802F4000
ENDCHAR
STARTCHAR wdieresis
ENCODING 7813
SWIDTH 700 0
DWIDTH 11 0
BBX 14 12 0 0
BITMAP
01928000
02E7C000
01D38000
00000000
38283800
7878BC00
78B8B840
38F8BFD0
3EFDFA80
3FBED000
3F6F8000
1E1E0000
ENDCHAR
STARTCHAR uni1E9E
ENCODING 7838
SWIDTH 843 0
DWIDTH 13 0
BBX 12 16 1 -1
BITMAP
0B06F8
0F1FFE
1F782F
1EE01F
2EC03E
2F81B8
3F0FD0
3E1FF4
7E01BC
7D003E
7C002E
7C003D
B800BC
B806F4
743F90
001500
ENDCHAR
STARTCHAR uni1EA0
ENCODING 7840
SWIDTH 786 0
DWIDTH 13 0
BBX 14 19 1 -4
BITMAP
001BFE00
01FFFF40
07E40500
0F807800
2E00B800
7D00F400
B800F400
F801F000
F402F000
F403E000
F407E000
F80BE050
BD2FE1E0
3FF9FF80
1BE0BE00
00000000
00A00000
02F40000
01E00000
ENDCHAR
STARTCHAR uni1EA1
ENCODING 7841
SWIDTH 470 0
DWIDTH 8 0
BBX 10 12 0 -4
BITMAP
02D400
0FFC00
2E3800
3C7800
78B450
78F5D0
7FFF80
2E2E00
000000
0A0000
1F4000
0F0000
ENDCHAR
STARTCHAR uni1EA2
ENCODING 7842
SWIDTH 786 0
DWIDTH 13 0
BBX 14 19 1 0
BITMAP
0002F400
0002FC00
0000BC00
0000F400
001BFE00
01FFFF40
07E40500
0F807800
2E00B800
7D00F400
B800F400
F801F000
F402F000
F403E000
F407E000
F80BE050
BD2FE1E0
3FF9FF80
1BE0BE00
ENDCHAR
STARTCHAR uni1EA3
ENCODING 7843
SWIDTH 470 0
DWIDTH 8 0
BBX 10 14 0 0
BITMAP
01F800
01FD00
001D00
00BC00
00B400
000000
02D400
0FFC00
2E3800
3C7800
78B450
78F5D0
7FFF80
2E2E00
ENDCHAR
STARTCHAR uni1EA4
ENCODING 7844
SWIDTH 786 0
DWIDTH 13 0
BBX 14 24 1 0
BITMAP
000002D0
00000BD0
00002F40
00007400
00005000
0002F400
0007BC00
000B6D00
000E1D00
001BFE00
01FFFF40
07E40500
0F807800
2E00B800
7D00F400
B800F400
F801F000
F402F000
F403E000
F407E000
F80BE050
BD2FE1E0
3FF9FF80
1BE0BE00
ENDCHAR
STARTCHAR uni1EA5
ENCODING 7845
SWIDTH 470 0
DWIDTH 8 0
BBX 10 15 0 0
BITMAP
0000A0
0002E0
005100
01FC00
079D00
0B0D00
000000
02D400
0FFC00
2E3800
3C7800
78B450
78F5D0
7FFF80
2E2E00
ENDCHAR
STARTCHAR uni1EA6
ENCODING 7846
SWIDTH 786 0
DWIDTH 13 0
BBX 14 24 1 0
BITMAP
00380000
003E0000
000BC000
0001A000
00005000
0002F400
0007BC00
000B6D00
000E1D00
001BFE00
01FFFF40
07E40500
0F807800
2E00B800
7D00F400
B800F400
F801F000
F402F000
F403E000
F407E000
F80BE050
BD2FE1E0
3FF9FF80
1BE0BE00
ENDCHAR
STARTCHAR uni1EA7
ENCODING 7847
SWIDTH 470 0
DWIDTH 8 0
BBX 10 15 0 0
BITMAP
380000
2D0000
055000
01FC00
079D00
0B0D00
000000
02D400
0FFC00
2E3800
3C7800
78B450
78F5D0
7FFF80
2E2E00
ENDCHAR
STARTCHAR uni1EA8
ENCODING 7848
SWIDTH 786 0
DWIDTH 13 0
BBX 14 24 1 0
BITMAP
0000B800
0000BE00
00007D00
00007800
00005000
0002F400
0007BC00
000B6D00
000E1D00
001BFE00
01FFFF40
07E40500
0F807800
2E00B800
7D00F400
B800F400
F801F000
F402F000
F403E000
F407E000
F80BE050
BD2FE1E0
3FF9FF80
1BE0BE00
ENDCHAR
STARTCHAR uni1EA9
ENCODING 7849
SWIDTH 470 0
DWIDTH 8 0
BBX 10 15 0 0
BITMAP
0003E0
000070
00BAE0
02EC00
0B5E00
050400
000000
02D400
0FFC00
2E3800
3C7800
78B450
78F5D0
7FFF80
2E2E00
ENDCHAR
STARTCHAR uni1EAA
ENCODING 7850
SWIDTH 786 0
DWIDTH 13 0
BBX 14 24 1 0
BITMAP
00014000
0007E2C0
000FBF80
00041E00
00005000
0002F400
0007BC00
000B6D00
000E1D00
001BFE00
01FFFF40
07E40500
0F807800
2E00B800
7D00F400
B800F400
F801F000
F402F000
F403E000
F407E000
F80BE050
BD2FE1E0
3FF9FF80
1BE0BE00
ENDCHAR
STARTCHAR uni1EAB
ENCODING 7851
SWIDTH 470 0
DWIDTH 8 0
BBX 10 15 0 0
BITMAP
02D240
077F00
011400
01F800
07AD00
0B0D00
000000
02D400
0FFC00
2E3800
3C7800
78B450
78F5D0
7FFF80
2E2E00
ENDCHAR
STARTCHAR uni1EAC
ENCODING 7852
SWIDTH 786 0
DWIDTH 13 0
BBX 14 24 1 -4
BITMAP
00005000
0002F400
0007BC00
000B6D00
000E1D00
001BFE00
01FFFF40
07E40500
0F807800
2E00B800
7D00F400
B800F400
F801F000
F402F000
F403E000
F407E000
F80BE050
BD2FE1E0
3FF9FF80
1BE0BE00
00000000
00A00000
02F40000
01E00000
ENDCHAR
STARTCHAR uni1EAD
ENCODING 7853
SWIDTH 470 0
DWIDTH 8 0
BBX 10 19 0 -4
BITMAP
001000
00B800
01EC00
03DD00
075E00
0A0D00
000000
02D400
0FFC00
2E3800
3C7800
78B450
78F5D0
7FFF80
2E2E00
000000
0A0000
1F4000
0F0000
ENDCHAR
STARTCHAR uni1EAE
ENCODING 7854
SWIDTH 786 0
DWIDTH 13 0
BBX 14 21 1 0
BITMAP
00001D00
00007D00
00045500
001E1B00
000FFE00
0006A400
001BFE00
01FFFF40
07E40500
0F807800
2E00B800
7D00F400
B800F400
F801F000
F402F000
F403E000
F407E000
F80BE050
BD2FE1E0
3FF9FF80
1BE0BE00
ENDCHAR
STARTCHAR uni1EAF
ENCODING 7855
SWIDTH 470 0
DWIDTH 8 0
BBX 10 15 0 0
BITMAP
000A00
002D00
052500
0F0B40
0BFF00
02A800
000000
02D400
0FFC00
2E3800
3C7800
78B450
78F5D0
7FFF80
2E2E00
ENDCHAR
STARTCHAR uni1EB0
ENCODING 7856
SWIDTH 786 0
DWIDTH 13 0
BBX 14 21 1 0
BITMAP
00074000
0007D000
00045100
001E1B00
000FFD00
0001A400
001BFE00
01FFFF40
07E40500
0F807800
2E00B800
7D00F400
B800F400
F801F000
F402F000
F403E000
F407E000
F80BE050
BD2FE1E0
3FF9FF80
1BE0BE00
ENDCHAR
STARTCHAR uni1EB1
ENCODING 7857
SWIDTH 470 0
DWIDTH 8 0
BBX 10 15 0 0
BITMAP
038000
02E000
056100
0F0B40
0BFE00
01A400
000000
02D400
0FFC00
2E3800
3C7800
78B450
78F5D0
7FFF80
2E2E00
ENDCHAR
STARTCHAR uni1EB2
ENCODING 7858
SWIDTH 786 0
DWIDTH 13 0
BBX 14 21 1 0
BITMAP
0001F400
00003800
0004E500
001D0B00
001FFE00
0006F800
001BFE00
01FFFF40
07E40500
0F807800
2E00B800
7D00F400
B800F400
F801F000
F402F000
F403E000
F407E000
F80BE050
BD2FE1E0
3FF9FF80
1BE0BE00
ENDCHAR
STARTCHAR uni1EB3
ENCODING 7859
SWIDTH 470 0
DWIDTH 8 0
BBX 10 15 0 0
BITMAP
00F800
002C00
04B500
0E0740
0FFF00
02F900
000000
02D400
0FFC00
2E3800
3C7800
78B450
78F5D0
7FFF80
2E2E00
ENDCHAR
STARTCHAR uni1EB4
ENCODING 7860
SWIDTH 786 0
DWIDTH 13 0
BBX 14 22 1 0
BITMAP
00014100
0007E740
000EBE00
00041400
001D0700
001FAE00
0006F800
001BFE00
01FFFF40
07E40500
0F807800
2E00B800
7D00F400
B800F400
F801F000
F402F000
F403E000
F407E000
F80BE050
BD2FE1E0
3FF9FF80
1BE0BE00
ENDCHAR
STARTCHAR uni1EB5
ENCODING 7861
SWIDTH 470 0
DWIDTH 8 0
BBX 10 16 0 0
BITMAP
014140
03E380
0B7F00
050500
0E0740
0FAF40
02F900
000000
02D400
0FFC00
2E3800
3C7800
78B450
78F5D0
7FFF80
2E2E00
ENDCHAR
STARTCHAR uni1EB6
ENCODING 7862
SWIDTH 786 0
DWIDTH 13 0
BBX 14 22 1 -4
BITMAP
001D0B00
001FFE00
0006F800
001BFE00
01FFFF40
07E40500
0F807800
2E00B800
7D00F400
B800F400
F801F000
F402F000
F403E000
F407E000
F80BE050
BD2FE1E0
3FF9FF80
1BE0BE00
00000000
00A00000
02F40000
01E00000
ENDCHAR
STARTCHAR uni1EB7
ENCODING 7863
SWIDTH 470 0
DWIDTH 8 0
BBX 10 17 0 -4
BITMAP
0D0340
0F0B40
0BFF00
02F800
000000
02D400
0FFC00
2E3800
3C7800
78B450
78F5D0
7FFF80
2E2E00
000000
0A0000
1F4000
0F0000
ENDCHAR
STARTCHAR uni1EB8
ENCODING 7864
SWIDTH 686 0
DWIDTH 11 0
BBX 13 19 0 -4
BITMAP
006FE000
02FFF800
07D03D00
0F802D00
0F402D00
0BC01400
02FD0000
07FD0000
2F400000
7D000000
7C000000
7C000000
3E001BC0
1FFFFF80
02BFE500
00000000
00680000
00BC0000
00780000
ENDCHAR
STARTCHAR uni1EB9
ENCODING 7865
SWIDTH 393 0
DWIDTH 6 0
BBX 9 12 0 -4
BITMAP
07D000
2FF000
3CB000
79E000
7F8240
7D1B40
3FFD00
0BE400
000000
064000
0F8000
0B4000
ENDCHAR
STARTCHAR uni1EBA
ENCODING 7866
SWIDTH 686 0
DWIDTH 11 0
BBX 13 19 0 0
BITMAP
000BD000
000BF000
0002F000
0003D000
006FE000
02FFF800
07D03D00
0F802D00
0F402D00
0BC01400
02FD0000
07FD0000
2F400000
7D000000
7C000000
7C000000
3E001BC0
1FFFFF80
02BFE500
ENDCHAR
STARTCHAR uni1EBB
ENCODING 7867
SWIDTH 393 0
DWIDTH 6 0
BBX 9 14 0 0
BITMAP
02E000
02F800
003800
01F400
01E000
000000
07D000
2FF000
3CB000
79E000
7F8240
7D1B40
3FFD00
0BE400
ENDCHAR
STARTCHAR uni1EBC
ENCODING 7868
SWIDTH 686 0
DWIDTH 11 0
BBX 13 19 0 0
BITMAP
00140000
003F5D00
00B7FC00
0050B400
006FE000
02FFF800
07D03D00
0F802D00
0F402D00
0BC01400
02FD0000
07FD0000
2F400000
7D000000
7C000000
7C000000
3E001BC0
1FFFFF80
02BFE500
ENDCHAR
STARTCHAR uni1EBD
ENCODING 7869
SWIDTH 393 0
DWIDTH 6 0
BBX 9 13 0 0
BITMAP
050000
1F8A00
3EFE00
107800
000000
07D000
2FF000
3CB000
79E000
7F8240
7D1B40
3FFD00
0BE400
ENDCHAR
STARTCHAR uni1EBE
ENCODING 7870
SWIDTH 686 0
DWIDTH 11 0
BBX 13 21 0 0
BITMAP
00000740
00000F40
00014400
000BE000
002DB000
00387000
006FE000
02FFF800
07D03D00
0F802D00
0F402D00
0BC01400
02FD0000
07FD0000
2F400000
7D000000
7C000000
7C000000
3E001BC0
1FFFFF80
02BFE500
ENDCHAR
STARTCHAR uni1EBF
ENCODING 7871
SWIDTH 393 0
DWIDTH 6 0
BBX 9 15 0 0
BITMAP
0001C0
000780
005500
03F400
0B7800
1D2800
000000
07D000
2FF000
3CB000
79E000
7F8240
7D1B40
3FFD00
0BE400
ENDCHAR
STARTCHAR uni1EC0
ENCODING 7872
SWIDTH 686 0
DWIDTH 11 0
BBX 13 21 0 0
BITMAP
01D00000
01F40000
00114000
000BE000
002DB000
00387000
006FE000
02FFF800
07D03D00
0F802D00
0F402D00
0BC01400
02FD0000
07FD0000
2F400000
7D000000
7C000000
7C000000
3E001BC0
1FFFFF80
02BFE500
ENDCHAR
STARTCHAR uni1EC1
ENCODING 7873
SWIDTH 393 0
DWIDTH 6 0
BBX 9 15 0 0
BITMAP
A00000
780000
045000
03F400
0B7800
1D2800
000000
07D000
2FF000
3CB000
79E000
7F8240
7D1B40
3FFD00
0BE400
ENDCHAR
STARTCHAR uni1EC2
ENCODING 7874
SWIDTH 686 0
DWIDTH 11 0
BBX 13 21 0 0
BITMAP
00001F40
00000280
0007DF40
001EE000
003CB400
00101000
006FE000
02FFF800
07D03D00
0F802D00
0F402D00
0BC01400
02FD0000
07FD0000
2F400000
7D000000
7C000000
7C000000
3E001BC0
1FFFFF80
02BFE500
ENDCHAR
STARTCHAR uni1EC3
ENCODING 7875
SWIDTH 393 0
DWIDTH 6 0
BBX 10 15 0 0
BITMAP
000B80
0000D0
01E780
07B400
1E3C00
041400
000000
07D000
2FF000
3CB000
79E000
7F8240
7D1B40
3FFD00
0BE400
ENDCHAR
STARTCHAR uni1EC4
ENCODING 7876
SWIDTH 686 0
DWIDTH 11 0
BBX 13 21 0 0
BITMAP
000B5C00
002AF800
00115000
000BD000
001DF000
00387400
006FE000
02FFF800
07D03D00
0F802D00
0F402D00
0BC01400
02FD0000
07FD0000
2F400000
7D000000
7C000000
7C000000
3E001BC0
1FFFFF80
02BFE500
ENDCHAR
STARTCHAR uni1EC5
ENCODING 7877
SWIDTH 393 0
DWIDTH 6 0
BBX 9 15 0 0
BITMAP
078600
0EBD00
045400
02F400
0B7800
1D2800
000000
07D000
2FF000
3CB000
79E000
7F8240
7D1B40
3FFD00
0BE400
ENDCHAR
STARTCHAR uni1EC6
ENCODING 7878
SWIDTH 686 0
DWIDTH 11 0
BBX 13 24 0 -4
BITMAP
00014000
000BD000
001EF000
002DB400
00387400
006FE000
02FFF800
07D03D00
0F802D00
0F402D00
0BC01400
02FD0000
07FD0000
2F400000
7D000000
7C000000
7C000000
3E001BC0
1FFFFF80
02BFE500
00000000
00680000
00BC0000
00780000
ENDCHAR
STARTCHAR uni1EC7
ENCODING 7879
SWIDTH 393 0
DWIDTH 6 0
BBX 9 19 0 -4
BITMAP
005000
01F000
03B400
0B7800
0E3C00
1D2800
000000
07D000
2FF000
3CB000
79E000
7F8240
7D1B40
3FFD00
0BE400
000000
064000
0F8000
0B4000
ENDCHAR
STARTCHAR uni1EC8
ENCODING 7880
SWIDTH 495 0
DWIDTH 8 0
BBX 9 19 0 0
BITMAP
00BD00
00BF00
002E00
007900
1FFF80
1BFF40
00F000
01F000
01F000
02E000
02E000
02D000
03D000
03D000
07C000
07C000
078000
AFF800
FFF800
ENDCHAR
STARTCHAR uni1EC9
ENCODING 7881
SWIDTH 246 0
DWIDTH 4 0
BBX 6 14 0 0
BITMAP
1F40
2FC0
02C0
0B80
0E00
0000
1D00
2D00
3C00
3C00
7820
78B0
3FD0
1E40
ENDCHAR
STARTCHAR uni1ECA
ENCODING 7882
SWIDTH 495 0
DWIDTH 8 0
BBX 9 19 0 -4
BITMAP
1FFF80
1BFF40
00F000
01F000
01F000
02E000
02E000
02D000
03D000
03D000
07C000
07C000
078000
AFF800
FFF800
000000
0A4000
1F8000
0F4000
ENDCHAR
STARTCHAR uni1ECB
ENCODING 7883
SWIDTH 246 0
DWIDTH 4 0
BBX 6 16 0 -4
BITMAP
0F00
1F40
0A00
0000
1D00
2D00
3C00
3C00
7820
78B0
3FD0
1E40
0000
6400
FC00
B400
ENDCHAR
STARTCHAR uni1ECC
ENCODING 7884
SWIDTH 816 0
DWIDTH 13 0
BBX 12 19 1 -4
BITMAP
00BF80
03FFF4
0F80BC
2E003D
3D002E
78002E
B8002E
F4002E
F4002E
F4003D
B8007C
BC00F4
3E02E0
1FFF80
06F900
000000
01A000
02F400
01E000
ENDCHAR
STARTCHAR uni1ECD
ENCODING 7885
SWIDTH 451 0
DWIDTH 7 0
BBX 10 12 0 -4
BITMAP
0BE000
2FF400
3CF840
78BFD0
783E80
787800
3FF000
1B9000
000000
0A4000
0F8000
0B4000
ENDCHAR
STARTCHAR uni1ECE
ENCODING 7886
SWIDTH 816 0
DWIDTH 13 0
BBX 12 19 1 0
BITMAP
001F80
001FD0
000BC0
000F40
00BF80
03FFF4
0F80BC
2E003D
3D002E
78002E
B8002E
F4002E
F4002E
F4003D
B8007C
BC00F4
3E02E0
1FFF80
06F900
ENDCHAR
STARTCHAR uni1ECF
ENCODING 7887
SWIDTH 451 0
DWIDTH 7 0
BBX 10 14 0 0
BITMAP
02E000
02F400
003800
01F400
02E000
000000
0BE000
2FF400
3CF840
78BFD0
783E80
787800
3FF000
1B9000
ENDCHAR
STARTCHAR uni1ED0
ENCODING 7888
SWIDTH 816 0
DWIDTH 13 0
BBX 12 21 1 0
BITMAP
00000A
00002D
000510
001F80
007AD0
00A0D0
00BF80
03FFF4
0F80BC
2E003D
3D002E
78002E
B8002E
F4002E
F4002E
F4003D
B8007C
BC00F4
3E02E0
1FFF80
06F900
ENDCHAR
STARTCHAR uni1ED1
ENCODING 7889
SWIDTH 451 0
DWIDTH 7 0
BBX 10 15 0 0
BITMAP
0001C0
000780
005500
03F000
0F7800
1D2800
000000
0BE000
2FF400
3CF840
78BFD0
783E80
787800
3FF000
1B9000
ENDCHAR
STARTCHAR uni1ED2
ENCODING 7890
SWIDTH 816 0
DWIDTH 13 0
BBX 12 21 1 0
BITMAP
034000
03D000
005500
001F80
007AD0
00A0D0
00BF80
03FFF4
0F80BC
2E003D
3D002E
78002E
B8002E
F4002E
F4002E
F4003D
B8007C
BC00F4
3E02E0
1FFF80
06F900
ENDCHAR
STARTCHAR uni1ED3
ENCODING 7891
SWIDTH 451 0
DWIDTH 7 0
BBX 10 15 0 0
BITMAP
A00000
B80000
045000
03F000
0F7800
1D2800
000000
0BE000
2FF400
3CF840
78BFD0
783E80
787800
3FF000
1B9000
ENDCHAR
STARTCHAR uni1ED4
ENCODING 7892
SWIDTH 816 0
DWIDTH 13 0
BBX 12 21 1 0
BITMAP
00003E
00000B
000B6D
002EC0
00B5D0
005040
00BF80
03FFF4
0F80BC
2E003D
3D002E
78002E
B8002E
F4002E
F4002E
F4003D
B8007C
BC00F4
3E02E0
1FFF80
06F900
ENDCHAR
STARTCHAR uni1ED5
ENCODING 7893
SWIDTH 451 0
DWIDTH 7 0
BBX 10 15 0 0
BITMAP
000B80
0000D0
02E780
0BB400
1E3800
041400
000000
0BE000
2FF400
3CF840
78BFD0
783E80
787800
3FF000
1B9000
ENDCHAR
STARTCHAR uni1ED6
ENCODING 7894
SWIDTH 816 0
DWIDTH 13 0
BBX 12 21 1 0
BITMAP
002D24
0077F0
001140
001F80
007AD0
00A0D0
00BF80
03FFF4
0F80BC
2E003D
3D002E
78002E
B8002E
F4002E
F4002E
F4003D
B8007C
BC00F4
3E02E0
1FFF80
06F900
ENDCHAR
STARTCHAR uni1ED7
ENCODING 7895
SWIDTH 451 0
DWIDTH 7 0
BBX 10 15 0 0
BITMAP
078A00
0EBD00
045400
03F000
0B7800
1D2800
000000
0BE000
2FF400
3CF840
78BFD0
783E80
787800
3FF000
1B9000
ENDCHAR
STARTCHAR uni1ED8
ENCODING 7896
SWIDTH 816 0
DWIDTH 13 0
BBX 12 24 1 -4
BITMAP
000500
001F80
003EC0
00B5D0
00A0D0
00BF80
03FFF4
0F80BC
2E003D
3D002E
78002E
B8002E
F4002E
F4002E
F4003D
B8007C
BC00F4
3E02E0
1FFF80
06F900
000000
01A000
02F400
01E000
ENDCHAR
STARTCHAR uni1ED9
ENCODING 7897
SWIDTH 451 0
DWIDTH 7 0
BBX 10 19 0 -4
BITMAP
005000
02F000
03B400
0B7800
1E3800
1C2800
000000
0BE000
2FF400
3CF840
78BFD0
783E80
787800
3FF000
1B9000
000000
0A4000
0F8000
0B4000
ENDCHAR
STARTCHAR uni1EDA
ENCODING 7898
SWIDTH 816 0
DWIDTH 13 0
BBX 13 19 1 0
BITMAP
00002800
0000FC00
0007E380
000A4B80
00BFFF40
03FFFD00
0F80BC00
2E003D00
3D002E00
78002E00
B8002E00
F4002E00
F4002E00
F4003D00
B8007C00
BC00F400
3E02E000
1FFF8000
06F90000
ENDCHAR
STARTCHAR uni1EDB
ENCODING 7899
SWIDTH 451 0
DWIDTH 7 0
BBX 10 14 0 0
BITMAP
003800
007800
00F000
01D000
028700
000F00
0BFE00
2FF800
3CF840
78BFD0
783E80
787800
3FF000
1B9000
ENDCHAR
STARTCHAR uni1EDC
ENCODING 7900
SWIDTH 816 0
DWIDTH 13 0
BBX 13 19 1 0
BITMAP
07400000
07E00000
01F80380
001C0B80
00BFFF40
03FFFD00
0F80BC00
2E003D00
3D002E00
78002E00
B8002E00
F4002E00
F4002E00
F4003D00
B8007C00
BC00F400
3E02E000
1FFF8000
06F90000
ENDCHAR
STARTCHAR uni1EDD
ENCODING 7901
SWIDTH 451 0
DWIDTH 7 0
BBX 10 14 0 0
BITMAP
280000
3D0000
1E0000
0B0000
024700
000F00
0BFE00
2FF800
3CF840
78BFD0
783E80
787800
3FF000
1B9000
ENDCHAR
STARTCHAR uni1EDE
ENCODING 7902
SWIDTH 816 0
DWIDTH 13 0
BBX 13 19 1 0
BITMAP
001F8000
001FD000
000BC380
000F4B80
00BFFF40
03FFFD00
0F80BC00
2E003D00
3D002E00
78002E00
B8002E00
F4002E00
F4002E00
F4003D00
B8007C00
BC00F400
3E02E000
1FFF8000
06F90000
ENDCHAR
STARTCHAR uni1EDF
ENCODING 7903
SWIDTH 451 0
DWIDTH 7 0
BBX 10 14 0 0
BITMAP
07D000
07F000
007400
02F000
02D700
000F00
0BFE00
2FF800
3CF840
78BFD0
783E80
787800
3FF000
1B9000
ENDCHAR
STARTCHAR uni1EE0
ENCODING 7904
SWIDTH 816 0
DWIDTH 13 0
BBX 13 19 1 0
BITMAP
00140000
00BD3400
01EBF780
0042EB80
00BFFF40
03FFFD00
0F80BC00
2E003D00
3D002E00
78002E00
B8002E00
F4002E00
F4002E00
F4003D00
B8007C00
BC00F400
3E02E000
1FFF8000
06F90000
ENDCHAR
STARTCHAR uni1EE1
ENCODING 7905
SWIDTH 451 0
DWIDTH 7 0
BBX 10 13 0 0
BITMAP
050400
1F5C00
2AF800
10BB00
000F00
0BFD00
2FF800
3CF840
78BFD0
783E80
787800
3FF000
1B9000
ENDCHAR
STARTCHAR uni1EE2
ENCODING 7906
SWIDTH 816 0
DWIDTH 13 0
BBX 13 21 1 -4
BITMAP
00000380
00000B80
00BFFF40
03FFFD00
0F80BC00
2E003D00
3D002E00
78002E00
B8002E00
F4002E00
F4002E00
F4003D00
B8007C00
BC00F400
3E02E000
1FFF8000
06F90000
00000000
01A00000
02F40000
01E00000
ENDCHAR
STARTCHAR uni1EE3
ENCODING 7907
SWIDTH 451 0
DWIDTH 7 0
BBX 10 14 0 -4
BITMAP
000700
000F00
0BFE00
2FF800
3CF840
78BFD0
783E80
787800
3FF000
1B9000
000000
0A4000
0F8000
0B4000
ENDCHAR
STARTCHAR uni1EE4
ENCODING 7908
SWIDTH 890 0
DWIDTH 14 0
BBX 17 19 0 -4
BITMAP
0BE002C000
2FF003D000
B4F403D000
D0F407C000
00F407C000
01F00BC000
02E00B8000
02E00F8000
03D01F4000
03D02F4000
07C07F4000
07C0EF0240
07D6CF9B00
03FF4BFD00
01F906F400
0000000000
001A000000
002F000000
001E000000
ENDCHAR
STARTCHAR uni1EE5
ENCODING 7909
SWIDTH 462 0
DWIDTH 7 0
BBX 10 12 0 -4
BITMAP
1D2C00
2D3C00
3C7800
3CB400
38F450
7EF5D0
3FBF80
2D3D00
000000
064000
0F8000
0B4000
ENDCHAR
STARTCHAR uni1EE6
ENCODING 7910
SWIDTH 890 0
DWIDTH 14 0
BBX 17 19 0 0
BITMAP
0001F40000
0002FC0000
0000BC0000
0000F40000
0BE002C000
2FF003D000
B4F403D000
D0F407C000
00F407C000
01F00BC000
02E00B8000
02E00F8000
03D01F4000
03D02F4000
07C07F4000
07C0EF0240
07D6CF9B00
03FF4BFD00
01F906F400
ENDCHAR
STARTCHAR uni1EE7
ENCODING 7911
SWIDTH 462 0
DWIDTH 7 0
BBX 10 14 0 0
BITMAP
01F400
02FC00
001C00
00B800
00E400
000000
1D2C00
2D3C00
3C7800
3CB400
38F450
7EF5D0
3FBF80
2D3D00
ENDCHAR
STARTCHAR uni1EE8
ENCODING 7912
SWIDTH 890 0
DWIDTH 14 0
BBX 17 19 0 0
BITMAP
0000078000
00001F8000
00007E0A00
0000A01E00
0BE002FE00
2FF003F800
B4F403E000
D0F407D000
00F407C000
01F00BC000
02E00B8000
02E00F8000
03D01F4000
03D02F4000
07C07F4000
07C0EF0240
07D6CF9B00
03FF4BFD00
01F906F400
ENDCHAR
STARTCHAR uni1EE9
ENCODING 7913
SWIDTH 512 0
DWIDTH 8 0
BBX 10 14 0 0
BITMAP
001D00
002E00
003C00
007400
0091C0
0002C0
1D2F80
2D3D00
3C7800
3CB400
38F420
7EF4B0
3FBFD0
2D2E40
ENDCHAR
STARTCHAR uni1EEA
ENCODING 7914
SWIDTH 890 0
DWIDTH 14 0
BBX 17 19 0 0
BITMAP
0074000000
00BD000000
001F400A00
0002C01E00
0BE002FE00
2FF003F800
B4F403E000
D0F407D000
00F407C000
01F00BC000
02E00B8000
02E00F8000
03D01F4000
03D02F4000
07C07F4000
07C0EF0240
07D6CF9B00
03FF4BFD00
01F906F400
ENDCHAR
STARTCHAR uni1EEB
ENCODING 7915
SWIDTH 512 0
DWIDTH 8 0
BBX 10 14 0 0
BITMAP
0E0000
0F0000
078000
02C000
00D1C0
0002C0
1D2F80
2D3D00
3C7800
3CB400
38F420
7EF4B0
3FBFD0
2D2E40
ENDCHAR
STARTCHAR uni1EEC
ENCODING 7916
SWIDTH 890 0
DWIDTH 14 0
BBX 17 19 0 0
BITMAP
0001F40000
0002FC0000
0000BC0A00
0000F41E00
0BE002FE00
2FF003F800
B4F403E000
D0F407D000
00F407C000
01F00BC000
02E00B8000
02E00F8000
03D01F4000
03D02F4000
07C07F4000
07C0EF0240
07D6CF9B00
03FF4BFD00
01F906F400
ENDCHAR
STARTCHAR uni1EED
ENCODING 7917
SWIDTH 512 0
DWIDTH 8 0
BBX 10 14 0 0
BITMAP
01F400
02FC00
001C00
00B800
00E5C0
0002C0
1D2F80
2D3D00
3C7800
3CB400
38F420
7EF4B0
3FBFD0
2D2E40
ENDCHAR
STARTCHAR uni1EEE
ENCODING 7918
SWIDTH 890 0
DWIDTH 14 0
BBX 17 19 0 0
BITMAP
0001000000
000FD74000
002DFF0A00
00142D1E00
0BE002FE00
2FF003F800
B4F403E000
D0F407D000
00F407C000
01F00BC000
02E00B8000
02E00F8000
03D01F4000
03D02F4000
07C07F4000
07C0EF0240
07D6CF9B00
03FF4BFD00
01F906F400
ENDCHAR
STARTCHAR uni1EEF
ENCODING 7919
SWIDTH 512 0
DWIDTH 8 0
BBX 10 13 0 0
BITMAP
010100
0BDA00
0EBD00
0429C0
0002C0
1D2F80
2D3D00
3C7800
3CB400
38F420
7EF4B0
3FBFD0
2D2E40
ENDCHAR
STARTCHAR uni1EF0
ENCODING 7920
SWIDTH 890 0
DWIDTH 14 0
BBX 17 21 0 -4
BITMAP
0000000A00
0000001E00
0BE002FE00
2FF003F800
B4F403E000
D0F407D000
00F407C000
01F00BC000
02E00B8000
02E00F8000
03D01F4000
03D02F4000
07C07F4000
07C0EF0240
07D6CF9B00
03FF4BFD00
01F906F400
0000000000
001A000000
002F000000
001E000000
ENDCHAR
STARTCHAR uni1EF1
ENCODING 7921
SWIDTH 512 0
DWIDTH 8 0
BBX 10 14 0 -4
BITMAP
0001C0
0002C0
1D2F80
2D3D00
3C7800
3CB400
38F420
7EF4B0
3FBFD0
2D2E40
000000
064000
0F8000
0B4000
ENDCHAR
STARTCHAR Ygrave
ENCODING 7922
SWIDTH 851 0
DWIDTH 14 0
BBX 16 24 0 -5
BITMAP
00740000
007E0000
001F8000
0001C000
0BE002D0
3FF403D0
B4F403D0
D0F407C0
01F007C0
01F00B80
02E00F80
02D02F80
03D03F40
03E0EB40
02FFCF69
00BE1FFD
0001BF90
000BFE00
002F5E00
00B82D00
00F03C00
00F0B400
00FFE000
006F8000
ENDCHAR
STARTCHAR ygrave
ENCODING 7923
SWIDTH 479 0
DWIDTH 8 0
BBX 10 22 0 -8
BITMAP
0E0000
0F0000
078000
02C000
00D000
000000
1D2C00
2D3C00
3C7800
3CB800
38F490
7EF7D0
3FBF40
2DB800
02F000
0BE000
2ED000
76C000
A3C000
E74000
FF0000
790000
ENDCHAR
STARTCHAR uni1EF4
ENCODING 7924
SWIDTH 851 0
DWIDTH 14 0
BBX 16 21 0 -6
BITMAP
0BE002D0
3FF403D0
B4F403D0
D0F407C0
01F007C0
01F00B80
02E00F80
02D02F80
03D03F40
03E0EB40
02FFCF69
00BE1FFD
0001BF90
000BFE00
002F5E00
00B82D00
00F03C00
00F0B400
00FFE290
006F87E0
000003D0
ENDCHAR
STARTCHAR uni1EF5
ENCODING 7925
SWIDTH 479 0
DWIDTH 8 0
BBX 10 16 0 -8
BITMAP
1D2C00
2D3C00
3C7800
3CB800
38F490
7EF7D0
3FBF40
2DB800
02F000
0BE000
2ED000
76C000
A3C000
E76900
FF7D00
793C00
ENDCHAR
STARTCHAR uni1EF6
ENCODING 7926
SWIDTH 851 0
DWIDTH 14 0
BBX 16 24 0 -5
BITMAP
0001F800
0001FD00
0000BC00
0000F400
0BE002D0
3FF403D0
B4F403D0
D0F407C0
01F007C0
01F00B80
02E00F80
02D02F80
03D03F40
03E0EB40
02FFCF69
00BE1FFD
0001BF90
000BFE00
002F5E00
00B82D00
00F03C00
00F0B400
00FFE000
006F8000
ENDCHAR
STARTCHAR uni1EF7
ENCODING 7927
SWIDTH 479 0
DWIDTH 8 0
BBX 10 22 0 -8
BITMAP
01F400
02FC00
001C00
00B800
00E400
000000
1D2C00
2D3C00
3C7800
3CB800
38F490
7EF7D0
3FBF40
2DB800
02F000
0BE000
2ED000
76C000
A3C000
E74000
FF0000
790000
ENDCHAR
STARTCHAR uni1EF8
ENCODING 7928
SWIDTH 851 0
DWIDTH 14 0
BBX 16 24 0 -5
BITMAP
00014000
000BD340
001EBF40
00042E00
0BE002D0
3FF403D0
B4F403D0
D0F407C0
01F007C0
01F00B80
02E00F80
02D02F80
03D03F40
03E0EB40
02FFCF69
00BE1FFD
0001BF90
000BFE00
002F5E00
00B82D00
00F03C00
00F0B400
00FFE000
006F8000
ENDCHAR
STARTCHAR uni1EF9
ENCODING 7929
SWIDTH 479 0
DWIDTH 8 0
BBX 10 21 0 -8
BITMAP
010000
0FD340
1EFF00
042D00
000000
1D2C00
2D3C00
3C7800
3CB800
38F490
7EF7D0
3FBF40
2DB800
02F000
0BE000
2ED000
76C000
A3C000
E74000
FF0000
790000
ENDCHAR
STARTCHAR endash
ENCODING 8211
SWIDTH 484 0
DWIDTH 8 0
BBX 6 2 1 4
BITMAP
BFE0
FFF0
ENDCHAR
STARTCHAR emdash
ENCODING 8212
SWIDTH 620 0
DWIDTH 10 0
BBX 9 2 1 4
BITMAP
BFFE00
FFFF40
ENDCHAR
STARTCHAR quoteleft
ENCODING 8216
SWIDTH 237 0
DWIDTH 4 0
BBX 4 6 1 10
BITMAP
09
1D
2D
3D
7C
38
ENDCHAR
STARTCHAR quoteright
ENCODING 8217
SWIDTH 236 0
DWIDTH 4 0
BBX 3 6 2 10
BITMAP
74
B8
F4
F0
E0
D0
ENDCHAR
STARTCHAR quotesinglbase
ENCODING 8218
SWIDTH 257 0
DWIDTH 4 0
BBX 3 6 0 -3
BITMAP
2C
7C
7C
78
B4
A0
ENDCHAR
STARTCHAR quotedblleft
ENCODING 8220
SWIDTH 457 0
DWIDTH 7 0
BBX 7 6 1 10
BITMAP
091C
1D3C
2D78
3DB8
7CB8
38B4
ENDCHAR
STARTCHAR quotedblright
ENCODING 8221
SWIDTH 456 0
DWIDTH 7 0
BBX 7 6 2 10
BITMAP
74B0
B9F4
F5F0
F1E0
E2D0
D280
ENDCHAR
STARTCHAR quotedblbase
ENCODING 8222
SWIDTH 477 0
DWIDTH 8 0
BBX 7 6 0 -3
BITMAP
2C74
7CB8
7CF4
78F0
B4E0
A0D0
ENDCHAR
STARTCHAR dagger
ENCODING 8224
SWIDTH 588 0
DWIDTH 9 0
BBX 7 12 2 4
BITMAP
0280
03C0
0380
BFFC
BFF8
0740
0B40
0B00
0B00
0F00
0E00
0D00
ENDCHAR
STARTCHAR daggerdbl
ENCODING 8225
SWIDTH 588 0
DWIDTH 9 0
BBX 8 12 1 4
BITMAP
00A0
00F0
00E0
2FFF
2FFE
01D0
02C0
6FFD
7FFE
0380
0380
0340
ENDCHAR
STARTCHAR bullet
ENCODING 8226
SWIDTH 512 0
DWIDTH 8 0
BBX 6 5 1 1
BITMAP
1F80
3FD0
7FE0
7FD0
2F80
ENDCHAR
STARTCHAR ellipsis
ENCODING 8230
SWIDTH 777 0
DWIDTH 12 0
BBX 12 3 0 0
BITMAP
7C2D2D
BD7E7E
7C3D2D
ENDCHAR
STARTCHAR perthousand
ENCODING 8240
SWIDTH 1277 0
DWIDTH 20 0
BBX 21 13 0 0
BITMAP
0B801C000000
2EE03C000000
39F1F8000000
78FFF0000000
38BAE0000000
2FD3C0000000
054B45405400
000F2FE1FE00
002D38F38B00
007874B74B40
00B474B78B00
01E03EE3EE00
01D01F81F800
ENDCHAR
STARTCHAR guilsinglleft
ENCODING 8249
SWIDTH 350 0
DWIDTH 6 0
BBX 5 7 0 1
BITMAP
0280
1F80
7E00
B800
3E00
0F80
0380
ENDCHAR
STARTCHAR guilsinglright
ENCODING 8250
SWIDTH 350 0
DWIDTH 6 0
BBX 4 7 1 1
BITMAP
E0
F8
3E
0F
2F
F8
E0
ENDCHAR
STARTCHAR fraction
ENCODING 8260
SWIDTH 200 0
DWIDTH 3 0
BBX 7 11 -2 2
BITMAP
001C
003C
0078
00F0
02E0
03C0
0B40
1F00
2D00
7800
7400
ENDCHAR
STARTCHAR uni2074
ENCODING 8308
SWIDTH 450 0
DWIDTH 7 0
BBX 7 8 1 6
BITMAP
0B00
0E50
2DE0
39E0
7AE0
7FF4
02C0
01C0
ENDCHAR
STARTCHAR colonmonetary
ENCODING 8353
SWIDTH 517 0
DWIDTH 8 0
BBX 9 14 0 -2
BITMAP
000440
000DC0
01FE80
0BFF00
1E6B00
2DDF00
3D9900
3B7400
3E6000
3DD600
2FFE00
3BF400
760000
990000
ENDCHAR
STARTCHAR franc
ENCODING 8355
SWIDTH 750 0
DWIDTH 12 0
BBX 12 10 0 0
BITMAP
2FFFE0
1FFF90
1E0028
2FF8FC
2FFEFD
2C2F6E
3C3F2D
383E00
783D00
342800
ENDCHAR
STARTCHAR lira
ENCODING 8356
SWIDTH 525 0
DWIDTH 8 0
BBX 9 10 0 0
BITMAP
01FD00
07FF00
0F4B40
1E0200
7FF000
1D0000
7FE000
2D0000
7FFE00
BFFF00
ENDCHAR
STARTCHAR uni20A6
ENCODING 8358
SWIDTH 672 0
DWIDTH 11 0
BBX 11 10 0 0
BITMAP
0B00A0
0F80F0
0FD1E0
0FF1E0
7FFFF4
1D3ED0
7FFFF4
2D0FC0
2C07C0
2C0280
ENDCHAR
STARTCHAR peseta
ENCODING 8359
SWIDTH 1085 0
DWIDTH 17 0
BBX 17 11 0 0
BITMAP
1A90280000
3FF8380000
2E7C780000
1D2FFF8600
2D2FFE4E00
2C3CB01E00
3DB8F03F40
3FE0F07B80
7900F1E3C0
7800BF9BC0
74002E1F40
ENDCHAR
STARTCHAR uni20A9
ENCODING 8361
SWIDTH 775 0
DWIDTH 12 0
BBX 13 11 0 0
BITMAP
09050600
0E0E0B00
7FFFFF80
1E2E1D00
7FFFFF80
1E7E7800
0E7E7400
0EAEB000
0FDBE000
0BCBD000
07474000
ENDCHAR
STARTCHAR dong
ENCODING 8363
SWIDTH 463 0
DWIDTH 7 0
BBX 9 16 0 -3
BITMAP
000A00
001E00
1FFF40
2FFF40
002D00
06FC00
1FFC00
3E7800
7C7800
78B400
78F400
7FF400
2EB400
000000
BFFC00
BFF800
ENDCHAR
STARTCHAR Euro
ENCODING 8364
SWIDTH 552 0
DWIDTH 9 0
BBX 9 10 0 0
BITMAP
00BE00
03FF40
0B4780
1E0380
7FE100
2D0000
BFE000
1E0240
0FFF40
02F900
ENDCHAR
STARTCHAR uni20AD
ENCODING 8365
SWIDTH 590 0
DWIDTH 9 0
BBX 10 10 0 0
BITMAP
0B02C0
0F0780
0E0F00
1E7D00
BFFFC0
2EF540
2D7800
3C3D00
3C1FE0
280BD0
ENDCHAR
STARTCHAR uni20AE
ENCODING 8366
SWIDTH 513 0
DWIDTH 8 0
BBX 8 10 1 0
BITMAP
BFFD
BFFD
0740
07D0
6F40
5BA0
2F40
2E00
1E00
1D00
ENDCHAR
STARTCHAR uni20B1
ENCODING 8369
SWIDTH 557 0
DWIDTH 9 0
BBX 9 10 0 0
BITMAP
1BF400
1F6D00
7FFFC0
0E0E00
BFFF80
1E7C00
2FE000
2D0000
2C0000
2C0000
ENDCHAR
STARTCHAR uni20B2
ENCODING 8370
SWIDTH 599 0
DWIDTH 10 0
BBX 8 15 1 -2
BITMAP
0040
00C0
01C0
0BF8
2FFD
7A9D
F25D
F240
E36E
F32F
F71F
7FFF
1FEE
0A0E
0900
ENDCHAR
STARTCHAR uni20B4
ENCODING 8372
SWIDTH 570 0
DWIDTH 9 0
BBX 9 10 0 0
BITMAP
06F800
1FFE00
180E00
3FFF80
000000
7FFF80
1E0100
2D0B00
1FFE00
07F800
ENDCHAR
STARTCHAR uni20B5
ENCODING 8373
SWIDTH 517 0
DWIDTH 8 0
BBX 7 14 1 -2
BITMAP
00C0
01C0
06E0
2FF8
7AAC
B66C
F254
E340
F300
F718
7FF8
1FD0
0A00
0900
ENDCHAR
STARTCHAR uni20B8
ENCODING 8376
SWIDTH 522 0
DWIDTH 8 0
BBX 8 10 1 0
BITMAP
BFFD
BFFD
0000
BFF8
FFF8
0B00
0B00
0E00
0E00
0D00
ENDCHAR
STARTCHAR uni20B9
ENCODING 8377
SWIDTH 511 0
DWIDTH 8 0
BBX 9 9 0 0
BITMAP
3FFF40
7FFF40
00F000
02D000
7F4000
7F8000
07D000
01FE00
007E00
ENDCHAR
STARTCHAR uni20BA
ENCODING 8378
SWIDTH 452 0
DWIDTH 7 0
BBX 7 10 0 0
BITMAP
0B00
0F60
1FD0
2E50
7FD0
2E40
BD04
6D2C
2EF4
1F80
ENDCHAR
STARTCHAR uni20BC
ENCODING 8380
SWIDTH 673 0
DWIDTH 11 0
BBX 10 13 0 0
BITMAP
000400
001C00
001C00
00BE00
03FFC0
0BABD0
1F25E0
2E34E0
3D34F0
7C30F0
7870F0
B470F0
B460E0
ENDCHAR
STARTCHAR uni20BD
ENCODING 8381
SWIDTH 505 0
DWIDTH 8 0
BBX 8 10 0 0
BITMAP
0BE4
2FFD
0F1E
0F0E
1E1E
1E7C
7FE0
BFE0
3C00
2800
ENDCHAR
STARTCHAR uni2116
ENCODING 8470
SWIDTH 1198 0
DWIDTH 19 0
BBX 18 15 1 0
BITMAP
0B0BE01B80
1F2FF83FE0
1EB47C74F0
2ED07CB4B0
2F807C74E0
2F40B87FD0
3F00B81F40
3E00B40000
3D00F4BFD0
7C00F1FFC0
7C01F00000
B801F00000
B802E00000
B802E00000
B401D00000
ENDCHAR
STARTCHAR trademark
ENCODING 8482
SWIDTH 1150 0
DWIDTH 18 0
BBX 17 7 1 7
BITMAP
7FF69F5F40
0742E7A780
0B03C3C380
0B03838740
0E07474740
0E07474B00
0906060600
ENDCHAR
STARTCHAR partialdiff
ENCODING 8706
SWIDTH 451 0
DWIDTH 7 0
BBX 8 13 0 0
BITMAP
2E00
0BC0
01F0
00B8
003C
06BC
1FFD
3D3D
783C
783C
7878
3EF0
1B90
ENDCHAR
STARTCHAR product
ENCODING 8719
SWIDTH 700 0
DWIDTH 11 0
BBX 10 14 1 0
BITMAP
0AAAA0
1FFFF0
2D01E0
2D01E0
3D02D0
3C02D0
3C03C0
7803C0
7803C0
B40780
B40780
B40B40
F00B40
500500
ENDCHAR
STARTCHAR summation
ENCODING 8721
SWIDTH 700 0
DWIDTH 11 0
BBX 10 14 1 0
BITMAP
1AAAA0
2FFFE0
0F8000
07D000
01F400
007C00
002F00
002E00
00B800
02E000
0B8000
3E0000
FFAA40
FFFF40
ENDCHAR
STARTCHAR minus
ENCODING 8722
SWIDTH 700 0
DWIDTH 11 0
BBX 9 2 1 4
BITMAP
7FFF80
BFFFC0
ENDCHAR
STARTCHAR uni2215
ENCODING 8725
SWIDTH 700 0
DWIDTH 11 0
BBX 9 15 2 0
BITMAP
000740
000B40
001E00
003D00
007800
00F400
01E000
03C000
0B8000
0F0000
2E0000
3C0000
B40000
F00000
D00000
ENDCHAR
STARTCHAR uni2219
ENCODING 8729
SWIDTH 700 0
DWIDTH 11 0
BBX 3 3 4 2
BITMAP
14
BC
B8
ENDCHAR
STARTCHAR radical
ENCODING 8730
SWIDTH 700 0
DWIDTH 11 0
BBX 11 14 1 0
BITMAP
000028
000078
0000B0
0000E0
0002D0
000380
A40740
FD0F00
0E1D00
0B2C00
077800
03F000
02E000
01D000
ENDCHAR
STARTCHAR infinity
ENCODING 8734
SWIDTH 700 0
DWIDTH 11 0
BBX 11 6 0 1
BITMAP
1B87E0
3FFFF8
78B83C
747C38
7FFFF4
1F8BE0
ENDCHAR
STARTCHAR integral
ENCODING 8747
SWIDTH 700 0
DWIDTH 11 0
BBX 10 20 1 -5
BITMAP
000690
002FE0
007D00
007800
00B800
00B400
00B400
00F000
00F000
01F000
01E000
01E000
02E000
02D000
02D000
03C000
03C000
07C000
AF4000
FD0000
ENDCHAR
STARTCHAR approxequal
ENCODING 8776
SWIDTH 700 0
DWIDTH 11 0
BBX 10 8 1 1
BITMAP
1F41D0
3FF6D0
747F80
100500
2E0140
7FD3C0
F6FF40
E06E00
ENDCHAR
STARTCHAR notequal
ENCODING 8800
SWIDTH 700 0
DWIDTH 11 0
BBX 9 10 1 0
BITMAP
000400
002D00
6FFF80
7FFFC0
00E000
01D000
BFFF80
BFFF80
0F0000
0D0000
ENDCHAR
STARTCHAR lessequal
ENCODING 8804
SWIDTH 700 0
DWIDTH 11 0
BBX 10 9 1 0
BITMAP
0006D0
05BF90
3FE400
7E4000
1BF900
006F80
000140
AAAA80
BFFF80
ENDCHAR
STARTCHAR greaterequal
ENCODING 8805
SWIDTH 700 0
DWIDTH 11 0
BBX 10 9 1 0
BITMAP
3E4000
2FF900
01BFC0
001FD0
1BFE40
BE9000
500000
AAAA80
BFFF80
ENDCHAR
STARTCHAR lozenge
ENCODING 9674
SWIDTH 700 0
DWIDTH 11 0
BBX 8 15 2 0
BITMAP
00A0
02F0
03F4
0B78
1E2C
2C1D
780E
B00F
B01E
743C
38B4
2CE0
1FD0
0F80
0B00
ENDCHAR
STARTCHAR fi
ENCODING 64257
SWIDTH 633 0
DWIDTH 10 0
BBX 12 21 0 -5
BITMAP
002D00
00BE00
01DA00
03CA00
078EB4
0B5DF8
0F78A0
0FA000
7FFFD0
7FFFD0
2D02D0
2D63C0
2D73C2
2D73CB
2D73FD
2D71F4
2D6000
2DA000
1E9000
1FC000
0B4000
ENDCHAR
STARTCHAR fl
ENCODING 64258
SWIDTH 688 0
DWIDTH 11 0
BBX 12 22 1 -6
BITMAP
01E078
07F4FD
0B76CE
1E378E
2D7B4D
3CBB5D
78EF1C
7ACF38
BB4E74
BE1EE0
F81FC0
F7FF00
FBFE02
FA0F0B
EA0BFD
F702E4
F70000
F70000
F70000
B60000
BE0000
280000
ENDCHAR
STARTCHAR .notdef
ENCODING -1
SWIDTH 265 0
DWIDTH 4 0
BBX 1 1 0 0
BITMAP
00
ENDCHAR
STARTCHAR Iacute_J.loclNLD
ENCODING -1
SWIDTH 776 0
DWIDTH 12 0
BBX 14 19 1 0
BITMAP
002D00B0
00BD02F0
02E40B90
07401D00
1E003800
2E007800
2E007800
2E00B800
3D00B800
3D00F400
3D02F400
3C03F400
3E5FF000
2FFDF000
0BE5E000
0002D000
6407C000
7FFF4000
1BF80000
ENDCHAR
STARTCHAR A.ss01
ENCODING -1
SWIDTH 780 0
DWIDTH 12 0
BBX 12 15 1 0
BITMAP
001BFE
01FFFF
07E400
1F8078
2E00B8
7D00B4
B800F4
F801F0
F402F0
F402E0
F403E0
F40BE0
BC1FD0
3FFBD0
1BE2D0
ENDCHAR
STARTCHAR Aacute.ss01
ENCODING -1
SWIDTH 780 0
DWIDTH 12 0
BBX 13 19 1 0
BITMAP
00000780
00001F80
00007E00
0000E000
001BFE00
01FFFF00
07E40000
1F807800
2E00B800
7D00B400
B800F400
F801F000
F402F000
F402E000
F403E000
F40BE000
BC1FD000
3FFBD000
1BE2D000
ENDCHAR
STARTCHAR Abreve.ss01
ENCODING -1
SWIDTH 780 0
DWIDTH 12 0
BBX 12 18 1 0
BITMAP
001D0B
001FFE
0006F8
001BFE
01FFFF
07E400
1F8078
2E00B8
7D00B4
B800F4
F801F0
F402F0
F402E0
F403E0
F40BE0
BC1FD0
3FFBD0
1BE2D0
ENDCHAR
STARTCHAR uni1EAE.ss01
ENCODING -1
SWIDTH 780 0
DWIDTH 12 0
BBX 12 21 1 0
BITMAP
00001D
00007D
000455
001E1B
000FFE
0006A4
001BFE
01FFFF
07E400
1F8078
2E00B8
7D00B4
B800F4
F801F0
F402F0
F402E0
F403E0
F40BE0
BC1FD0
3FFBD0
1BE2D0
ENDCHAR
STARTCHAR uni1EB6.ss01
ENCODING -1
SWIDTH 780 0
DWIDTH 12 0
BBX 12 22 1 -4
BITMAP
001D0B
001FFE
0006F8
001BFE
01FFFF
07E400
1F8078
2E00B8
7D00B4
B800F4
F801F0
F402F0
F402E0
F403E0
F40BE0
BC1FD0
3FFBD0
1BE2D0
000000
00A000
02F400
01E000
ENDCHAR
STARTCHAR uni1EB0.ss01
ENCODING -1
SWIDTH 780 0
DWIDTH 12 0
BBX 12 21 1 0
BITMAP
000740
0007D0
000451
001E1B
000FFD
0001A4
001BFE
01FFFF
07E400
1F8078
2E00B8
7D00B4
B800F4
F801F0
F402F0
F402E0
F403E0
F40BE0
BC1FD0
3FFBD0
1BE2D0
ENDCHAR
STARTCHAR uni1EB2.ss01
ENCODING -1
SWIDTH 780 0
DWIDTH 12 0
BBX 12 21 1 0
BITMAP
0001F4
000038
0004E5
001D0B
001FFE
0006F8
001BFE
01FFFF
07E400
1F8078
2E00B8
7D00B4
B800F4
F801F0
F402F0
F402E0
F403E0
F40BE0
BC1FD0
3FFBD0
1BE2D0
ENDCHAR
STARTCHAR uni1EB4.ss01
ENCODING -1
SWIDTH 780 0
DWIDTH 12 0
BBX 13 22 1 0
BITMAP
00014100
0007E740
000EBE00
00041400
001D0700
001FAE00
0006F800
001BFE00
01FFFF00
07E40000
1F807800
2E00B800
7D00B400
B800F400
F801F000
F402F000
F402E000
F403E000
F40BE000
BC1FD000
3FFBD000
1BE2D000
ENDCHAR
STARTCHAR Acircumflex.ss01
ENCODING -1
SWIDTH 780 0
DWIDTH 12 0
BBX 12 20 1 0
BITMAP
000050
0002F4
0007BC
000B6D
000E1D
001BFE
01FFFF
07E400
1F8078
2E00B8
7D00B4
B800F4
F801F0
F402F0
F402E0
F403E0
F40BE0
BC1FD0
3FFBD0
1BE2D0
ENDCHAR
STARTCHAR uni1EA4.ss01
ENCODING -1
SWIDTH 780 0
DWIDTH 12 0
BBX 14 21 1 0
BITMAP
000001D0
000003D0
00005100
0002F800
000B6C00
000E1D00
001BFE00
01FFFF00
07E40000
1F807800
2E00B800
7D00B400
B800F400
F801F000
F402F000
F402E000
F403E000
F40BE000
BC1FD000
3FFBD000
1BE2D000
ENDCHAR
STARTCHAR uni1EAC.ss01
ENCODING -1
SWIDTH 780 0
DWIDTH 12 0
BBX 12 24 1 -4
BITMAP
000050
0002F4
0007BC
000B6D
000E1D
001BFE
01FFFF
07E400
1F8078
2E00B8
7D00B4
B800F4
F801F0
F402F0
F402E0
F403E0
F40BE0
BC1FD0
3FFBD0
1BE2D0
000000
00A000
02F400
01E000
ENDCHAR
STARTCHAR uni1EA6.ss01
ENCODING -1
SWIDTH 780 0
DWIDTH 12 0
BBX 12 21 1 0
BITMAP
007400
007D00
000550
0002F8
000B6C
000E1D
001BFE
01FFFF
07E400
1F8078
2E00B8
7D00B4
B800F4
F801F0
F402F0
F402E0
F403E0
F40BE0
BC1FD0
3FFBD0
1BE2D0
ENDCHAR
STARTCHAR uni1EA8.ss01
ENCODING -1
SWIDTH 780 0
DWIDTH 12 0
BBX 14 21 1 0
BITMAP
000007D0
000000A0
0001F7D0
0003B800
000F2D00
00050400
001BFE00
01FFFF00
07E40000
1F807800
2E00B800
7D00B400
B800F400
F801F000
F402F000
F402E000
F403E000
F40BE000
BC1FD000
3FFBD000
1BE2D000
ENDCHAR
STARTCHAR uni1EAA.ss01
ENCODING -1
SWIDTH 780 0
DWIDTH 12 0
BBX 12 21 1 0
BITMAP
0002D7
000ABE
000454
0002F4
00077C
000E1D
001BFE
01FFFF
07E400
1F8078
2E00B8
7D00B4
B800F4
F801F0
F402F0
F402E0
F403E0
F40BE0
BC1FD0
3FFBD0
1BE2D0
ENDCHAR
STARTCHAR uni0200.ss01
ENCODING -1
SWIDTH 780 0
DWIDTH 12 0
BBX 12 19 1 0
BITMAP
001CA0
002DB4
000E78
000628
001BFE
01FFFF
07E400
1F8078
2E00B8
7D00B4
B800F4
F801F0
F402F0
F402E0
F403E0
F40BE0
BC1FD0
3FFBD0
1BE2D0
ENDCHAR
STARTCHAR Adieresis.ss01
ENCODING -1
SWIDTH 780 0
DWIDTH 12 0
BBX 12 18 1 0
BITMAP
000A19
000F6E
000B1D
001BFE
01FFFF
07E400
1F8078
2E00B8
7D00B4
B800F4
F801F0
F402F0
F402E0
F403E0
F40BE0
BC1FD0
3FFBD0
1BE2D0
ENDCHAR
STARTCHAR uni1EA0.ss01
ENCODING -1
SWIDTH 780 0
DWIDTH 12 0
BBX 12 19 1 -4
BITMAP
001BFE
01FFFF
07E400
1F8078
2E00B8
7D00B4
B800F4
F801F0
F402F0
F402E0
F403E0
F40BE0
BC1FD0
3FFBD0
1BE2D0
000000
00A000
02F400
01E000
ENDCHAR
STARTCHAR Agrave.ss01
ENCODING -1
SWIDTH 780 0
DWIDTH 12 0
BBX 12 19 1 0
BITMAP
00B400
00BD00
002F40
0002C0
001BFE
01FFFF
07E400
1F8078
2E00B8
7D00B4
B800F4
F801F0
F402F0
F402E0
F403E0
F40BE0
BC1FD0
3FFBD0
1BE2D0
ENDCHAR
STARTCHAR uni1EA2.ss01
ENCODING -1
SWIDTH 780 0
DWIDTH 12 0
BBX 12 19 1 0
BITMAP
0002F4
0002FC
0000BC
0000F4
001BFE
01FFFF
07E400
1F8078
2E00B8
7D00B4
B800F4
F801F0
F402F0
F402E0
F403E0
F40BE0
BC1FD0
3FFBD0
1BE2D0
ENDCHAR
STARTCHAR uni0202.ss01
ENCODING -1
SWIDTH 780 0
DWIDTH 12 0
BBX 12 19 1 0
BITMAP
0002A8
000FFE
001E0F
000401
001BFE
01FFFF
07E400
1F8078
2E00B8
7D00B4
B800F4
F801F0
F402F0
F402E0
F403E0
F40BE0
BC1FD0
3FFBD0
1BE2D0
ENDCHAR
STARTCHAR Amacron.ss01
ENCODING -1
SWIDTH 780 0
DWIDTH 12 0
BBX 12 17 1 0
BITMAP
000BF8
000BFC
001BFE
01FFFF
07E400
1F8078
2E00B8
7D00B4
B800F4
F801F0
F402F0
F402E0
F403E0
F40BE0
BC1FD0
3FFBD0
1BE2D0
ENDCHAR
STARTCHAR Aogonek.ss01
ENCODING -1
SWIDTH 780 0
DWIDTH 12 0
BBX 12 19 1 -4
BITMAP
001BFE
01FFFF
07E400
1F8078
2E00B8
7D00B4
B800F4
F801F0
F402F0
F402E0
F403E0
F40BE0
BC1FD0
3FFBD0
1BE3C0
000B00
000E00
000FE0
0007E0
ENDCHAR
STARTCHAR Aring.ss01
ENCODING -1
SWIDTH 780 0
DWIDTH 12 0
BBX 12 20 1 0
BITMAP
0001F4
0003FC
00076C
0003F8
0001F4
001BFE
01FFFF
07E400
1F8078
2E00B8
7D00B4
B800F4
F801F0
F402F0
F402E0
F403E0
F40BE0
BC1FD0
3FFBD0
1BE2D0
ENDCHAR
STARTCHAR Aringacute.ss01
ENCODING -1
SWIDTH 780 0
DWIDTH 12 0
BBX 15 23 1 0
BITMAP
00000010
000000B8
0001A2E0
0003F940
00076C00
00076C00
0003F800
0001A000
001BFE00
01FFFF00
07E40000
1F807800
2E00B800
7D00B400
B800F400
F801F000
F402F000
F402E000
F403E000
F40BE000
BC1FD000
3FFBD000
1BE2D000
ENDCHAR
STARTCHAR Atilde.ss01
ENCODING -1
SWIDTH 780 0
DWIDTH 12 0
BBX 13 19 1 0
BITMAP
00010000
000FD740
002DFF00
00142D00
001BFE00
01FFFF00
07E40000
1F807800
2E00B800
7D00B400
B800F400
F801F000
F402F000
F402E000
F403E000
F40BE000
BC1FD000
3FFBD000
1BE2D000
ENDCHAR
STARTCHAR AE.ss01
ENCODING -1
SWIDTH 1057 0
DWIDTH 17 0
BBX 16 15 1 0
BITMAP
002F4BFF
01FF6FFE
07F43C00
1F807C00
2E00B800
7D00B800
B800F400
F801FFFC
F402FFF8
F402F000
F403F000
F40BF000
BC1EF801
3FFC7FFE
0BE01BF9
ENDCHAR
STARTCHAR AEacute.ss01
ENCODING -1
SWIDTH 1057 0
DWIDTH 17 0
BBX 16 19 1 0
BITMAP
00000074
000002F4
00000BD0
00000D00
002F4BFF
01FF6FFE
07F43C00
1F807C00
2E00B800
7D00B800
B800F400
F801FFFC
F402FFF8
F402F000
F403F000
F40BF000
BC1EF801
3FFC7FFE
0BE01BF9
ENDCHAR
STARTCHAR B.ss01
ENCODING -1
SWIDTH 826 0
DWIDTH 13 0
BBX 12 15 1 0
BITMAP
06FF90
1FFFF8
09007E
05002F
0F001F
1F003E
2E01BC
2D2FE0
3D2FE0
7C01F8
7C00B8
7800B8
B802F4
BFFFD0
6FFA00
ENDCHAR
STARTCHAR C.ss01
ENCODING -1
SWIDTH 704 0
DWIDTH 11 0
BBX 11 15 1 0
BITMAP
00BF80
03FFE0
0F81F0
2E00F4
3D00F0
7C00A0
B80000
F40000
F40000
F40000
B80000
BC0030
3E01F0
1FFFD0
06FE00
ENDCHAR
STARTCHAR Cacute.ss01
ENCODING -1
SWIDTH 704 0
DWIDTH 11 0
BBX 11 19 1 0
BITMAP
000028
0001F8
0007E0
000A40
00BF80
03FFE0
0F81F0
2E00F4
3D00F0
7C00A0
B80000
F40000
F40000
F40000
B80000
BC0030
3E01F0
1FFFD0
06FE00
ENDCHAR
STARTCHAR Ccaron.ss01
ENCODING -1
SWIDTH 704 0
DWIDTH 11 0
BBX 11 20 1 0
BITMAP
001050
0074F0
003AD0
002F80
000E00
00BF80
03FFE0
0F81F0
2E00F4
3D00F0
7C00A0
B80000
F40000
F40000
F40000
B80000
BC0030
3E01F0
1FFFD0
06FE00
ENDCHAR
STARTCHAR Ccedilla.ss01
ENCODING -1
SWIDTH 704 0
DWIDTH 11 0
BBX 11 19 1 -4
BITMAP
00BF80
07FFE0
0F81F0
2E00F4
7C00F0
B80050
B80000
F40000
F40000
F80000
BC0020
7E01F0
2FFFD0
0BFF40
02F800
002C00
003C00
0BF400
069000
ENDCHAR
STARTCHAR Ccircumflex.ss01
ENCODING -1
SWIDTH 704 0
DWIDTH 11 0
BBX 11 20 1 0
BITMAP
000500
001F80
003EC0
00B5D0
00A0D0
00BF80
03FFE0
0F81F0
2E00F4
3D00F0
7C00A0
B80000
F40000
F40000
F40000
B80000
BC0030
3E01F0
1FFFD0
06FE00
ENDCHAR
STARTCHAR Cdotaccent.ss01
ENCODING -1
SWIDTH 704 0
DWIDTH 11 0
BBX 11 18 1 0
BITMAP
000A00
001F40
001F00
00BF80
03FFE0
0F81F0
2E00F4
3D00F0
7C00A0
B80000
F40000
F40000
F40000
B80000
BC0030
3E01F0
1FFFD0
06FE00
ENDCHAR
STARTCHAR D.ss01
ENCODING -1
SWIDTH 810 0
DWIDTH 13 0
BBX 12 15 1 0
BITMAP
06FE40
1FFFE0
1501F8
05007C
0F003D
1F002E
2E002E
2D002E
3D003D
7C007D
7C00B8
7C01F4
B80BE0
BFFF40
6FE800
ENDCHAR
STARTCHAR uni01C4.ss01
ENCODING -1
SWIDTH 1455 0
DWIDTH 23 0
BBX 23 20 1 0
BITMAP
000000005050
00000000B1E0
0000000076C0
000000003F40
000000001E00
06FE402FFFF4
1FFFE02FFFF8
1501F80002F4
05007C0007E0
0F003D000BC0
1F002E002F40
2E002E007E00
2D002E00FC00
3D003D02F400
7C007D07E000
7C00B80FC000
7C01F42F4000
B80BE0BE0000
BFFF40FFFA90
6FE800FFFFE0
ENDCHAR
STARTCHAR Eth.ss01
ENCODING -1
SWIDTH 821 0
DWIDTH 13 0
BBX 13 15 0 0
BITMAP
00BF9000
01FFF800
02E07E00
02D01F40
03D00B80
07C00B80
6FFA0B80
BFFE0B80
0F400B80
0F400F40
1F001F00
1F007D00
1E01F800
2FFFE000
1BFA4000
ENDCHAR
STARTCHAR Dcaron.ss01
ENCODING -1
SWIDTH 810 0
DWIDTH 13 0
BBX 12 20 1 0
BITMAP
005040
00E1D0
00B780
003F40
002D00
06FE40
1FFFE0
1501F8
05007C
0F003D
1F002E
2E002E
2D002E
3D003D
7C007D
7C00B8
7C01F4
B80BE0
BFFF40
6FE800
ENDCHAR
STARTCHAR Dcroat.ss01
ENCODING -1
SWIDTH 821 0
DWIDTH 13 0
BBX 13 15 0 0
BITMAP
00BF9000
01FFF800
02E07E00
02D01F40
03D00B80
07C00B80
6FFA0B80
BFFE0B80
0F400B80
0F400F40
1F001F00
1F007D00
1E01F800
2FFFE000
1BFA4000
ENDCHAR
STARTCHAR E.ss01
ENCODING -1
SWIDTH 720 0
DWIDTH 12 0
BBX 12 15 0 0
BITMAP
006FE0
02FFF8
0BD03D
0F402D
0F403D
0B8014
02FD00
07FD00
1F4000
3D0000
7C0000
7D001D
3E007C
1FFFF4
06FE40
ENDCHAR
STARTCHAR Eacute.ss01
ENCODING -1
SWIDTH 720 0
DWIDTH 12 0
BBX 12 19 0 0
BITMAP
00001D
00007D
0002F4
000380
006FE0
02FFF8
0BD03D
0F402D
0F403D
0B8014
02FD00
07FD00
1F4000
3D0000
7C0000
7D001D
3E007C
1FFFF4
06FE40
ENDCHAR
STARTCHAR Ebreve.ss01
ENCODING -1
SWIDTH 720 0
DWIDTH 12 0
BBX 12 18 0 0
BITMAP
00742C
007FF8
001FE0
006FE0
02FFF8
0BD03D
0F402D
0F403D
0B8014
02FD00
07FD00
1F4000
3D0000
7C0000
7D001D
3E007C
1FFFF4
06FE40
ENDCHAR
STARTCHAR Ecaron.ss01
ENCODING -1
SWIDTH 720 0
DWIDTH 12 0
BBX 12 20 0 0
BITMAP
001414
002C74
001DF0
000FD0
000780
006FE0
02FFF8
0BD03D
0F402D
0F403D
0B8014
02FD00
07FD00
1F4000
3D0000
7C0000
7D001D
3E007C
1FFFF4
06FE40
ENDCHAR
STARTCHAR Ecircumflex.ss01
ENCODING -1
SWIDTH 720 0
DWIDTH 12 0
BBX 12 20 0 0
BITMAP
000140
000BD0
001EE0
003CB0
007470
006FE0
02FFF8
0BD03D
0F402D
0F403D
0B8014
02FD00
07FD00
1F4000
3D0000
7C0000
7D001D
3E007C
1FFFF4
06FE40
ENDCHAR
STARTCHAR uni1EBE.ss01
ENCODING -1
SWIDTH 720 0
DWIDTH 12 0
BBX 13 21 0 0
BITMAP
00000740
00001F40
00015400
000BD000
002DF000
00347000
006FE000
02FFF800
0BD03D00
0F402D00
0F403D00
0B801400
02FD0000
07FD0000
1F400000
3D000000
7C000000
7D001D00
3E007C00
1FFFF400
06FE4000
ENDCHAR
STARTCHAR uni1EC6.ss01
ENCODING -1
SWIDTH 720 0
DWIDTH 12 0
BBX 12 24 0 -4
BITMAP
000140
000BD0
001EE0
003CB0
007470
006FE0
02FFF8
0BD03D
0F402D
0F403D
0B8014
02FD00
07FD00
1F4000
3D0000
7C0000
7D001D
3E007C
1FFFF4
06FE40
000000
00A400
00F800
00B400
ENDCHAR
STARTCHAR uni1EC0.ss01
ENCODING -1
SWIDTH 720 0
DWIDTH 12 0
BBX 12 21 0 0
BITMAP
01C000
01F000
001140
000BD0
002DF0
003470
006FE0
02FFF8
0BD03D
0F402D
0F403D
0B8014
02FD00
07FD00
1F4000
3D0000
7C0000
7D001D
3E007C
1FFFF4
06FE40
ENDCHAR
STARTCHAR uni1EC2.ss01
ENCODING -1
SWIDTH 720 0
DWIDTH 12 0
BBX 13 21 0 0
BITMAP
00001F40
00000380
0007DE00
001EE000
0038B000
00101000
006FE000
02FFF800
0BD03D00
0F402D00
0F403D00
0B801400
02FD0000
07FD0000
1F400000
3D000000
7C000000
7D001D00
3E007C00
1FFFF400
06FE4000
ENDCHAR
STARTCHAR uni1EC4.ss01
ENCODING -1
SWIDTH 720 0
DWIDTH 12 0
BBX 12 21 0 0
BITMAP
001E5C
003AF8
001150
000BD0
002DF0
003870
006FE0
02FFF8
0BD03D
0F402D
0F403D
0B8014
02FD00
07FD00
1F4000
3D0000
7C0000
7D001D
3E007C
1FFFF4
06FE40
ENDCHAR
STARTCHAR uni0204.ss01
ENCODING -1
SWIDTH 720 0
DWIDTH 12 0
BBX 12 19 0 0
BITMAP
00A280
00B7C0
0075D0
002890
006FE0
02FFF8
0BD03D
0F402D
0F403D
0B8014
02FD00
07FD00
1F4000
3D0000
7C0000
7D001D
3E007C
1FFFF4
06FE40
ENDCHAR
STARTCHAR Edieresis.ss01
ENCODING -1
SWIDTH 720 0
DWIDTH 12 0
BBX 12 18 0 0
BITMAP
002864
007CF4
0038B4
006FE0
02FFF8
0BD03D
0F402D
0F403D
0B8014
02FD00
07FD00
1F4000
3D0000
7C0000
7D001D
3E007C
1FFFF4
06FE40
ENDCHAR
STARTCHAR Edotaccent.ss01
ENCODING -1
SWIDTH 720 0
DWIDTH 12 0
BBX 12 18 0 0
BITMAP
000680
000BC0
000B80
006FE0
02FFF8
0BD03D
0F402D
0F403D
0B8014
02FD00
07FD00
1F4000
3D0000
7C0000
7D001D
3E007C
1FFFF4
06FE40
ENDCHAR
STARTCHAR uni1EB8.ss01
ENCODING -1
SWIDTH 720 0
DWIDTH 12 0
BBX 12 19 0 -4
BITMAP
006FE0
02FFF8
0BD03D
0F402D
0F403D
0B8014
02FD00
07FD00
1F4000
3D0000
7C0000
7D001D
3E007C
1FFFF4
06FE40
000000
00A400
00F800
00B400
ENDCHAR
STARTCHAR Egrave.ss01
ENCODING -1
SWIDTH 720 0
DWIDTH 12 0
BBX 12 19 0 0
BITMAP
02C000
02F400
00BD00
000A00
006FE0
02FFF8
0BD03D
0F402D
0F403D
0B8014
02FD00
07FD00
1F4000
3D0000
7C0000
7D001D
3E007C
1FFFF4
06FE40
ENDCHAR
STARTCHAR uni1EBA.ss01
ENCODING -1
SWIDTH 720 0
DWIDTH 12 0
BBX 12 19 0 0
BITMAP
000BD0
000BE0
0006E0
000780
006FE0
02FFF8
0BD03D
0F402D
0F403D
0B8014
02FD00
07FD00
1F4000
3D0000
7C0000
7D001D
3E007C
1FFFF4
06FE40
ENDCHAR
STARTCHAR uni0206.ss01
ENCODING -1
SWIDTH 720 0
DWIDTH 12 0
BBX 12 19 0 0
BITMAP
000A90
003FF8
00B47C
005014
006FE0
02FFF8
0BD03D
0F402D
0F403D
0B8014
02FD00
07FD00
1F4000
3D0000
7C0000
7D001D
3E007C
1FFFF4
06FE40
ENDCHAR
STARTCHAR Emacron.ss01
ENCODING -1
SWIDTH 720 0
DWIDTH 12 0
BBX 12 17 0 0
BITMAP
002FE0
003FE0
006FE0
02FFF8
0BD03D
0F402D
0F403D
0B8014
02FD00
07FD00
1F4000
3D0000
7C0000
7D001D
3E007C
1FFFF4
06FE40
ENDCHAR
STARTCHAR Eogonek.ss01
ENCODING -1
SWIDTH 720 0
DWIDTH 12 0
BBX 12 19 0 -4
BITMAP
006FE0
02FFF8
0BD03D
0F402D
0F403D
0B8014
02FD00
07FD00
1F4000
3D0000
7C0000
7D001D
3E007C
1FFFE0
06FE40
002C00
003800
003FC0
001B80
ENDCHAR
STARTCHAR uni1EBC.ss01
ENCODING -1
SWIDTH 720 0
DWIDTH 12 0
BBX 12 19 0 0
BITMAP
001400
007F5C
00B7FC
0051B4
006FE0
02FFF8
0BD03D
0F402D
0F403D
0B8014
02FD00
07FD00
1F4000
3D0000
7C0000
7D001D
3E007C
1FFFF4
06FE40
ENDCHAR
STARTCHAR F.ss01
ENCODING -1
SWIDTH 671 0
DWIDTH 11 0
BBX 11 15 1 0
BITMAP
7FFFF8
6FFEA4
07C000
078000
0B8000
0B4000
0F4000
BFFF80
BFFE40
1F0000
2E0000
2E0000
2E0000
3D0000
2D0000
ENDCHAR
STARTCHAR G.ss01
ENCODING -1
SWIDTH 811 0
DWIDTH 13 0
BBX 11 19 1 -4
BITMAP
006F90
03FFF0
0F80B8
2E0078
3D00B8
7C0060
B80000
F40000
F406F8
F407FC
B8003C
7C003C
3F4078
0FFFF8
01BFB8
0000B4
0000B4
0000F0
0000A0
ENDCHAR
STARTCHAR Gbreve.ss01
ENCODING -1
SWIDTH 811 0
DWIDTH 13 0
BBX 11 22 1 -4
BITMAP
00E074
00BFF4
002F90
006F90
03FFF0
0F80B8
2E0078
3D00B8
7C0060
B80000
F40000
F406F8
F407FC
B8003C
7C003C
3F4078
0FFFF8
01BFB8
0000B4
0000B4
0000F0
0000A0
ENDCHAR
STARTCHAR Gcaron.ss01
ENCODING -1
SWIDTH 811 0
DWIDTH 13 0
BBX 11 24 1 -4
BITMAP
001010
0038B0
002DE0
001FC0
000B40
006F90
03FFF0
0F80B8
2E0078
3D00B8
7C0060
B80000
F40000
F406F8
F407FC
B8003C
7C003C
3F4078
0FFFF8
01BFB8
0000B4
0000B4
0000F0
0000A0
ENDCHAR
STARTCHAR Gcircumflex.ss01
ENCODING -1
SWIDTH 811 0
DWIDTH 13 0
BBX 11 24 1 -4
BITMAP
000140
000FC0
002ED0
0079E0
00B0A0
006F90
03FFF0
0F80B8
2E0078
3D00B8
7C0060
B80000
F40000
F406F8
F407FC
B8003C
7C003C
3F4078
0FFFF8
01BFB8
0000B4
0000B4
0000F0
0000A0
ENDCHAR
STARTCHAR uni0122.ss01
ENCODING -1
SWIDTH 811 0
DWIDTH 13 0
BBX 11 20 1 -5
BITMAP
006F90
03FFF0
0F80B8
2E0078
3D00B8
7C0060
B80000
F40000
F406F8
F407FC
B8003C
7C003C
3F4078
0FFFF8
01BFB8
0000B4
0070B4
00B4F0
00B0A0
00A000
ENDCHAR
STARTCHAR Gdotaccent.ss01
ENCODING -1
SWIDTH 811 0
DWIDTH 13 0
BBX 11 22 1 -4
BITMAP
000A40
001F80
000F40
006F90
03FFF0
0F80B8
2E0078
3D00B8
7C0060
B80000
F40000
F406F8
F407FC
B8003C
7C003C
3F4078
0FFFF8
01BFB8
0000B4
0000B4
0000F0
0000A0
ENDCHAR
STARTCHAR H.ss01
ENCODING -1
SWIDTH 846 0
DWIDTH 14 0
BBX 13 15 1 0
BITMAP
0B401E00
0F402E00
0F402E00
0F402E00
1F003D00
1F003D00
1E003C00
FFFFFF40
BFFFFE40
3D00B800
3C00B400
7C00F400
7C00F400
7801F000
7800E000
ENDCHAR
STARTCHAR Hbar.ss01
ENCODING -1
SWIDTH 856 0
DWIDTH 14 0
BBX 13 15 1 0
BITMAP
07401E00
0B401E00
0F402E00
7FFFFFC0
6FAABF80
1F003D00
1F003D00
BFFFFF40
BFFFFE40
3D00B800
3D00B800
3C00F400
7C00F400
7C00F400
7800F000
ENDCHAR
STARTCHAR Hcircumflex.ss01
ENCODING -1
SWIDTH 846 0
DWIDTH 14 0
BBX 13 20 1 0
BITMAP
00014000
000FC000
002ED000
0078E000
0074A000
0B401E00
0F402E00
0F402E00
0F402E00
1F003D00
1F003D00
1E003C00
FFFFFF40
BFFFFE40
3D00B800
3C00B400
7C00F400
7C00F400
7801F000
7800E000
ENDCHAR
STARTCHAR I.ss01
ENCODING -1
SWIDTH 357 0
DWIDTH 6 0
BBX 5 15 1 0
BITMAP
0B00
0F40
1F00
1F00
1E00
2E00
2D00
3D00
3D00
7C00
7C00
B800
B800
B800
B400
ENDCHAR
STARTCHAR Iacute.ss01
ENCODING -1
SWIDTH 357 0
DWIDTH 6 0
BBX 8 19 1 0
BITMAP
001D
00BD
02F4
0740
0B00
0F40
1F00
1F00
1E00
2E00
2D00
3D00
3D00
7C00
7C00
B800
B800
B800
B400
ENDCHAR
STARTCHAR Iacute_J.loclNLD.ss01
ENCODING -1
SWIDTH 776 0
DWIDTH 12 0
BBX 14 19 1 0
BITMAP
002D00B0
00BD02F0
02E40B90
07401D00
1E003800
2E007800
2E007800
2E00B800
3D00B800
3D00F400
3D02F400
3C03F400
3E5FF000
2FFDF000
0BE5E000
0002D000
6407C000
7FFF4000
1BF80000
ENDCHAR
STARTCHAR Ibreve.ss01
ENCODING -1
SWIDTH 357 0
DWIDTH 6 0
BBX 7 18 1 0
BITMAP
B028
BFF8
2FD0
0B00
0F40
1F00
1F00
1E00
2E00
2D00
3D00
3D00
7C00
7C00
B800
B800
B800
B400
ENDCHAR
STARTCHAR Icircumflex.ss01
ENCODING -1
SWIDTH 357 0
DWIDTH 6 0
BBX 6 20 1 0
BITMAP
0140
0BD0
1EE0
3CF0
74B0
0B00
0F40
1F00
1F00
1E00
2E00
2D00
3D00
3D00
7C00
7C00
B800
B800
B800
B400
ENDCHAR
STARTCHAR uni0208.ss01
ENCODING -1
SWIDTH 357 0
DWIDTH 6 0
BBX 6 19 1 0
BITMAP
A380
F3C0
75D0
2490
0B00
0F40
1F00
1F00
1E00
2E00
2D00
3D00
3D00
7C00
7C00
B800
B800
B800
B400
ENDCHAR
STARTCHAR Idieresis.ss01
ENCODING -1
SWIDTH 357 0
DWIDTH 6 0
BBX 7 18 1 0
BITMAP
28A0
7CF4
38B0
0B00
0F40
1F00
1F00
1E00
2E00
2D00
3D00
3D00
7C00
7C00
B800
B800
B800
B400
ENDCHAR
STARTCHAR Idotaccent.ss01
ENCODING -1
SWIDTH 357 0
DWIDTH 6 0
BBX 5 18 1 0
BITMAP
0640
0FC0
0B40
0B00
0F40
1F00
1F00
1E00
2E00
2D00
3D00
3D00
7C00
7C00
B800
B800
B800
B400
ENDCHAR
STARTCHAR uni1ECA.ss01
ENCODING -1
SWIDTH 357 0
DWIDTH 6 0
BBX 6 19 0 -4
BITMAP
02C0
03D0
07C0
07C0
0780
0B80
0B40
0F40
0F40
1F00
1F00
2E00
2E00
2E00
2D00
0000
2800
7D00
7C00
ENDCHAR
STARTCHAR Igrave.ss01
ENCODING -1
SWIDTH 357 0
DWIDTH 6 0
BBX 6 19 0 0
BITMAP
A000
FC00
2F40
0680
02C0
03D0
07C0
07C0
0780
0B80
0B40
0F40
0F40
1F00
1F00
2E00
2E00
2E00
2D00
ENDCHAR
STARTCHAR uni1EC8.ss01
ENCODING -1
SWIDTH 357 0
DWIDTH 6 0
BBX 6 19 1 0
BITMAP
0BD0
0BE0
07E0
0780
0B00
0F40
1F00
1F00
1E00
2E00
2D00
3D00
3D00
7C00
7C00
B800
B800
B800
B400
ENDCHAR
STARTCHAR uni020A.ss01
ENCODING -1
SWIDTH 357 0
DWIDTH 6 0
BBX 7 19 1 0
BITMAP
1A90
7FF4
B47C
5014
0B00
0F40
1F00
1F00
1E00
2E00
2D00
3D00
3D00
7C00
7C00
B800
B800
B800
B400
ENDCHAR
STARTCHAR Imacron.ss01
ENCODING -1
SWIDTH 357 0
DWIDTH 6 0
BBX 6 17 1 0
BITMAP
2FE0
3FE0
0B00
0F40
1F00
1F00
1E00
2E00
2D00
3D00
3D00
7C00
7C00
B800
B800
B800
B400
ENDCHAR
STARTCHAR Iogonek.ss01
ENCODING -1
SWIDTH 357 0
DWIDTH 6 0
BBX 6 19 0 -4
BITMAP
02C0
03D0
07C0
07C0
0780
0B80
0B40
0F40
0F00
1F00
1F00
2E00
2E00
2E00
2C00
7400
B400
7F80
1A40
ENDCHAR
STARTCHAR Itilde.ss01
ENCODING -1
SWIDTH 357 0
DWIDTH 6 0
BBX 7 19 1 0
BITMAP
1400
7E1C
FBF8
51E0
0B00
0F40
1F00
1F00
1E00
2E00
2D00
3D00
3D00
7C00
7C00
B800
B800
B800
B400
ENDCHAR
STARTCHAR J.ss01
ENCODING -1
SWIDTH 716 0
DWIDTH 11 0
BBX 11 15 1 0
BITMAP
06FFA0
2FFFF4
7902E0
B402E0
B403D0
7403D0
1003C0
0007C0
0007C0
000780
000B40
A00F00
B82E00
7FFC00
1BE000
ENDCHAR
STARTCHAR Jcircumflex.ss01
ENCODING -1
SWIDTH 716 0
DWIDTH 11 0
BBX 11 20 1 0
BITMAP
000500
002F00
00BB80
00F3C0
01D280
06FFA0
2FFFF4
7902E0
B402E0
B403D0
7403D0
1003C0
0007C0
0007C0
000780
000B40
A00F00
B82E00
7FFC00
1BE000
ENDCHAR
STARTCHAR K.ss01
ENCODING -1
SWIDTH 779 0
DWIDTH 12 0
BBX 12 15 1 0
BITMAP
0B002C
0F407C
0F40B8
1F00F4
1F01F0
1E07D0
2E1F40
BFFD00
BFF400
3D7D00
7C2E00
7C1F40
B80B80
B807FD
7401F8
ENDCHAR
STARTCHAR uni0136.ss01
ENCODING -1
SWIDTH 779 0
DWIDTH 12 0
BBX 12 20 1 -5
BITMAP
0B002C
0F407C
0F40B8
1F00F4
1F01F0
1E07D0
2E1F40
BFFD00
BFF400
3D7D00
7C2E00
7C1F40
B80B80
B807FD
7401F8
000000
00D000
01E000
01D000
01C000
ENDCHAR
STARTCHAR L.ss01
ENCODING -1
SWIDTH 625 0
DWIDTH 10 0
BBX 9 15 1 0
BITMAP
0B0000
1F0000
1F0000
1F0000
2E0000
2E0000
3D0000
3D0000
3C0000
7C0000
7C0000
B80000
B80000
BFFF80
BFFF80
ENDCHAR
STARTCHAR uni01C7.ss01
ENCODING -1
SWIDTH 1291 0
DWIDTH 21 0
BBX 20 15 1 0
BITMAP
0B0001AFF9
1F000BFFFE
1F001F407C
1F002D00B8
2E002D00B8
2E001E00B8
3D000400F4
3D000000F4
3C000000F0
7C000001F0
7C000001E0
B8001C02D0
B8001E07C0
BFFF8FFF40
BFFF82F900
ENDCHAR
STARTCHAR Lacute.ss01
ENCODING -1
SWIDTH 625 0
DWIDTH 10 0
BBX 9 19 1 0
BITMAP
001D00
00BD00
02F400
074000
0B0000
1F0000
1F0000
1F0000
2E0000
2E0000
3D0000
3D0000
3C0000
7C0000
7C0000
B80000
B80000
BFFF80
BFFF80
ENDCHAR
STARTCHAR Lcaron.ss01
ENCODING -1
SWIDTH 625 0
DWIDTH 10 0
BBX 9 15 1 0
BITMAP
0B0000
1F0240
1F0780
1F0740
2E0700
2E0000
3D0000
3D0000
3C0000
7C0000
7C0000
B80000
B80000
BFFF80
BFFF80
ENDCHAR
STARTCHAR uni013B.ss01
ENCODING -1
SWIDTH 625 0
DWIDTH 10 0
BBX 9 20 1 -5
BITMAP
0B0000
1F0000
1F0000
1F0000
2E0000
2E0000
3D0000
3D0000
3C0000
7C0000
7C0000
B80000
B80000
BFFF80
BFFF80
000000
01C000
02D000
02C000
028000
ENDCHAR
STARTCHAR Ldot.ss01
ENCODING -1
SWIDTH 625 0
DWIDTH 10 0
BBX 9 15 1 0
BITMAP
0B0000
1F0000
1F0000
1F0000
2E0000
2E0000
3D0A00
3D2F40
3C1E00
7C0000
7C0000
B80000
B80000
BFFF80
BFFF80
ENDCHAR
STARTCHAR uni01C8.ss01
ENCODING -1
SWIDTH 854 0
DWIDTH 14 0
BBX 13 23 1 -8
BITMAP
0B000000
1F000000
1F000000
1F000680
2E000BC0
2E000780
3D000000
3D000740
3C000B40
7C000F00
7C000F00
B8000F00
B8000E00
BFFF9E00
BFFF9D00
00007D00
0001FC00
0003BC00
000A3800
001D7400
002CF000
002FD000
000B8000
ENDCHAR
STARTCHAR Lslash.ss01
ENCODING -1
SWIDTH 625 0
DWIDTH 10 0
BBX 10 15 0 0
BITMAP
02C000
07C000
07C000
07C600
0BAF00
0BF800
0FD000
7F4000
7F0000
1F0000
1F0000
2E0000
2E0000
2FFFE0
2FFFE0
ENDCHAR
STARTCHAR M.ss01
ENCODING -1
SWIDTH 1139 0
DWIDTH 18 0
BBX 17 15 1 0
BITMAP
0B0B80BD00
1F3FE2FF40
1EA0F74F40
1EC0FD0F40
2F80FC0F40
2F01F80F40
3F01F41F00
3E02F01F00
3D02E02E00
7C02E02E00
7C03D03D00
B803D03D00
B807C03D00
B807C07C00
B407803800
ENDCHAR
STARTCHAR N.ss01
ENCODING -1
SWIDTH 799 0
DWIDTH 13 0
BBX 11 15 1 0
BITMAP
0B0BE0
1F2FF8
1EB47C
2ED07C
2F807C
2F40B8
3F00B8
3E00B4
3D00F4
7C00F0
7C01F0
B801F0
B802E0
B802E0
B401D0
ENDCHAR
STARTCHAR uni01CA.ss01
ENCODING -1
SWIDTH 1515 0
DWIDTH 24 0
BBX 24 15 1 0
BITMAP
0B0BE001BFE8
1F2FF80BFFFD
1EB47C2E00F8
2ED07C3C00F4
2F807C3C00F4
2F40B82D01F0
3F00B80401F0
3E00B40001E0
3D00F40002E0
7C00F00002D0
7C01F00003D0
B801F03807C0
B802E03D0B40
B802E01FFE00
B401D006F800
ENDCHAR
STARTCHAR Nacute.ss01
ENCODING -1
SWIDTH 799 0
DWIDTH 13 0
BBX 11 19 1 0
BITMAP
000028
0001F8
0007E0
000A40
0B0BE0
1F2FF8
1EB47C
2ED07C
2F807C
2F40B8
3F00B8
3E00B4
3D00F4
7C00F0
7C01F0
B801F0
B802E0
B802E0
B401D0
ENDCHAR
STARTCHAR Ncaron.ss01
ENCODING -1
SWIDTH 799 0
DWIDTH 13 0
BBX 11 20 1 0
BITMAP
001050
0074E0
003AD0
002F80
000E00
0B0BE0
1F2FF8
1EB47C
2ED07C
2F807C
2F40B8
3F00B8
3E00B4
3D00F4
7C00F0
7C01F0
B801F0
B802E0
B802E0
B401D0
ENDCHAR
STARTCHAR uni0145.ss01
ENCODING -1
SWIDTH 799 0
DWIDTH 13 0
BBX 11 20 1 -5
BITMAP
0B0BE0
1F2FF8
1EB47C
2ED07C
2F807C
2F40B8
3F00B8
3E00B4
3D00F4
7C00F0
7C01F0
B801F0
B802E0
B802E0
B401D0
000000
00D000
01E000
01D000
01C000
ENDCHAR
STARTCHAR Eng.ss01
ENCODING -1
SWIDTH 792 0
DWIDTH 13 0
BBX 11 21 1 -6
BITMAP
0B0BE0
1F2FF8
1EB4BC
1ED07C
2F80B8
2F40B8
3F00F4
3E00F4
3D01F0
7D01E0
7C02E0
B802D0
B803D0
B807C0
B40780
000B40
000F00
101E00
B82D00
7FF800
1BE000
ENDCHAR
STARTCHAR uni01CB.ss01
ENCODING -1
SWIDTH 1008 0
DWIDTH 16 0
BBX 16 23 1 -8
BITMAP
0B0BE000
1F2FF800
1EB47C00
2ED07C29
2F807C7E
2F40B83D
3F00B800
3E00B438
3D00F478
7C00F078
7C01F074
B801F0B4
B802E0B4
B802E0B0
B401D0F0
000002E0
00000BE0
00002ED0
000076C0
0000A380
0000D740
0000FF00
0000B800
ENDCHAR
STARTCHAR Ntilde.ss01
ENCODING -1
SWIDTH 799 0
DWIDTH 13 0
BBX 11 19 1 0
BITMAP
001400
00FD34
01EFF4
0042D0
0B0BE0
1F2FF8
1EB47C
2ED07C
2F807C
2F40B8
3F00B8
3E00B4
3D00F4
7C00F0
7C01F0
B801F0
B802E0
B802E0
B401D0
ENDCHAR
STARTCHAR OE.ss01
ENCODING -1
SWIDTH 1166 0
DWIDTH 19 0
BBX 18 15 1 0
BITMAP
00BF91FFF0
03FFF7FFE0
0F80BFC000
2E003F8000
3D002F8000
78002F4000
B8002F4000
F4002FFF80
F4002FFF80
F4003E0000
B8007E0000
BC00FE0000
3E02FF4040
1FFF8BFFE0
06F901BF80
ENDCHAR
STARTCHAR P.ss01
ENCODING -1
SWIDTH 662 0
DWIDTH 11 0
BBX 10 15 1 0
BITMAP
1BF900
7FFF80
5F47D0
0F42E0
0F02E0
1F02E0
1F07D0
2E1F80
FFFE00
BFE400
3D0000
3C0000
7C0000
7C0000
780000
ENDCHAR
STARTCHAR Thorn.ss01
ENCODING -1
SWIDTH 658 0
DWIDTH 11 0
BBX 11 15 0 0
BITMAP
01D000
02E000
03D000
0BFE40
2FFFD0
1BC2F0
07C0F4
0B80F4
0B81F0
0F47D0
7FFF80
2FA800
1F0000
1F0000
1E0000
ENDCHAR
STARTCHAR Q.ss01
ENCODING -1
SWIDTH 816 0
DWIDTH 13 0
BBX 12 19 1 -4
BITMAP
00BF90
07FFF4
0F80BC
2E003D
7C002E
B8002E
B8002E
F4002E
F4003D
F8007C
B800B8
7D02F4
2FEFD0
0BFE40
007D00
002F00
000F80
0007D0
000280
ENDCHAR
STARTCHAR R.ss01
ENCODING -1
SWIDTH 744 0
DWIDTH 12 0
BBX 11 15 1 0
BITMAP
1BF900
7FFF80
6F4BD0
0F43D0
0F03E0
1F03D0
1F0BC0
1E6F40
7FF900
7FF400
3DBC00
3C3E00
7C1F40
7C0FF8
7802F8
ENDCHAR
STARTCHAR Racute.ss01
ENCODING -1
SWIDTH 744 0
DWIDTH 12 0
BBX 11 19 1 0
BITMAP
0000A0
0007E0
001F80
002900
1BF900
7FFF80
6F4BD0
0F43D0
0F03E0
1F03D0
1F0BC0
1E6F40
7FF900
7FF400
3DBC00
3C3E00
7C1F40
7C0FF8
7802F8
ENDCHAR
STARTCHAR Rcaron.ss01
ENCODING -1
SWIDTH 744 0
DWIDTH 12 0
BBX 11 20 1 0
BITMAP
004140
01D3C0
00EB40
00BE00
003800
1BF900
7FFF80
6F4BD0
0F43D0
0F03E0
1F03D0
1F0BC0
1E6F40
7FF900
7FF400
3DBC00
3C3E00
7C1F40
7C0FF8
7802F8
ENDCHAR
STARTCHAR uni0156.ss01
ENCODING -1
SWIDTH 744 0
DWIDTH 12 0
BBX 11 20 1 -5
BITMAP
1BF900
7FFF80
6F4BD0
0F43D0
0F03E0
1F03D0
1F0BC0
1E6F40
7FF900
7FF400
3DBC00
3C3E00
7C1F40
7C0FF8
7802F8
000000
01D000
01D000
01D000
018000
ENDCHAR
STARTCHAR uni0210.ss01
ENCODING -1
SWIDTH 744 0
DWIDTH 12 0
BBX 11 19 1 0
BITMAP
075C00
079D00
03CE00
01C600
1BF900
7FFF80
6F4BD0
0F43D0
0F03E0
1F03D0
1F0BC0
1E6F40
7FF900
7FF400
3DBC00
3C3E00
7C1F40
7C0FF8
7802F8
ENDCHAR
STARTCHAR uni0212.ss01
ENCODING -1
SWIDTH 744 0
DWIDTH 12 0
BBX 11 19 1 0
BITMAP
006A00
02FFC0
0782D0
010040
1BF900
7FFF80
6F4BD0
0F43D0
0F03E0
1F03D0
1F0BC0
1E6F40
7FF900
7FF400
3DBC00
3C3E00
7C1F40
7C0FF8
7802F8
ENDCHAR
STARTCHAR T.ss01
ENCODING -1
SWIDTH 631 0
DWIDTH 10 0
BBX 11 15 1 0
BITMAP
6FFFF8
BFFFF8
00F400
00F400
01F000
01F000
02E000
02E000
03D000
03D000
03C000
07C000
07C000
0B8000
074000
ENDCHAR
STARTCHAR Tbar.ss01
ENCODING -1
SWIDTH 631 0
DWIDTH 10 0
BBX 11 15 1 0
BITMAP
6FFFF8
BFFFF8
00F400
00F400
01F000
01F000
02E000
7FFF40
6FFE00
03D000
03C000
07C000
07C000
078000
074000
ENDCHAR
STARTCHAR Tcaron.ss01
ENCODING -1
SWIDTH 631 0
DWIDTH 10 0
BBX 11 20 1 0
BITMAP
004140
02C380
01DB40
00BD00
007800
6FFFF8
BFFFF8
00F400
00F400
01F000
01F000
02E000
02E000
03D000
03D000
03C000
07C000
07C000
0B8000
074000
ENDCHAR
STARTCHAR uni0162.ss01
ENCODING -1
SWIDTH 631 0
DWIDTH 10 0
BBX 11 19 1 -4
BITMAP
6FFFF8
BFFFF8
00F400
00F000
01F000
01E000
02E000
02D000
03D000
03C000
07C000
07C000
0B8000
0F8000
1FD000
01D000
01D000
3FC000
2A0000
ENDCHAR
STARTCHAR uni021A.ss01
ENCODING -1
SWIDTH 631 0
DWIDTH 10 0
BBX 11 20 1 -5
BITMAP
6FFFF8
BFFFF8
00F400
00F400
01F000
01F000
02E000
02E000
03D000
03D000
03C000
07C000
07C000
0B8000
074000
000000
074000
0B4000
0B0000
060000
ENDCHAR
STARTCHAR U.ss01
ENCODING -1
SWIDTH 800 0
DWIDTH 13 0
BBX 12 15 1 0
BITMAP
0B002C
0F403D
1F003C
1F007C
1E007C
2E00B8
2D00F8
3D01F8
3C02F4
7C03F4
7C07F0
780EF0
7D7DF0
7FF5E0
1F91D0
ENDCHAR
STARTCHAR Uacute.ss01
ENCODING -1
SWIDTH 800 0
DWIDTH 13 0
BBX 12 19 1 0
BITMAP
000028
0000FC
0007E0
000A40
0B002C
0F403D
1F003C
1F007C
1E007C
2E00B8
2D00F8
3D01F8
3C02F4
7C03F4
7C07F0
780EF0
7D7DF0
7FF5E0
1F91D0
ENDCHAR
STARTCHAR Ubreve.ss01
ENCODING -1
SWIDTH 800 0
DWIDTH 13 0
BBX 12 18 1 0
BITMAP
00E074
00FFF0
006F90
0B002C
0F403D
1F003C
1F007C
1E007C
2E00B8
2D00F8
3D01F8
3C02F4
7C03F4
7C07F0
780EF0
7D7DF0
7FF5E0
1F91D0
ENDCHAR
STARTCHAR Ucircumflex.ss01
ENCODING -1
SWIDTH 800 0
DWIDTH 13 0
BBX 12 20 1 0
BITMAP
000500
001F80
003EC0
00B5D0
00A0D0
0B002C
0F403D
1F003C
1F007C
1E007C
2E00B8
2D00F8
3D01F8
3C02F4
7C03F4
7C07F0
780EF0
7D7DF0
7FF5E0
1F91D0
ENDCHAR
STARTCHAR uni0214.ss01
ENCODING -1
SWIDTH 800 0
DWIDTH 13 0
BBX 12 19 1 0
BITMAP
01D700
01E740
00B380
007180
0B002C
0F403D
1F003C
1F007C
1E007C
2E00B8
2D00F8
3D01F8
3C02F4
7C03F4
7C07F0
780EF0
7D7DF0
7FF5E0
1F91D0
ENDCHAR
STARTCHAR Udieresis.ss01
ENCODING -1
SWIDTH 800 0
DWIDTH 13 0
BBX 12 18 1 0
BITMAP
006490
00B9F0
00B5D0
0B002C
0F403D
1F003C
1F007C
1E007C
2E00B8
2D00F8
3D01F8
3C02F4
7C03F4
7C07F0
780EF0
7D7DF0
7FF5E0
1F91D0
ENDCHAR
STARTCHAR uni1EE4.ss01
ENCODING -1
SWIDTH 800 0
DWIDTH 13 0
BBX 12 19 1 -4
BITMAP
0B002C
0F403D
1F003C
1F007C
1E007C
2E00B8
2D00F8
3D01F8
3C02F4
7C03F4
7C07F0
780EF0
7D7DF0
7FF5E0
1F91D0
000000
00A000
02F400
01E000
ENDCHAR
STARTCHAR Ugrave.ss01
ENCODING -1
SWIDTH 800 0
DWIDTH 13 0
BBX 12 19 1 0
BITMAP
074000
07E000
01F800
001C00
0B002C
0F403D
1F003C
1F007C
1E007C
2E00B8
2D00F8
3D01F8
3C02F4
7C03F4
7C07F0
780EF0
7D7DF0
7FF5E0
1F91D0
ENDCHAR
STARTCHAR uni1EE6.ss01
ENCODING -1
SWIDTH 800 0
DWIDTH 13 0
BBX 12 19 1 0
BITMAP
001F80
001FD0
000BC0
000F40
0B002C
0F403D
1F003C
1F007C
1E007C
2E00B8
2D00F8
3D01F8
3C02F4
7C03F4
7C07F0
780EF0
7D7DF0
7FF5E0
1F91D0
ENDCHAR
STARTCHAR Uhorn.ss01
ENCODING -1
SWIDTH 800 0
DWIDTH 13 0
BBX 14 17 1 0
BITMAP
000000E0
000002E0
0B002FD0
0F403F80
1F003D00
1F007C00
1E007C00
2E00BC00
2D00F800
3D01F800
3C02F400
7C03F400
7C07F400
780EF000
7D7DF000
7FF5E000
1F91D000
ENDCHAR
STARTCHAR uni1EE8.ss01
ENCODING -1
SWIDTH 800 0
DWIDTH 13 0
BBX 14 19 1 0
BITMAP
00002800
0000FC00
0007E0E0
000A42E0
0B002FD0
0F403F80
1F003D00
1F007C00
1E007C00
2E00BC00
2D00F800
3D01F800
3C02F400
7C03F400
7C07F400
780EF000
7D7DF000
7FF5E000
1F91D000
ENDCHAR
STARTCHAR uni1EF0.ss01
ENCODING -1
SWIDTH 800 0
DWIDTH 13 0
BBX 14 21 1 -4
BITMAP
000000E0
000002E0
0B002FD0
0F403F80
1F003D00
1F007C00
1E007C00
2E00BC00
2D00F800
3D01F800
3C02F400
7C03F400
7C07F400
780EF000
7D7DF000
7FF5E000
1F91D000
00000000
00A00000
02F40000
01E00000
ENDCHAR
STARTCHAR uni1EEA.ss01
ENCODING -1
SWIDTH 800 0
DWIDTH 13 0
BBX 14 19 1 0
BITMAP
07400000
07E00000
01F800E0
001C02E0
0B002FD0
0F403F80
1F003D00
1F007C00
1E007C00
2E00BC00
2D00F800
3D01F800
3C02F400
7C03F400
7C07F400
780EF000
7D7DF000
7FF5E000
1F91D000
ENDCHAR
STARTCHAR uni1EEC.ss01
ENCODING -1
SWIDTH 800 0
DWIDTH 13 0
BBX 14 19 1 0
BITMAP
001F8000
001FD000
000BC0E0
000F42E0
0B002FD0
0F403F80
1F003D00
1F007C00
1E007C00
2E00BC00
2D00F800
3D01F800
3C02F400
7C03F400
7C07F400
780EF000
7D7DF000
7FF5E000
1F91D000
ENDCHAR
STARTCHAR uni1EEE.ss01
ENCODING -1
SWIDTH 800 0
DWIDTH 13 0
BBX 14 19 1 0
BITMAP
00140000
00BD3400
01EBF4E0
0042E2E0
0B002FD0
0F403F80
1F003D00
1F007C00
1E007C00
2E00BC00
2D00F800
3D01F800
3C02F400
7C03F400
7C07F400
780EF000
7D7DF000
7FF5E000
1F91D000
ENDCHAR
STARTCHAR Uhungarumlaut.ss01
ENCODING -1
SWIDTH 800 0
DWIDTH 13 0
BBX 12 19 1 0
BITMAP
001C70
002DB0
0038E0
0031C0
0B002C
0F403D
1F003C
1F007C
1E007C
2E00B8
2D00F8
3D01F8
3C02F4
7C03F4
7C07F0
780EF0
7D7DF0
7FF5E0
1F91D0
ENDCHAR
STARTCHAR uni0216.ss01
ENCODING -1
SWIDTH 800 0
DWIDTH 13 0
BBX 12 19 1 0
BITMAP
001A80
00BFF0
00E0B4
004010
0B002C
0F403D
1F003C
1F007C
1E007C
2E00B8
2D00F8
3D01F8
3C02F4
7C03F4
7C07F0
780EF0
7D7DF0
7FF5E0
1F91D0
ENDCHAR
STARTCHAR Umacron.ss01
ENCODING -1
SWIDTH 800 0
DWIDTH 13 0
BBX 12 17 1 0
BITMAP
007F90
00BFD0
0B002C
0F403D
1F003C
1F007C
1E007C
2E00B8
2D00F8
3D01F8
3C02F4
7C03F4
7C07F0
780EF0
7D7DF0
7FF5E0
1F91D0
ENDCHAR
STARTCHAR Uogonek.ss01
ENCODING -1
SWIDTH 800 0
DWIDTH 13 0
BBX 12 20 1 -5
BITMAP
0B002C
0F403D
1F003C
1F007C
1E007C
2E00B8
2D00F8
3D01F8
3C02F4
7C03F4
7C07F4
780EF0
7D7DF0
7FF5E0
1F91E0
000380
000740
000740
0007F8
0001A4
ENDCHAR
STARTCHAR Uring.ss01
ENCODING -1
SWIDTH 800 0
DWIDTH 13 0
BBX 12 20 1 0
BITMAP
001F40
002FC0
0035D0
003FC0
001F40
0B002C
0F403D
1F003C
1F007C
1E007C
2E00B8
2D00F8
3D01F8
3C02F4
7C03F4
7C07F0
780EF0
7D7DF0
7FF5E0
1F91D0
ENDCHAR
STARTCHAR Utilde.ss01
ENCODING -1
SWIDTH 800 0
DWIDTH 13 0
BBX 12 19 1 0
BITMAP
001400
00BD34
01EBF4
0042E0
0B002C
0F403D
1F003C
1F007C
1E007C
2E00B8
2D00F8
3D01F8
3C02F4
7C03F4
7C07F0
780EF0
7D7DF0
7FF5E0
1F91D0
ENDCHAR
STARTCHAR V.ss01
ENCODING -1
SWIDTH 797 0
DWIDTH 13 0
BBX 11 15 2 0
BITMAP
78003C
B8007C
B800B8
F400F8
F400F4
F401F0
F402E0
F403D0
F407C0
F40B80
B80F40
B82E00
7EBC00
2FF400
0B9000
ENDCHAR
STARTCHAR W.ss01
ENCODING -1
SWIDTH 1236 0
DWIDTH 20 0
BBX 18 15 2 0
BITMAP
7800B000F0
B801F001F0
B801F002E0
F402F002E0
F402F003D0
F403E007C0
F407E00B80
F40BE00B40
F40FE00F00
F41EE01E00
B42DF03D00
B878F07800
7DF4B9F400
3FE07FD000
1F802F4000
ENDCHAR
STARTCHAR Wacute.ss01
ENCODING -1
SWIDTH 1236 0
DWIDTH 20 0
BBX 18 19 2 0
BITMAP
000001D000
00000BD000
00002F4000
0000740000
7800B000F0
B801F001F0
B801F002E0
F402F002E0
F402F003D0
F403E007C0
F407E00B80
F40BE00B40
F40FE00F00
F41EE01E00
B42DF03D00
B878F07800
7DF4B9F400
3FE07FD000
1F802F4000
ENDCHAR
STARTCHAR Wcircumflex.ss01
ENCODING -1
SWIDTH 1236 0
DWIDTH 20 0
BBX 18 20 2 0
BITMAP
0000140000
0000BD0000
0001EE0000
0003CF0000
00074B0000
7800B000F0
B801F001F0
B801F002E0
F402F002E0
F402F003D0
F403E007C0
F407E00B80
F40BE00B40
F40FE00F00
F41EE01E00
B42DF03D00
B878F07800
7DF4B9F400
3FE07FD000
1F802F4000
ENDCHAR
STARTCHAR Wdieresis.ss01
ENCODING -1
SWIDTH 1236 0
DWIDTH 20 0
BBX 18 18 2 0
BITMAP
00028A0000
0007CF4000
00038B0000
7800B000F0
B801F001F0
B801F002E0
F402F002E0
F402F003D0
F403E007C0
F407E00B80
F40BE00B40
F40FE00F00
F41EE01E00
B42DF03D00
B878F07800
7DF4B9F400
3FE07FD000
1F802F4000
ENDCHAR
STARTCHAR Wgrave.ss01
ENCODING -1
SWIDTH 1236 0
DWIDTH 20 0
BBX 18 19 2 0
BITMAP
0028000000
003F000000
000BD00000
0001A00000
7800B000F0
B801F001F0
B801F002E0
F402F002E0
F402F003D0
F403E007C0
F407E00B80
F40BE00B40
F40FE00F00
F41EE01E00
B42DF03D00
B878F07800
7DF4B9F400
3FE07FD000
1F802F4000
ENDCHAR
STARTCHAR X.ss01
ENCODING -1
SWIDTH 677 0
DWIDTH 11 0
BBX 13 15 -1 0
BITMAP
02D00780
02E00F80
01F42E00
00B87C00
007DF400
003FD000
002F8000
002F4000
007F8000
01FBC000
03E2E000
0BC1F000
2F40F400
7D00B800
B8003800
ENDCHAR
STARTCHAR Y.ss01
ENCODING -1
SWIDTH 776 0
DWIDTH 12 0
BBX 11 15 1 0
BITMAP
1E0038
2E0078
2E0078
2E00B8
3D00B8
3D00F4
3D02F4
3C03F4
3E5FF0
2FFDF0
0BE5E0
0002D0
6407C0
7FFF40
1BF800
ENDCHAR
STARTCHAR Yacute.ss01
ENCODING -1
SWIDTH 776 0
DWIDTH 12 0
BBX 11 19 1 0
BITMAP
000074
0001F4
000BD0
000E00
1E0038
2E0078
2E0078
2E00B8
3D00B8
3D00F4
3D02F4
3C03F4
3E5FF0
2FFDF0
0BE5E0
0002D0
6407C0
7FFF40
1BF800
ENDCHAR
STARTCHAR Ycircumflex.ss01
ENCODING -1
SWIDTH 776 0
DWIDTH 12 0
BBX 11 20 1 0
BITMAP
000500
002F40
007B80
00F2C0
01D1C0
1E0038
2E0078
2E0078
2E00B8
3D00B8
3D00F4
3D02F4
3C03F4
3E5FF0
2FFDF0
0BE5E0
0002D0
6407C0
7FFF40
1BF800
ENDCHAR
STARTCHAR Ydieresis.ss01
ENCODING -1
SWIDTH 776 0
DWIDTH 12 0
BBX 11 18 1 0
BITMAP
00A180
01F3D0
00E2C0
1E0038
2E0078
2E0078
2E00B8
3D00B8
3D00F4
3D02F4
3C03F4
3E5FF0
2FFDF0
0BE5E0
0002D0
6407C0
7FFF40
1BF800
ENDCHAR
STARTCHAR uni1EF4.ss01
ENCODING -1
SWIDTH 776 0
DWIDTH 12 0
BBX 11 19 1 -4
BITMAP
1E0038
2E0078
2E0078
2E00B8
3D00B8
3D00F4
3D02F4
3C03F4
3E5FF0
2FFDF0
0BE5E0
0002D0
6407C0
7FFF40
1BF800
000000
029000
07E000
03D000
ENDCHAR
STARTCHAR Ygrave.ss01
ENCODING -1
SWIDTH 776 0
DWIDTH 12 0
BBX 11 19 1 0
BITMAP
0A0000
0BD000
02F400
006800
1E0038
2E0078
2E0078
2E00B8
3D00B8
3D00F4
3D02F4
3C03F4
3E5FF0
2FFDF0
0BE5E0
0002D0
6407C0
7FFF40
1BF800
ENDCHAR
STARTCHAR uni1EF6.ss01
ENCODING -1
SWIDTH 776 0
DWIDTH 12 0
BBX 11 19 1 0
BITMAP
002F40
002F80
001F80
001E00
1E0038
2E0078
2E0078
2E00B8
3D00B8
3D00F4
3D02F4
3C03F4
3E5FF0
2FFDF0
0BE5E0
0002D0
6407C0
7FFF40
1BF800
ENDCHAR
STARTCHAR uni0232.ss01
ENCODING -1
SWIDTH 776 0
DWIDTH 12 0
BBX 11 17 1 0
BITMAP
00BF80
00FF80
1E0038
2E0078
2E0078
2E00B8
3D00B8
3D00F4
3D02F4
3C03F4
3E5FF0
2FFDF0
0BE5E0
0002D0
6407C0
7FFF40
1BF800
ENDCHAR
STARTCHAR uni1EF8.ss01
ENCODING -1
SWIDTH 776 0
DWIDTH 12 0
BBX 11 19 1 0
BITMAP
005000
01F870
02DFE0
0147D0
1E0038
2E0078
2E0078
2E00B8
3D00B8
3D00F4
3D02F4
3C03F4
3E5FF0
2FFDF0
0BE5E0
0002D0
6407C0
7FFF40
1BF800
ENDCHAR
STARTCHAR Z.ss01
ENCODING -1
SWIDTH 665 0
DWIDTH 11 0
BBX 11 15 0 0
BITMAP
1FFFF8
1FFFFC
0001F8
0002F0
0007D0
001F80
002F00
00BD00
01F800
03F000
0BD000
1F8000
7F0000
BFFAA0
BFFFF0
ENDCHAR
STARTCHAR Zacute.ss01
ENCODING -1
SWIDTH 665 0
DWIDTH 11 0
BBX 11 19 0 0
BITMAP
000028
0000FC
0007E0
000A40
1FFFF8
1FFFFC
0001F8
0002F0
0007D0
001F80
002F00
00BD00
01F800
03F000
0BD000
1F8000
7F0000
BFFAA0
BFFFF0
ENDCHAR
STARTCHAR Zcaron.ss01
ENCODING -1
SWIDTH 665 0
DWIDTH 11 0
BBX 11 20 0 0
BITMAP
001010
0074F0
0039D0
002F80
000E00
1FFFF8
1FFFFC
0001F8
0002F0
0007D0
001F80
002F00
00BD00
01F800
03F000
0BD000
1F8000
7F0000
BFFAA0
BFFFF0
ENDCHAR
STARTCHAR Zdotaccent.ss01
ENCODING -1
SWIDTH 665 0
DWIDTH 11 0
BBX 11 18 0 0
BITMAP
000A00
001F40
001F00
1FFFF8
1FFFFC
0001F8
0002F0
0007D0
001F80
002F00
00BD00
01F800
03F000
0BD000
1F8000
7F0000
BFFAA0
BFFFF0
ENDCHAR
STARTCHAR i.loclTRK
ENCODING -1
SWIDTH 246 0
DWIDTH 4 0
BBX 6 12 0 0
BITMAP
0A00
2F40
1E00
0000
1D00
2D00
3C00
3C00
7820
78B0
3FD0
1E40
ENDCHAR
STARTCHAR a.fina
ENCODING -1
SWIDTH 458 0
DWIDTH 7 0
BBX 7 8 0 0
BITMAP
02D0
0FF8
2E3C
3C78
78B8
78F8
7FF4
2E74
ENDCHAR
STARTCHAR aacute.fina
ENCODING -1
SWIDTH 458 0
DWIDTH 7 0
BBX 8 14 0 0
BITMAP
000A
001E
002D
0074
0060
0000
02D0
0FF8
2E3C
3C78
78B8
78F8
7FF4
2E74
ENDCHAR
STARTCHAR abreve.fina
ENCODING -1
SWIDTH 458 0
DWIDTH 7 0
BBX 9 13 0 0
BITMAP
0D0340
0F0B40
0BFF00
02F800
000000
02D000
0FF800
2E3C00
3C7800
78B800
78F800
7FF400
2E7400
ENDCHAR
STARTCHAR uni1EAF.fina
ENCODING -1
SWIDTH 458 0
DWIDTH 7 0
BBX 9 15 0 0
BITMAP
000A00
002D00
052500
0F0B40
0BFF00
02A800
000000
02D000
0FF800
2E3C00
3C7800
78B800
78F800
7FF400
2E7400
ENDCHAR
STARTCHAR uni1EB7.fina
ENCODING -1
SWIDTH 458 0
DWIDTH 7 0
BBX 9 17 0 -4
BITMAP
0D0340
0F0B40
0BFF00
02F800
000000
02D000
0FF800
2E3C00
3C7800
78B800
78F800
7FF400
2E7400
000000
0A0000
1F4000
0F0000
ENDCHAR
STARTCHAR uni1EB1.fina
ENCODING -1
SWIDTH 458 0
DWIDTH 7 0
BBX 9 15 0 0
BITMAP
038000
02E000
056100
0F0B40
0BFE00
01A400
000000
02D000
0FF800
2E3C00
3C7800
78B800
78F800
7FF400
2E7400
ENDCHAR
STARTCHAR uni1EB3.fina
ENCODING -1
SWIDTH 458 0
DWIDTH 7 0
BBX 9 15 0 0
BITMAP
00F800
002C00
04B500
0E0740
0FFF00
02F900
000000
02D000
0FF800
2E3C00
3C7800
78B800
78F800
7FF400
2E7400
ENDCHAR
STARTCHAR uni1EB5.fina
ENCODING -1
SWIDTH 458 0
DWIDTH 7 0
BBX 9 16 0 0
BITMAP
014140
03E380
0B7F00
050500
0E0740
0FAF40
02F900
000000
02D000
0FF800
2E3C00
3C7800
78B800
78F800
7FF400
2E7400
ENDCHAR
ENDFONT
